<svg width="20" height="20" viewBox="0 0 20 20" fill="none" xmlns="http://www.w3.org/2000/svg">
<path d="M9.99605 12.9138C10.7997 12.9138 11.5705 12.6065 12.1388 12.0596C12.7071 11.5126 13.0264 10.7707 13.0264 9.99716C13.0264 9.22361 12.7071 8.48175 12.1388 7.93477C11.5705 7.38779 10.7997 7.08049 9.99605 7.08049C9.19236 7.08049 8.42159 7.38779 7.8533 7.93477C7.28501 8.48175 6.96575 9.22361 6.96575 9.99716C6.96575 10.7707 7.28501 11.5126 7.8533 12.0596C8.42159 12.6065 9.19236 12.9138 9.99605 12.9138ZM17.5756 4.16602H2.42408C2.22316 4.16602 2.03047 4.24284 1.88839 4.37958C1.74632 4.51633 1.6665 4.7018 1.6665 4.89518V15.1035C1.6665 15.2969 1.74632 15.4824 1.88839 15.6191C2.03047 15.7559 2.22316 15.8327 2.42408 15.8327H17.5756C17.7765 15.8327 17.9692 15.7559 18.1113 15.6191C18.2534 15.4824 18.3332 15.2969 18.3332 15.1035V4.89518C18.3332 4.7018 18.2534 4.51633 18.1113 4.37958C17.9692 4.24284 17.7765 4.16602 17.5756 4.16602ZM3.18166 12.6557V7.33862C3.60253 7.21684 3.98546 6.9965 4.29616 6.69733C4.60685 6.39816 4.83562 6.02949 4.96196 5.62435H15.0309C15.1577 6.03051 15.3874 6.39997 15.6993 6.69946C16.0113 6.99896 16.3957 7.2191 16.818 7.34008V12.6542C16.3951 12.7755 16.0101 12.9963 15.698 13.2966C15.3858 13.5969 15.1563 13.9673 15.0301 14.3743H4.96196C4.83619 13.9683 4.60761 13.5987 4.29673 13.2987C3.98586 12.9987 3.60319 12.7778 3.18166 12.6557Z" fill="#4D4D4D"/>
</svg>
