<svg width="16" height="16" viewBox="0 0 16 16" fill="none" xmlns="http://www.w3.org/2000/svg">
<g clip-path="url(#clip0_9449_23069)">
<path d="M8 1.43555C11.6253 1.4356 14.5645 4.37463 14.5645 8C14.5644 11.6252 11.6253 14.5644 8 14.5645C4.37464 14.5645 1.4356 11.6253 1.43555 8C1.43555 4.37461 4.37461 1.43555 8 1.43555ZM8 1.44922C4.38197 1.44922 1.44922 4.38197 1.44922 8C1.44927 11.618 4.382 14.5508 8 14.5508C11.6179 14.5507 14.5507 11.618 14.5508 8C14.5508 4.38201 11.618 1.44927 8 1.44922ZM10.4189 5.57324V5.57227C10.4339 5.58281 10.4374 5.60401 10.4268 5.61914L7.0498 10.4189C7.04407 10.4271 7.03487 10.4328 7.02539 10.4336C7.01548 10.4344 7.0049 10.4308 6.99805 10.4238L5.30957 8.70312C5.29682 8.69009 5.29674 8.66915 5.30957 8.65625C5.32268 8.64338 5.3445 8.64311 5.35742 8.65625L6.59766 9.91992L7.01758 10.3477L7.36328 9.85742L10.373 5.58105C10.3836 5.566 10.4038 5.56262 10.4189 5.57324Z" fill="#28A745" stroke="#28A745"/>
</g>
<defs>
<clipPath id="clip0_9449_23069">
<rect width="16" height="16" fill="white"/>
</clipPath>
</defs>
</svg>
