<svg viewBox="0 0 16 16" fill="none" xmlns="http://www.w3.org/2000/svg">
  <path fill-rule="evenodd" clip-rule="evenodd"
    d="M12.5676 4.30093C12.8071 4.06141 12.8071 3.67307 12.5676 3.43355C12.3281 3.19403 11.9397 3.19403 11.7003 3.43355L8.00058 7.13319L4.30094 3.43355C4.06141 3.19403 3.67307 3.19403 3.43355 3.43355C3.19403 3.67307 3.19403 4.06141 3.43355 4.30093L7.13319 8.00058L3.43355 11.7002C3.19403 11.9398 3.19403 12.3281 3.43355 12.5676C3.67307 12.8071 4.06141 12.8071 4.30094 12.5676L8.00058 8.86796L11.7003 12.5676C11.9397 12.8071 12.3281 12.8071 12.5676 12.5676C12.8071 12.3281 12.8071 11.9398 12.5676 11.7002L8.86796 8.00058L12.5676 4.30093Z"
    fill="#4D4D4D" />
</svg>