<svg width="24" height="24" viewBox="0 0 24 24" fill="none" xmlns="http://www.w3.org/2000/svg">
<path d="M18.875 8.25C19.3047 8.25 19.7083 8.33138 20.0859 8.49414C20.4635 8.6569 20.7923 8.88151 21.0723 9.16797C21.3522 9.45443 21.5768 9.78646 21.7461 10.1641C21.9154 10.5417 22 10.9453 22 11.375C22 11.7461 21.9382 12.1009 21.8145 12.4395C21.6908 12.778 21.5182 13.0807 21.2969 13.3477C21.0755 13.6146 20.8118 13.8457 20.5059 14.041C20.1999 14.2363 19.8646 14.3698 19.5 14.4414V15.4375C19.5 16.0169 19.4284 16.5801 19.2852 17.127C19.1419 17.6738 18.9401 18.1947 18.6797 18.6895C18.4193 19.1842 18.1003 19.6302 17.7227 20.0273C17.3451 20.4245 16.9251 20.7728 16.4629 21.0723C16.0007 21.3717 15.4961 21.5996 14.9492 21.7559C14.4023 21.9121 13.8359 21.9935 13.25 22C12.6576 22 12.0911 21.9186 11.5508 21.7559C11.0104 21.5931 10.5091 21.3652 10.0469 21.0723C9.58464 20.7793 9.16471 20.431 8.78711 20.0273C8.40951 19.6237 8.09049 19.1777 7.83008 18.6895C7.56966 18.2012 7.36458 17.6836 7.21484 17.1367C7.0651 16.5898 6.99349 16.0234 7 15.4375V13.2012C6.19922 13.1296 5.48958 12.9375 4.87109 12.625C4.2526 12.3125 3.72852 11.9023 3.29883 11.3945C2.86914 10.8867 2.54688 10.2975 2.33203 9.62695C2.11719 8.95638 2.00651 8.23047 2 7.44922V2H5.125C5.29427 2 5.44076 2.06185 5.56445 2.18555C5.68815 2.30924 5.75 2.45573 5.75 2.625C5.75 2.79427 5.68815 2.94076 5.56445 3.06445C5.44076 3.18815 5.29427 3.25 5.125 3.25H3.25V7.44922C3.25 8.13932 3.3444 8.76432 3.5332 9.32422C3.72201 9.88411 4.00521 10.3626 4.38281 10.7598C4.76042 11.1569 5.21615 11.4629 5.75 11.6777C6.28385 11.8926 6.90885 12 7.625 12C8.28255 12 8.88151 11.8991 9.42188 11.6973C9.96224 11.4954 10.4212 11.2057 10.7988 10.8281C11.1764 10.4505 11.4727 9.99479 11.6875 9.46094C11.9023 8.92708 12.0065 8.32487 12 7.6543V3.25H10.125C9.95573 3.25 9.80924 3.18815 9.68555 3.06445C9.56185 2.94076 9.5 2.79427 9.5 2.625C9.5 2.45573 9.56185 2.30924 9.68555 2.18555C9.80924 2.06185 9.95573 2 10.125 2H13.25V7.44922C13.25 8.23047 13.1393 8.95638 12.918 9.62695C12.6966 10.2975 12.3743 10.8867 11.9512 11.3945C11.528 11.9023 11.0072 12.3125 10.3887 12.625C9.77018 12.9375 9.05729 13.1296 8.25 13.2012V15.4375C8.25 16.1341 8.3737 16.8014 8.62109 17.4395C8.86849 18.0775 9.2168 18.6439 9.66602 19.1387C10.1152 19.6335 10.6426 20.0241 11.248 20.3105C11.8535 20.597 12.5208 20.7435 13.25 20.75C13.9727 20.75 14.6367 20.6035 15.2422 20.3105C15.8477 20.0176 16.375 19.627 16.8242 19.1387C17.2734 18.6504 17.6217 18.0872 17.8691 17.4492C18.1165 16.8112 18.2435 16.1406 18.25 15.4375V14.4414C17.8854 14.3633 17.5501 14.2298 17.2441 14.041C16.9382 13.8522 16.6745 13.6243 16.4531 13.3574C16.2318 13.0905 16.0592 12.7845 15.9355 12.4395C15.8118 12.0944 15.75 11.7396 15.75 11.375C15.75 10.9453 15.8314 10.5417 15.9941 10.1641C16.1569 9.78646 16.3783 9.45768 16.6582 9.17773C16.9382 8.89779 17.2702 8.67318 17.6543 8.50391C18.0384 8.33464 18.4453 8.25 18.875 8.25ZM18.875 13.25C19.1354 13.25 19.3796 13.2012 19.6074 13.1035C19.8353 13.0059 20.0339 12.8724 20.2031 12.7031C20.3724 12.5339 20.5059 12.3353 20.6035 12.1074C20.7012 11.8796 20.75 11.6354 20.75 11.375C20.75 11.1146 20.7012 10.8704 20.6035 10.6426C20.5059 10.4147 20.3724 10.2161 20.2031 10.0469C20.0339 9.8776 19.8353 9.74414 19.6074 9.64648C19.3796 9.54883 19.1354 9.5 18.875 9.5C18.6146 9.5 18.3704 9.54883 18.1426 9.64648C17.9147 9.74414 17.7161 9.8776 17.5469 10.0469C17.3776 10.2161 17.2441 10.4147 17.1465 10.6426C17.0488 10.8704 17 11.1146 17 11.375C17 11.6354 17.0488 11.8796 17.1465 12.1074C17.2441 12.3353 17.3776 12.5339 17.5469 12.7031C17.7161 12.8724 17.9147 13.0059 18.1426 13.1035C18.3704 13.2012 18.6146 13.25 18.875 13.25Z" fill="#4D4D4D"/>
</svg>
