<svg width="24" height="24" viewBox="0 0 24 24" fill="none" xmlns="http://www.w3.org/2000/svg">
<path fill-rule="evenodd" clip-rule="evenodd" d="M7.4 3.60039H2V2.40039H22V3.60039H16.6V8.00039C16.6 10.5409 14.5405 12.6004 12 12.6004C9.45949 12.6004 7.4 10.5409 7.4 8.00039V3.60039ZM8.6 3.60039V5.7998H15.4V3.60039H8.6ZM15.4 6.9998H8.6V8.00039C8.6 9.87816 10.1222 11.4004 12 11.4004C13.8778 11.4004 15.4 9.87816 15.4 8.00039V6.9998ZM4 4.40039C4.33137 4.40039 4.6 4.66902 4.6 5.00039V11.0004H3.4V5.00039C3.4 4.66902 3.66863 4.40039 4 4.40039ZM9 16.6004C7.67452 16.6004 6.6 17.6749 6.6 19.0004V21.0004H5.4V19.0004C5.4 17.0122 7.01178 15.4004 9 15.4004L15 15.4004C16.9882 15.4004 18.6 17.0122 18.6 19.0004V21.0004H17.4V19.0004C17.4 17.6749 16.3255 16.6004 15 16.6004L9 16.6004Z" fill="#4D4D4D"/>
</svg>
