<svg width="24" height="24" viewBox="0 0 24 24" fill="none" xmlns="http://www.w3.org/2000/svg">
<path d="M5.692 18.9998V17.9998H7.158L9.036 11.6558C9.13133 11.2991 9.323 11.0171 9.611 10.8098C9.899 10.6024 10.221 10.4991 10.577 10.4998H13.423C13.7797 10.4998 14.1017 10.6031 14.389 10.8098C14.677 11.0171 14.8687 11.2991 14.964 11.6558L16.842 17.9998H18.308V18.9998H5.692ZM8.219 17.9998H15.781L14 11.9418C13.9613 11.8011 13.8877 11.6924 13.779 11.6158C13.6703 11.5391 13.5453 11.5004 13.404 11.4998H10.596C10.4553 11.4998 10.3303 11.5384 10.221 11.6158C10.1123 11.6924 10.0387 11.8011 10 11.9418L8.219 17.9998ZM11.5 7.88477V3.88477H12.5V7.88477H11.5ZM16.95 10.1478L16.237 9.43477L19.075 6.62077L19.764 7.30977L16.95 10.1478ZM18.5 14.8848V13.8848H22.5V14.8848H18.5ZM7.05 10.1468L4.237 7.30977L4.925 6.62077L7.764 9.43477L7.05 10.1468ZM1.5 14.8848V13.8848H5.5V14.8848H1.5Z" fill="#4D4D4D"/>
</svg>
