<svg width="24" height="25" viewBox="0 0 24 25" fill="none" xmlns="http://www.w3.org/2000/svg">
<path d="M12 5.5C13.5 4 14.74 3.5 16.5 3.5C17.9587 3.5 19.3576 4.07946 20.3891 5.11091C21.4205 6.14236 22 7.54131 22 9C22 11.29 20.49 13.04 19 14.5L12 21.5L5 14.5C3.5 13.05 2 11.3 2 9C2 7.54131 2.57946 6.14236 3.61091 5.11091C4.64236 4.07946 6.04131 3.5 7.5 3.5C9.26 3.5 10.5 4 12 5.5ZM12 5.5L9.04 8.46C8.83682 8.66171 8.67556 8.90162 8.56552 9.16593C8.45548 9.43023 8.39882 9.7137 8.39882 10C8.39882 10.2863 8.45548 10.5698 8.56552 10.8341C8.67556 11.0984 8.83682 11.3383 9.04 11.54C9.86 12.36 11.17 12.39 12.04 11.61L14.11 9.71C14.6289 9.23919 15.3044 8.97839 16.005 8.97839C16.7056 8.97839 17.3811 9.23919 17.9 9.71L20.86 12.37M18 15.5L16 13.5M15 18.5L13 16.5" stroke="#4D4D4D" stroke-width="1.4" stroke-linecap="round" stroke-linejoin="round"/>
</svg>
