<svg width="20" height="20" viewBox="0 0 20 20" fill="none" xmlns="http://www.w3.org/2000/svg">
<g clip-path="url(#clip0_6353_7538)">
<path d="M14.5833 5.41699H14.5916M5.83329 1.66699H14.1666C16.4678 1.66699 18.3333 3.53247 18.3333 5.83366V14.167C18.3333 16.4682 16.4678 18.3337 14.1666 18.3337H5.83329C3.53211 18.3337 1.66663 16.4682 1.66663 14.167V5.83366C1.66663 3.53247 3.53211 1.66699 5.83329 1.66699ZM13.3333 9.47533C13.4361 10.1689 13.3177 10.8772 12.9948 11.4995C12.6718 12.1218 12.1609 12.6265 11.5346 12.9417C10.9084 13.2569 10.1987 13.3667 9.50645 13.2553C8.81423 13.1439 8.17476 12.8171 7.67899 12.3213C7.18322 11.8255 6.8564 11.1861 6.74502 10.4938C6.63363 9.80162 6.74335 9.0919 7.05856 8.46564C7.37378 7.83937 7.87845 7.32844 8.50078 7.00553C9.12311 6.68261 9.83142 6.56415 10.525 6.66699C11.2324 6.7719 11.8873 7.10155 12.393 7.60725C12.8987 8.11295 13.2284 8.76789 13.3333 9.47533Z" stroke="#333333" stroke-width="2" stroke-linecap="round" stroke-linejoin="round"/>
</g>
<defs>
<clipPath id="clip0_6353_7538">
<rect width="20" height="20" fill="white"/>
</clipPath>
</defs>
</svg>
