<svg width="20" height="20" viewBox="0 0 20 20" fill="none" xmlns="http://www.w3.org/2000/svg">
<g clip-path="url(#clip0_7779_10389)">
<rect x="0.833496" y="0.833984" width="18.3333" height="18.3333" rx="3.33333" fill="#FFDD35"/>
<path d="M5 7.86736V8.31114C5.53988 8.31114 6.05522 8.53304 6.44785 8.91519C6.82822 9.29734 7.04908 9.81509 7.04908 10.3575H7.45399C7.45399 9.81509 7.67485 9.29734 8.05521 8.91519C8.43558 8.52071 8.96319 8.31114 9.50307 8.31114V7.86736C8.96319 7.86736 8.43558 7.64546 8.05521 7.26331C7.67485 6.88116 7.45399 6.36341 7.45399 5.82101H7.04908C7.04908 6.36341 6.82822 6.88116 6.44785 7.26331C6.06749 7.65779 5.53988 7.86736 5 7.86736Z" fill="black"/>
<path d="M10.5706 5.05671H7.04908V3.75H10.5706C13.0491 3.75 15 5.6854 15 8.07692C15 10.4561 13.0491 12.4038 10.5706 12.4038H8.52147V16.25H7.04908V11.0971H10.5706C12.2883 11.0971 13.5153 9.87673 13.5153 8.07692C13.5153 6.27712 12.2883 5.05671 10.5706 5.05671Z" fill="black"/>
</g>
<defs>
<clipPath id="clip0_7779_10389">
<rect width="20" height="20" rx="2.5" fill="white"/>
</clipPath>
</defs>
</svg>
