<svg width="17" height="17" viewBox="0 0 17 17" fill="none" xmlns="http://www.w3.org/2000/svg">
<g clip-path="url(#clip0_6711_15411)">
<mask id="path-1-inside-1_6711_15411" fill="white">
<path fill-rule="evenodd" clip-rule="evenodd" d="M16.2492 7.1827C16.499 7.33881 16.575 7.66786 16.4188 7.91763C15.9506 8.66694 15.3941 9.34856 14.7615 9.94227L16.0426 11.2233C16.2508 11.4316 16.2508 11.7693 16.0426 11.9776C15.8343 12.1858 15.4966 12.1858 15.2884 11.9776L13.9412 10.6304C13.092 11.2647 12.1362 11.7546 11.096 12.0627L11.5752 13.8512C11.6514 14.1357 11.4825 14.4281 11.198 14.5043C10.9135 14.5806 10.6211 14.4118 10.5448 14.1273L10.0564 12.3043C9.55326 12.3902 9.03372 12.4349 8.50001 12.4349C7.96629 12.4349 7.44674 12.3902 6.94354 12.3043L6.45519 14.1272C6.37897 14.4118 6.08653 14.5806 5.80202 14.5043C5.51749 14.4282 5.34864 14.1357 5.42486 13.8512L5.904 12.0627C4.86385 11.7546 3.90803 11.2647 3.05883 10.6304L1.71163 11.9776C1.50335 12.1858 1.16566 12.1858 0.957385 11.9776C0.749106 11.7693 0.749106 11.4316 0.957385 11.2233L2.23847 9.94225C1.60594 9.34854 1.04945 8.66693 0.581139 7.91763C0.425027 7.66786 0.500958 7.33881 0.750736 7.1827C1.00051 7.02659 1.32955 7.10252 1.48566 7.3523C1.99711 8.17062 2.6216 8.89429 3.33982 9.49389C3.35136 9.5027 3.36261 9.51205 3.37357 9.52193C4.77623 10.6806 6.53239 11.3683 8.50001 11.3683C11.495 11.3683 14.0002 9.77507 15.5144 7.35229C15.6705 7.10252 15.9995 7.02659 16.2492 7.1827Z"/>
</mask>
<path fill-rule="evenodd" clip-rule="evenodd" d="M16.2492 7.1827C16.499 7.33881 16.575 7.66786 16.4188 7.91763C15.9506 8.66694 15.3941 9.34856 14.7615 9.94227L16.0426 11.2233C16.2508 11.4316 16.2508 11.7693 16.0426 11.9776C15.8343 12.1858 15.4966 12.1858 15.2884 11.9776L13.9412 10.6304C13.092 11.2647 12.1362 11.7546 11.096 12.0627L11.5752 13.8512C11.6514 14.1357 11.4825 14.4281 11.198 14.5043C10.9135 14.5806 10.6211 14.4118 10.5448 14.1273L10.0564 12.3043C9.55326 12.3902 9.03372 12.4349 8.50001 12.4349C7.96629 12.4349 7.44674 12.3902 6.94354 12.3043L6.45519 14.1272C6.37897 14.4118 6.08653 14.5806 5.80202 14.5043C5.51749 14.4282 5.34864 14.1357 5.42486 13.8512L5.904 12.0627C4.86385 11.7546 3.90803 11.2647 3.05883 10.6304L1.71163 11.9776C1.50335 12.1858 1.16566 12.1858 0.957385 11.9776C0.749106 11.7693 0.749106 11.4316 0.957385 11.2233L2.23847 9.94225C1.60594 9.34854 1.04945 8.66693 0.581139 7.91763C0.425027 7.66786 0.500958 7.33881 0.750736 7.1827C1.00051 7.02659 1.32955 7.10252 1.48566 7.3523C1.99711 8.17062 2.6216 8.89429 3.33982 9.49389C3.35136 9.5027 3.36261 9.51205 3.37357 9.52193C4.77623 10.6806 6.53239 11.3683 8.50001 11.3683C11.495 11.3683 14.0002 9.77507 15.5144 7.35229C15.6705 7.10252 15.9995 7.02659 16.2492 7.1827Z" fill="#4D4D4D"/>
<path d="M16.2492 7.1827L15.6131 8.20021L15.6133 8.20035L16.2492 7.1827ZM16.4188 7.91763L15.4013 7.28147L15.4012 7.28168L16.4188 7.91763ZM14.7615 9.94227L13.9403 9.06731L13.0372 9.91497L13.913 10.7908L14.7615 9.94227ZM16.0426 11.2233L16.8912 10.3749L16.8911 10.3748L16.0426 11.2233ZM16.0426 11.9776L16.8909 12.8264L16.8914 12.8259L16.0426 11.9776ZM15.2884 11.9776L14.4398 12.8261L14.4398 12.8262L15.2884 11.9776ZM13.9412 10.6304L14.7897 9.78188L14.0552 9.04738L13.223 9.669L13.9412 10.6304ZM11.096 12.0627L10.7551 10.9122L9.63436 11.2442L9.93689 12.3733L11.096 12.0627ZM11.5752 13.8512L12.7344 13.5409L12.7343 13.5407L11.5752 13.8512ZM11.198 14.5043L11.5087 15.6634L11.5088 15.6634L11.198 14.5043ZM10.5448 14.1273L9.38572 14.4378L9.38573 14.4379L10.5448 14.1273ZM10.0564 12.3043L11.2156 11.9938L10.9326 10.9375L9.85459 11.1214L10.0564 12.3043ZM6.94354 12.3043L7.14539 11.1214L6.06741 10.9375L5.78442 11.9938L6.94354 12.3043ZM6.45519 14.1272L5.29607 13.8166L5.29605 13.8167L6.45519 14.1272ZM5.80202 14.5043L6.11272 13.3453L6.1123 13.3452L5.80202 14.5043ZM5.42486 13.8512L6.58398 14.1618L6.58399 14.1618L5.42486 13.8512ZM5.904 12.0627L7.06313 12.3733L7.3656 11.2442L6.24487 10.9122L5.904 12.0627ZM3.05883 10.6304L3.77695 9.66897L2.94475 9.04736L2.21028 9.78186L3.05883 10.6304ZM1.71163 11.9776L2.56002 12.8263L2.56017 12.8261L1.71163 11.9776ZM0.957385 11.9776L0.108772 12.8261L0.108987 12.8263L0.957385 11.9776ZM0.957385 11.2233L1.80589 12.0719L1.80591 12.0719L0.957385 11.2233ZM2.23847 9.94225L3.087 10.7908L3.96282 9.91495L3.05972 9.06729L2.23847 9.94225ZM0.581139 7.91763L1.59874 7.28163L1.59873 7.28161L0.581139 7.91763ZM0.750736 7.1827L1.38672 8.20031L1.38675 8.20029L0.750736 7.1827ZM1.48566 7.3523L0.468061 7.9883L0.468064 7.9883L1.48566 7.3523ZM3.33982 9.49389L2.57077 10.4151L2.59086 10.4318L2.61166 10.4477L3.33982 9.49389ZM3.37357 9.52193L2.57 10.4131L2.58929 10.4305L2.60932 10.4471L3.37357 9.52193ZM15.5144 7.35229L16.532 7.98829L16.5321 7.98814L15.5144 7.35229ZM16.2492 7.1827L15.6133 8.20035C15.3011 8.00525 15.206 7.59384 15.4013 7.28147L16.4188 7.91763L17.4363 8.55378C17.9439 7.74187 17.697 6.67237 16.8851 6.16506L16.2492 7.1827ZM16.4188 7.91763L15.4012 7.28168C14.9859 7.94618 14.4948 8.54684 13.9403 9.06731L14.7615 9.94227L15.5828 10.8172C16.2934 10.1503 16.9152 9.3877 17.4365 8.55357L16.4188 7.91763ZM14.7615 9.94227L13.913 10.7908L15.1941 12.0719L16.0426 11.2233L16.8911 10.3748L15.6101 9.09374L14.7615 9.94227ZM16.0426 11.2233L15.194 12.0718C14.9336 11.8114 14.9338 11.3895 15.1939 11.1293L16.0426 11.9776L16.8914 12.8259C17.5678 12.1491 17.568 11.0518 16.8912 10.3749L16.0426 11.2233ZM16.0426 11.9776L15.1943 11.1289C15.4544 10.8689 15.8764 10.8686 16.1369 11.1291L15.2884 11.9776L14.4398 12.8262C15.1168 13.5031 16.2141 13.5028 16.8909 12.8264L16.0426 11.9776ZM15.2884 11.9776L16.1369 11.1291L14.7897 9.78188L13.9412 10.6304L13.0926 11.4789L14.4398 12.8261L15.2884 11.9776ZM13.9412 10.6304L13.223 9.669C12.483 10.2218 11.6541 10.6459 10.7551 10.9122L11.096 12.0627L11.4369 13.2133C12.6183 12.8633 13.701 12.3076 14.6593 11.5918L13.9412 10.6304ZM11.096 12.0627L9.93689 12.3733L10.4161 14.1618L11.5752 13.8512L12.7343 13.5407L12.2551 11.7522L11.096 12.0627ZM11.5752 13.8512L10.416 14.1616C10.3208 13.8058 10.532 13.4405 10.8873 13.3453L11.198 14.5043L11.5088 15.6634C12.4331 15.4156 12.9819 14.4656 12.7344 13.5409L11.5752 13.8512ZM11.198 14.5043L10.8873 13.3453C11.243 13.2499 11.6087 13.461 11.704 13.8167L10.5448 14.1273L9.38573 14.4379C9.63348 15.3625 10.584 15.9113 11.5087 15.6634L11.198 14.5043ZM10.5448 14.1273L11.704 13.8167L11.2156 11.9938L10.0564 12.3043L8.89733 12.6149L9.38572 14.4378L10.5448 14.1273ZM10.0564 12.3043L9.85459 11.1214C9.41854 11.1959 8.96653 11.2349 8.50001 11.2349V12.4349V13.6349C9.1009 13.6349 9.68798 13.5846 10.2583 13.4872L10.0564 12.3043ZM8.50001 12.4349V11.2349C8.03348 11.2349 7.58146 11.1959 7.14539 11.1214L6.94354 12.3043L6.74169 13.4872C7.31203 13.5846 7.89911 13.6349 8.50001 13.6349V12.4349ZM6.94354 12.3043L5.78442 11.9938L5.29607 13.8166L6.45519 14.1272L7.61431 14.4377L8.10266 12.6149L6.94354 12.3043ZM6.45519 14.1272L5.29605 13.8167C5.39128 13.4612 5.75686 13.2499 6.11272 13.3453L5.80202 14.5043L5.49131 15.6634C6.4162 15.9114 7.36665 15.3624 7.61433 14.4376L6.45519 14.1272ZM5.80202 14.5043L6.1123 13.3452C6.46827 13.4404 6.67926 13.8062 6.58398 14.1618L5.42486 13.8512L4.26575 13.5407C4.01802 14.4652 4.56671 15.4159 5.49173 15.6635L5.80202 14.5043ZM5.42486 13.8512L6.58399 14.1618L7.06313 12.3733L5.904 12.0627L4.74488 11.7522L4.26574 13.5407L5.42486 13.8512ZM5.904 12.0627L6.24487 10.9122C5.34596 10.6459 4.51708 10.2218 3.77695 9.66897L3.05883 10.6304L2.3407 11.5918C3.29898 12.3076 4.38174 12.8633 5.56313 13.2133L5.904 12.0627ZM3.05883 10.6304L2.21028 9.78186L0.863082 11.1291L1.71163 11.9776L2.56017 12.8261L3.90737 11.4789L3.05883 10.6304ZM1.71163 11.9776L0.863233 11.129C1.12355 10.8687 1.54546 10.8687 1.80578 11.129L0.957385 11.9776L0.108987 12.8263C0.785866 13.503 1.88314 13.503 2.56002 12.8263L1.71163 11.9776ZM0.957385 11.9776L1.806 11.1292C2.06618 11.3894 2.06633 11.8115 1.80589 12.0719L0.957385 11.2233L0.10888 10.3748C-0.568119 11.0517 -0.567963 12.1492 0.108772 12.8261L0.957385 11.9776ZM0.957385 11.2233L1.80591 12.0719L3.087 10.7908L2.23847 9.94225L1.38995 9.09372L0.108857 10.3748L0.957385 11.2233ZM2.23847 9.94225L3.05972 9.06729C2.50521 8.54682 2.01406 7.94614 1.59874 7.28163L0.581139 7.91763L-0.436458 8.55363C0.0848475 9.38771 0.70667 10.1503 1.41723 10.8172L2.23847 9.94225ZM0.581139 7.91763L1.59873 7.28161C1.79388 7.59385 1.69897 8.00516 1.38672 8.20031L0.750736 7.1827L0.11475 6.1651C-0.69705 6.67246 -0.943826 7.74186 -0.436451 8.55364L0.581139 7.91763ZM0.750736 7.1827L1.38675 8.20029C1.0745 8.39546 0.66319 8.30051 0.468061 7.9883L1.48566 7.3523L2.50326 6.71631C1.99591 5.90454 0.926526 5.65772 0.114718 6.16512L0.750736 7.1827ZM1.48566 7.3523L0.468064 7.9883C1.04355 8.90907 1.75059 9.73034 2.57077 10.4151L3.33982 9.49389L4.10886 8.57272C3.49261 8.05823 2.95067 7.43216 2.50326 6.71631L1.48566 7.3523ZM3.33982 9.49389L2.61166 10.4477C2.59695 10.4365 2.58306 10.4249 2.57 10.4131L3.37357 9.52193L4.17714 8.63071C4.14217 8.59917 4.10577 8.56892 4.06797 8.54006L3.33982 9.49389ZM3.37357 9.52193L2.60932 10.4471C4.21705 11.7752 6.24075 12.5683 8.50001 12.5683V11.3683V10.1683C6.82404 10.1683 5.33542 9.58608 4.13782 8.59677L3.37357 9.52193ZM8.50001 11.3683V12.5683C11.9558 12.5683 14.8246 10.7201 16.532 7.98829L15.5144 7.35229L14.4968 6.71629C13.1757 8.83007 11.0342 10.1683 8.50001 10.1683V11.3683ZM15.5144 7.35229L16.5321 7.98814C16.3369 8.30053 15.9255 8.39551 15.6131 8.20021L16.2492 7.1827L16.8854 6.1652C16.0736 5.65767 15.004 5.90452 14.4967 6.71645L15.5144 7.35229Z" fill="#4D4D4D" mask="url(#path-1-inside-1_6711_15411)"/>
</g>
<defs>
<clipPath id="clip0_6711_15411">
<rect width="16" height="16" fill="white" transform="translate(0.5 0.701172)"/>
</clipPath>
</defs>
</svg>
