<svg width="24" height="24" viewBox="0 0 24 24" fill="none" xmlns="http://www.w3.org/2000/svg">
<path fill-rule="evenodd" clip-rule="evenodd" d="M11.9994 2.64336C10.8246 2.64336 9.87214 3.59577 9.87214 4.77063C9.87214 5.94549 10.8246 6.8979 11.9994 6.8979C13.1743 6.8979 14.1267 5.94549 14.1267 4.77063C14.1267 3.59577 13.1743 2.64336 11.9994 2.64336ZM8.67214 4.77063C8.67214 2.93303 10.1618 1.44336 11.9994 1.44336C13.837 1.44336 15.3267 2.93303 15.3267 4.77063C15.3267 6.60823 13.837 8.0979 11.9994 8.0979C10.1618 8.0979 8.67214 6.60823 8.67214 4.77063ZM4.72669 6.27972C3.55183 6.27972 2.59941 7.23214 2.59941 8.407C2.59941 9.58186 3.55183 10.5343 4.72669 10.5343C5.90155 10.5343 6.85396 9.58186 6.85396 8.407C6.85396 7.23214 5.90155 6.27972 4.72669 6.27972ZM1.39941 8.407C1.39941 6.56939 2.88908 5.07972 4.72669 5.07972C6.56429 5.07972 8.05396 6.56939 8.05396 8.407C8.05396 10.2446 6.56429 11.7343 4.72669 11.7343C2.88908 11.7343 1.39941 10.2446 1.39941 8.407ZM19.2721 6.27972C18.0973 6.27972 17.1449 7.23214 17.1449 8.407C17.1449 9.58186 18.0973 10.5343 19.2721 10.5343C20.447 10.5343 21.3994 9.58186 21.3994 8.407C21.3994 7.23214 20.447 6.27972 19.2721 6.27972ZM15.9449 8.407C15.9449 6.56939 17.4345 5.07972 19.2721 5.07972C21.1097 5.07972 22.5994 6.56939 22.5994 8.407C22.5994 10.2446 21.1097 11.7343 19.2721 11.7343C17.4345 11.7343 15.9449 10.2446 15.9449 8.407ZM11.9993 10.5343C13.4267 10.5343 14.7824 11.2507 16.0599 12.5282L18.7687 15.237C19.6017 15.9408 20.1245 16.9445 20.2233 18.0313C20.3229 19.1274 19.983 20.2183 19.2784 21.0638C18.5738 21.9094 17.5621 22.4404 16.4659 22.5401C15.3945 22.6375 14.3282 22.315 13.491 21.6424C12.4876 21.1588 11.5109 21.1588 10.5075 21.6424C9.67036 22.315 8.60404 22.6375 7.53265 22.5401C6.43649 22.4404 5.42481 21.9094 4.72017 21.0638C4.01554 20.2183 3.67566 19.1274 3.77531 18.0313C3.87411 16.9445 4.39691 15.9408 5.22988 15.237L7.93866 12.5282C9.21618 11.2507 10.5719 10.5343 11.9993 10.5343ZM11.9993 11.7343C11.0024 11.7343 9.93391 12.23 8.78719 13.3767L6.05992 16.104C6.04709 16.1168 6.03369 16.129 6.01976 16.1407C5.41869 16.6415 5.04122 17.3607 4.97038 18.1399C4.89954 18.9191 5.14115 19.6945 5.64204 20.2956C6.14293 20.8967 6.86208 21.2742 7.64129 21.345C8.42049 21.4158 9.19593 21.1742 9.797 20.6733C9.83254 20.6437 9.87139 20.6183 9.91278 20.5976C11.2938 19.9071 12.7048 19.9071 14.0858 20.5976C14.1272 20.6183 14.166 20.6437 14.2016 20.6733C14.8027 21.1742 15.5781 21.4158 16.3573 21.345C17.1365 21.2742 17.8556 20.8967 18.3565 20.2956C18.8574 19.6945 19.099 18.9191 19.0282 18.1399C18.9574 17.3607 18.5799 16.6415 17.9788 16.1407C17.9649 16.129 17.9515 16.1168 17.9387 16.104L15.2114 13.3767C14.0647 12.23 12.9962 11.7343 11.9993 11.7343Z" fill="#4D4D4D"/>
</svg>
