<svg width="20" height="20" viewBox="0 0 20 20" fill="none" xmlns="http://www.w3.org/2000/svg">
<path d="M15.9228 5.85547C15.9075 5.95325 15.89 6.05321 15.8704 6.1559C15.1947 9.62508 12.883 10.8235 9.93055 10.8235H8.42729C8.06623 10.8235 7.76197 11.0857 7.70571 11.4419L6.93605 16.3231L6.7181 17.7067C6.70942 17.7616 6.71273 17.8177 6.72782 17.8712C6.7429 17.9247 6.7694 17.9743 6.80548 18.0165C6.84156 18.0588 6.88637 18.0927 6.93682 18.116C6.98727 18.1393 7.04217 18.1513 7.09774 18.1514H9.76395C10.0797 18.1514 10.3479 17.9219 10.3976 17.6106L10.4238 17.4751L10.9258 14.2894L10.958 14.1146C11.0072 13.8022 11.2759 13.5728 11.5917 13.5728H11.9904C14.5736 13.5728 16.5958 12.524 17.1868 9.48907C17.4337 8.22124 17.3059 7.16263 16.6526 6.4181C16.4455 6.18778 16.1982 5.99713 15.9228 5.85547Z" fill="#179BD7"/>
<path d="M15.2173 5.5728C15.0016 5.51039 14.7821 5.46168 14.5602 5.42696C14.1217 5.35957 13.6786 5.32724 13.235 5.33027H9.21903C9.06619 5.33015 8.91836 5.38472 8.80225 5.4841C8.68613 5.58348 8.60941 5.72112 8.58593 5.87214L7.73161 11.2832L7.70703 11.4411C7.73365 11.2688 7.82103 11.1118 7.95339 10.9984C8.08574 10.8849 8.25432 10.8226 8.42862 10.8227H9.93187C12.8843 10.8227 15.196 9.62373 15.8717 6.1551C15.8919 6.0524 15.9089 5.95244 15.9241 5.85466C15.7458 5.76116 15.56 5.68278 15.3686 5.62033C15.3184 5.60368 15.268 5.58783 15.2173 5.5728Z" fill="#222D65"/>
<path d="M8.5855 5.87153C8.60878 5.72047 8.68546 5.58276 8.80163 5.48343C8.9178 5.3841 9.06575 5.32973 9.2186 5.3302H13.2346C13.7103 5.3302 14.1544 5.36134 14.5598 5.42689C14.834 5.47 15.1045 5.53447 15.3687 5.61971C15.5681 5.68581 15.7533 5.76392 15.9243 5.85405C16.1253 4.57202 15.9226 3.69913 15.2294 2.90872C14.4653 2.03855 13.086 1.66602 11.3211 1.66602H6.19733C5.83681 1.66602 5.52928 1.92821 5.47356 2.28491L3.3394 15.8126C3.32946 15.8754 3.33324 15.9396 3.35048 16.0008C3.36773 16.062 3.39803 16.1188 3.43929 16.1671C3.48056 16.2155 3.53182 16.2544 3.58954 16.2811C3.64726 16.3077 3.71007 16.3216 3.77366 16.3217H6.93695L7.73118 11.2826L8.5855 5.87153Z" fill="#253B80"/>
</svg>
