<svg width="84" height="84" viewBox="0 0 84 84" fill="none" xmlns="http://www.w3.org/2000/svg">
<rect x="10" y="10" width="64" height="64" rx="32" fill="white"/>
<rect x="5" y="5" width="74" height="74" rx="37" stroke="white" stroke-opacity="0.3" stroke-width="10"/>
<path d="M35.208 32.0494C35.0865 31.9773 34.9482 31.9388 34.807 31.9375C34.6658 31.9363 34.5268 31.9725 34.4041 32.0423C34.2814 32.1122 34.1794 32.2133 34.1084 32.3354C34.0374 32.4575 34 32.5962 34 32.7374V51.2627C34 51.4039 34.0374 51.5426 34.1084 51.6646C34.1794 51.7867 34.2814 51.8878 34.4041 51.9577C34.5268 52.0276 34.6658 52.0638 34.807 52.0625C34.9482 52.0613 35.0865 52.0227 35.208 51.9507L50.8387 42.688C50.958 42.6172 51.0569 42.5165 51.1256 42.3959C51.1943 42.2753 51.2304 42.1388 51.2304 42C51.2304 41.8612 51.1943 41.7248 51.1256 41.6042C51.0569 41.4835 50.958 41.3829 50.8387 41.312L35.208 32.0494Z" fill="#4D4D4D"/>
</svg>
