<svg xmlns="http://www.w3.org/2000/svg" width="80" height="80" fill="none"><path fill="#D9D9D9" d="M44.508 15.49c2.037 0 3.71.655 5.164 1.6 2.836 1.892 4.51 5.164 5.09 7.346.946 3.346.874 6.473-.29 8.873-.436.945-1.745 1.818-2.545 2.545-.146.146 1.163-.872 1.018-.8-1.164.873-3.346 2.618-5.091 2.982l-3.2 8.364c0 .145-.218.218-.364.145-.072 0-.145-.073-.145-.218l-1.091-4.582c-.146-.727-.291-1.382-.364-2.109v-.873c-1.818 0-7.927-2.472-4.582-1.527-2.69-1.527-4.29-3.709-4.945-6.69-.145-.583-.364-2.037-.364-2.037-1.09-2.691.946-8.655 5.019-10.982 2.545-1.527 4.872-2.109 6.836-2.109l-.146.073Zm.8.583c-1.89 0-4.8.581-7.345 2.036-4.436 2.545-5.818 7.636-4.8 12 1.018 4.436 4.436 8.145 9.745 8.145.146 0 .291.146.291.291v1.091c0 .582.218 1.31.364 2.036.218 1.237.582 2.546.8 3.637l2.909-7.636c0-.073.145-.146.218-.146 3.273-.654 5.31-2.255 6.4-4.509.873-1.818 1.31-3.055.8-5.673-.072-.582.146-.145 0-.727-.582-2.11-2.763-7.2-5.382-9.018-.945-.655-3.2-1.673-4.436-1.891-1.236-.218.873.364.364.364h.072Z"/><path fill="#D9D9D9" d="M39.49 21.891c2.91-.727 2.982 2.691 4 4.364.219.363-.218-.364 1.455-4.364 2.473-4.218 4 .364 4 2.546 0 3.636-4.363 11.636-6.182 10.545-1.818-1.09-6.618-12.29-3.272-13.09ZM17.746 63.928c-4.582-1.237-4.29-7.782-3.345-12.364 4-.727 9.818-1.964 15.636-3.055 4.218.218 5.455 2.691 12 4.51 2.91-1.31 5.964-2.546 7.2-3.419 3.564-2.4 5.527-1.527 5.527-.654.437-.218 1.964-.655 2.546-1.237 1.673-.509 2.69.582 2.036 1.6.364 0-1.018 1.091 2.691-.363 2.11.145 1.818 2.181 1.6 3.2.582 0 .655-.291 1.818 2.181.51 2.182-16.509 17.455-28.145 14.182-9.31-2.618-16-4-19.564-4.727v.146Z"/><path fill="#BEBEBE" d="M64 52.072c.51-2.255-.872-3.782-3.054-3.055-.582.291-.945.437-1.236.51 1.309-3.128-3.418-2.11-4.873-.873-.509-1.164-1.818-1.091-2.836-.728-2.618.728-4.146 2.328-6.473 3.346-.727.509-1.964 1.382-1.6.873.436-.582-1.018.436-1.454.654-2.11-.945-4.073-1.527-6.182-2.618-2.837-1.455-6.11-2.036-9.237-1.6-3.782.509-8.072 1.6-11.272 2.473-.582.145-1.964.872-1.091.727 11.782-2.327 14.472-4.582 23.927.145 1.818.946 4.436 1.6 6.982 2.837 2.473 1.09 4.945 2.545 5.6 3.709-.218 4.218-17.31-1.31-17.964-1.31.8.292 1.818.728 3.2 1.164 4.291 1.382 7.491 1.673 8.218 1.746 2.4.218 6.691.654 7.128-.655.218-.654-.437-1.6-2.182-2.982 2.618-1.672 8.873-6.109 9.454-6.109.364-.29 2.91-1.382 3.564-.872.364.072 1.236.363.727.654 0 .364.655.146.073 1.746-2.982-.364-8.727 4.654-9.527 4.436-6.982 4.727 5.818-2.836 8.363-3.855-1.163-.509 4.073-.29 2.619 2.4 1.745.728.436-2.327-.873-2.909v.146Zm-17.6-.582c2.328-1.236 3.346-2.255 6.037-3.2-1.09.364.727 0 1.018.073.291.072.582.145.8.436h.218c-3.345 1.818-7.2 4.145-8.581 5.6-.8-.364-1.746-.8-2.764-1.31 1.382-.726 3.927-2.544 3.2-1.672l.073.073Zm2.91 4.654-.073.073c-.8-.509-1.745-1.018-3.054-1.672 3.272-1.819 14.909-10.91 12.581-4.728-.654.218-6.618 4.437-9.454 6.328Z"/><path fill="#D9D9D9" d="M55.562 17.019h.219c.145 0 .29-.146.581-.218.364-.219.8-.437 1.164-.655h.145c0-.218.073-.29.218-.364.073 0 .219 0 .291-.072h.291c.146 0 .219.145.219.29v.146l-.073.073c-.146.072-.364.29-.655.436-.145.073-.363.218-.509.291l-.654.364c-.218.072-.437.218-.655.29-.145 0-.29.073-.363.073a.313.313 0 0 1-.291-.29c0-.146.145-.291.29-.291l-.218-.073Zm-1.236-5.31-.291 1.019-.218.873c-.146.509-.291.8-.364 1.018-.073.218-.145.363-.218.436 0 .146-.218.218-.364.146-.145 0-.218-.219-.145-.364l.073-.218c0-.073.072-.146.145-.218.073-.219.218-.51.364-.946 0-.218.145-.509.218-.8l.29-1.018c0-.218.219-.29.364-.218.073 0 .146.145.146.29Zm4.073-.436v.073c0 .073-.218.291-.437.582-.218.29-.509.654-.873 1.09-.654.873-1.527 1.892-2.327 2.983-.072.145-.29.145-.436 0-.145-.073-.145-.291 0-.364.8-1.018 1.527-1.964 2.327-2.982.291-.364.51-.654.727-.945v-.291l.437-.437H58.253c.073 0 .146.219.146.291ZM30.47 25.383c0-.146 0-.51.073-.51.145 0 .291.146.291.291-.073.8 0 2.691.073 3.055.218 1.382.363 3.2 1.018 4.29l-.218-.581.654.945c0 .146 0 .291-.145.364-.146 0-.291 0-.364-.073-1.818-3.782-1.454-7.127-1.309-4.873 0-2.545-.218-2.036 0-2.909h-.073Z"/><path fill="#D9D9D9" d="M30.62 24.8h.073c.145 0 .29.219.29.437v1.673c0 .654 0 1.163.073 1.382.073.654.146 1.454.291 2.254a8.51 8.51 0 0 0 .364 1.455l.654.873c.073.218 0 .436-.218.509-.145.072-.363 0-.509-.146-.945-1.89-1.309-3.709-1.382-4.727v-.873c0-.436 0-.8-.072-1.236V24.946l.436-.145Zm0 .219V26.183c0 .29.073.8.073 2.109v.145a17.14 17.14 0 0 0 1.381 4.655c0 .072.146.072.219 0 0 0 .072-.146 0-.218l-.291-.364h-.146c-.363-.51-.582-1.236-.727-2.036-.145-.8-.218-1.6-.29-2.255 0-.218 0-.727-.074-1.382v-1.745c0-.073 0-.146-.145-.218v.145ZM65.382 41.672a.8.8 0 1 0 0-1.6.8.8 0 0 0 0 1.6ZM18.472 28.436a.8.8 0 1 0 0-1.6.8.8 0 0 0 0 1.6Z"/></svg>