<svg width="24" height="24" viewBox="0 0 24 24" fill="none" xmlns="http://www.w3.org/2000/svg">
<path d="M3.94568 7.6982C3.42968 7.6982 2.93406 7.89271 2.5692 8.24002C2.20435 8.58733 2 9.05911 2 9.55029V15.3899C2.00019 16.2522 2.36014 17.0786 3.00074 17.6882L5.8151 20.3672C6.00106 20.5442 6.30251 20.5442 6.48847 20.3672C6.67438 20.1902 6.67438 19.9032 6.48847 19.7262L3.67411 17.0472C3.21187 16.6073 2.95252 16.0103 2.95238 15.3881V9.55029C2.95238 9.29921 3.05604 9.05854 3.24256 8.88099C3.42909 8.70344 3.68191 8.60477 3.94568 8.60477C4.20946 8.60477 4.4623 8.70345 4.64881 8.88099C4.83533 9.05854 4.94085 9.2992 4.94085 9.55029V13.7414C5.03608 13.4778 5.19142 13.2355 5.40216 13.0349C5.54741 12.8966 5.7134 12.784 5.89323 12.6967V9.55029C5.89323 9.05912 5.68704 8.58733 5.32217 8.24002C4.95731 7.89271 4.46168 7.6982 3.94568 7.6982ZM20.0543 7.6982C19.5384 7.6982 19.0427 7.89263 18.6778 8.24002C18.3129 8.58734 18.1068 9.05913 18.1068 9.55029V12.6967C18.2866 12.784 18.4526 12.8967 18.5978 13.0349C18.8085 13.2355 18.9639 13.4778 19.0592 13.7414V9.55029C19.0592 9.29919 19.1647 9.0603 19.3512 8.88276V8.88099C19.5376 8.70353 19.7906 8.60477 20.0543 8.60477C20.3181 8.60477 20.5709 8.7052 20.7574 8.88276C20.944 9.0603 21.0476 9.29919 21.0476 9.55029V15.3899C21.0478 16.012 20.7895 16.6071 20.3278 17.0472L17.5134 19.7262C17.3275 19.9032 17.3275 20.1902 17.5134 20.3672C17.6993 20.5442 18.0008 20.5442 18.1868 20.3672L21.0011 17.6882C21.641 17.0783 22.0002 16.2501 22 15.3881V9.55029C22 9.05913 21.7957 8.58734 21.4308 8.24002C21.0659 7.89273 20.5703 7.6982 20.0543 7.6982Z" fill="#4D4D4D"/>
<path d="M12.0316 3.5C11.8781 3.5001 11.7341 3.57064 11.6447 3.68946C11.6447 3.68946 11.377 4.04517 11.0048 4.58186C10.5676 5.21232 9.98224 6.09618 9.5 6.97577C9.01776 7.85537 8.61458 8.69256 8.61458 9.43343C8.61458 10.3214 8.97117 11.1758 9.60975 11.8096C10.2482 12.4417 11.1207 12.803 12.0316 12.803C12.9425 12.803 13.8166 12.442 14.4554 11.8096L14.4573 11.8079C15.096 11.1672 15.4498 10.3166 15.4468 9.43343C15.4468 8.9051 15.2342 8.34004 14.9465 7.72653C14.6587 7.11302 14.2839 6.46513 13.9103 5.86912C13.1633 4.6771 12.4185 3.68946 12.4185 3.68946C12.3292 3.57064 12.1851 3.5001 12.0316 3.5ZM12.0223 4.76955C12.2653 5.10207 12.5575 5.48213 13.0919 6.3348C13.4534 6.91162 13.8142 7.53477 14.0777 8.09659C14.3412 8.65841 14.4944 9.17323 14.4944 9.43343V9.4352C14.4969 10.0852 14.2366 10.711 13.7671 11.1828C13.3035 11.6408 12.6781 11.8964 12.0316 11.8964C11.3842 11.8964 10.7602 11.6405 10.2961 11.1811C9.83296 10.7207 9.56696 10.0898 9.56696 9.43343C9.56696 9.06906 9.88749 8.22898 10.3445 7.39542C10.8015 6.56186 11.3725 5.69628 11.7991 5.08119C11.93 4.89239 11.9262 4.90331 12.0223 4.76955ZM6.7619 12.4931C6.2518 12.4973 5.7629 12.6915 5.40216 13.0349C5.04146 13.3783 4.83738 13.8436 4.83296 14.3292C4.82852 14.8148 5.02541 15.2831 5.37984 15.6324C5.38168 15.6342 5.38354 15.636 5.38542 15.6378L6.42522 16.6276C6.61118 16.8045 6.91263 16.8045 7.09859 16.6276C7.2845 16.4505 7.2845 16.1636 7.09859 15.9866L6.06436 15.0021C5.88321 14.8236 5.78308 14.5845 5.78534 14.3363C5.7876 14.088 5.8911 13.8514 6.07552 13.6759C6.2599 13.5004 6.51044 13.4018 6.77121 13.3997C7.0319 13.3975 7.28117 13.4928 7.46875 13.6653L9.36421 15.4678C9.82601 15.9079 10.0861 16.505 10.0859 17.1269V20.0467C10.0859 20.297 10.2991 20.5 10.5621 20.5C10.8251 20.5 11.0383 20.297 11.0383 20.0467V17.1269C11.0386 16.2649 10.6775 15.4385 10.0376 14.8286V14.8268L8.13653 13.019C8.13469 13.0166 8.13284 13.0143 8.13095 13.0119C7.76401 12.6745 7.27211 12.4888 6.7619 12.4931ZM17.2381 12.4931C16.7279 12.4888 16.236 12.6745 15.869 13.0119C15.8671 13.0143 15.8653 13.0166 15.8634 13.019L13.9624 14.8268V14.8286C13.3224 15.4385 12.9633 16.265 12.9635 17.1269V20.0467C12.9635 20.2971 13.1767 20.5 13.4397 20.5C13.7027 20.5 13.9159 20.2971 13.9159 20.0467V17.1269C13.9157 16.5049 14.174 15.9079 14.6357 15.4678L16.5312 13.6653C16.7188 13.4928 16.9699 13.3975 17.2306 13.3997C17.4914 13.4018 17.7401 13.5004 17.9244 13.6759C18.1088 13.8515 18.2124 14.0881 18.2146 14.3363C18.2169 14.5845 18.1186 14.8236 17.9375 15.0021L16.9032 15.9866C16.7173 16.1636 16.7173 16.4505 16.9032 16.6276C17.0892 16.8045 17.3906 16.8045 17.5766 16.6276L18.6164 15.6378C18.6183 15.636 18.6201 15.6342 18.622 15.6324C18.9763 15.2832 19.1714 14.8148 19.167 14.3292C19.1627 13.8435 18.9584 13.3783 18.5978 13.0349C18.237 12.6916 17.7482 12.4973 17.2381 12.4931Z" fill="#4D4D4D"/>
</svg>
