<svg width="16" height="16" viewBox="0 0 16 16" fill="none" xmlns="http://www.w3.org/2000/svg">
<path d="M2 3.99967L4 1.33301H12L14 3.99967M2 3.99967V13.333C2 13.6866 2.14048 14.0258 2.39052 14.2758C2.64057 14.5259 2.97971 14.6663 3.33333 14.6663H12.6667C13.0203 14.6663 13.3594 14.5259 13.6095 14.2758C13.8595 14.0258 14 13.6866 14 13.333V3.99967M2 3.99967H14M10.6667 6.66634C10.6667 7.37358 10.3857 8.05186 9.88562 8.55196C9.38552 9.05206 8.70724 9.33301 8 9.33301C7.29276 9.33301 6.61448 9.05206 6.11438 8.55196C5.61428 8.05186 5.33333 7.37358 5.33333 6.66634" stroke="#8C8C8C" stroke-linecap="round" stroke-linejoin="round"/>
</svg>
