<svg width="16" height="16" viewBox="0 0 16 16" fill="none" xmlns="http://www.w3.org/2000/svg">
<path d="M8.09424 1.52734L8.11572 1.58105L9.57959 5.09961C9.69769 5.38342 9.96461 5.57695 10.271 5.60156L14.0698 5.90625L14.1274 5.91113L14.3696 5.92969L14.1851 6.08887L14.1411 6.12695L11.2476 8.60645C11.0141 8.80649 10.9116 9.11994 10.9829 9.41895L11.8667 13.125L11.8677 13.126L11.8804 13.1826L11.936 13.418L11.729 13.292L11.6792 13.2617L8.42725 11.2754C8.16493 11.1154 7.83503 11.1153 7.57275 11.2754L4.3208 13.2617L4.271 13.292L4.06299 13.4189L4.11963 13.1816L4.1333 13.125L5.01709 9.41895C5.08843 9.11996 4.98668 8.80647 4.75342 8.60645L1.85889 6.12695L1.81494 6.08887L1.62939 5.92969L1.87354 5.91113L1.93115 5.90625L5.729 5.60156C6.03539 5.577 6.30226 5.38339 6.42041 5.09961L7.88428 1.58105L7.90674 1.52734L7.99951 1.30176L8.09424 1.52734ZM7.53857 2.58594L6.48291 5.125C6.35526 5.43191 6.06618 5.6413 5.73486 5.66797L2.99365 5.8877L1.79541 5.98438L2.7085 6.7666L4.79639 8.55566C5.04888 8.77197 5.15966 9.11117 5.08252 9.43457L4.44385 12.1094L4.16553 13.2783L5.19092 12.6523L7.5376 11.2188C7.82135 11.0454 8.17865 11.0454 8.4624 11.2188L10.8091 12.6523L11.8354 13.2783L11.5562 12.1094L10.9185 9.43457C10.8413 9.11126 10.9513 8.77198 11.2036 8.55566L13.2925 6.7666L14.2056 5.98438L13.0073 5.8877L10.2661 5.66797C9.93468 5.6414 9.64575 5.432 9.51807 5.125L8.46143 2.58594L8.00049 1.47559L7.53857 2.58594Z" stroke="#4D4D4D"/>
</svg>
