<svg width="18" height="16" viewBox="0 0 18 16" fill="none" xmlns="http://www.w3.org/2000/svg">
<path d="M0.4729 7.34305C0.514237 7.32238 0.555593 7.30274 0.595896 7.28414C1.29655 6.95965 2.00651 6.65583 2.71543 6.352C2.75367 6.352 2.81773 6.30757 2.8539 6.2931C2.90867 6.26933 2.96345 6.24659 3.01822 6.22283L3.33342 6.08745C3.54423 5.99754 3.754 5.90763 3.96482 5.81773C4.38542 5.63791 4.80602 5.4581 5.22662 5.27725C6.06782 4.91762 6.91007 4.55696 7.75127 4.19733C8.59247 3.8377 9.4347 3.47704 10.2759 3.11741C11.1171 2.75778 11.9593 2.39712 12.8005 2.03749C13.6417 1.67786 14.484 1.3172 15.3252 0.957569C15.5122 0.876962 15.7148 0.757086 15.9153 0.72195C16.0837 0.691981 16.248 0.63411 16.4175 0.602074C16.7389 0.541103 17.0933 0.516301 17.4013 0.649611C17.5077 0.696115 17.6059 0.76122 17.6876 0.84286C18.0782 1.22936 18.0234 1.86387 17.9407 2.40745C17.3651 6.19596 16.7895 9.98549 16.2129 13.774C16.1343 14.2938 16.0269 14.8643 15.6166 15.1929C15.2694 15.4709 14.7754 15.5019 14.3465 15.3841C13.9176 15.2652 13.5394 15.0162 13.1684 14.7712C11.6297 13.7523 10.0899 12.7333 8.55113 11.7144C8.1853 11.4726 7.77814 11.1564 7.78228 10.7172C7.78435 10.4526 7.94244 10.217 8.10366 10.0072C9.4409 8.26279 11.3703 7.06403 12.8057 5.40023C13.0083 5.16564 13.1674 4.74194 12.8894 4.60656C12.7241 4.52596 12.5339 4.6355 12.383 4.73987C10.4857 6.05748 8.58937 7.37612 6.69202 8.69372C6.073 9.12362 5.42402 9.56593 4.67789 9.67134C4.0103 9.76641 3.33859 9.58039 2.6927 9.39025C2.15119 9.2311 1.6107 9.06782 1.07229 8.89937C0.78603 8.8105 0.490471 8.71439 0.26932 8.51288C0.048169 8.31136 -0.0789241 7.9724 0.0543866 7.70371C0.138093 7.53526 0.300343 7.42882 0.470856 7.34201L0.4729 7.34305Z" fill="#333333"/>
</svg>
