<svg width="21" height="20" viewBox="0 0 21 20" fill="none" xmlns="http://www.w3.org/2000/svg">
<path fill-rule="evenodd" clip-rule="evenodd" d="M10.6665 3.65385C7.16162 3.65385 4.32035 6.49512 4.32035 10C4.32035 13.5049 7.16162 16.3462 10.6665 16.3462C14.1714 16.3462 17.0127 13.5049 17.0127 10C17.0127 6.49512 14.1714 3.65385 10.6665 3.65385ZM3.1665 10C3.1665 5.85786 6.52437 2.5 10.6665 2.5C14.8086 2.5 18.1665 5.85786 18.1665 10C18.1665 14.1421 14.8086 17.5 10.6665 17.5C6.52437 17.5 3.1665 14.1421 3.1665 10ZM10.2819 6.34615C10.6005 6.34615 10.8588 6.60445 10.8588 6.92308V10.1923H14.128C14.4467 10.1923 14.705 10.4506 14.705 10.7692C14.705 11.0879 14.4467 11.3462 14.128 11.3462H10.2819C9.96326 11.3462 9.70497 11.0879 9.70497 10.7692V6.92308C9.70497 6.60445 9.96326 6.34615 10.2819 6.34615Z" fill="white"/>
</svg>
