<svg width="20" height="20" viewBox="0 0 20 20" fill="none" xmlns="http://www.w3.org/2000/svg">
<path fill-rule="evenodd" clip-rule="evenodd" d="M10 3.65385C6.49512 3.65385 3.65385 6.49512 3.65385 10C3.65385 13.5049 6.49512 16.3462 10 16.3462C13.5049 16.3462 16.3462 13.5049 16.3462 10C16.3462 6.49512 13.5049 3.65385 10 3.65385ZM2.5 10C2.5 5.85786 5.85786 2.5 10 2.5C14.1421 2.5 17.5 5.85786 17.5 10C17.5 14.1421 14.1421 17.5 10 17.5C5.85786 17.5 2.5 14.1421 2.5 10ZM9.61538 6.34615C9.93401 6.34615 10.1923 6.60445 10.1923 6.92308V10.1923H13.4615C13.7802 10.1923 14.0385 10.4506 14.0385 10.7692C14.0385 11.0879 13.7802 11.3462 13.4615 11.3462H9.61538C9.29676 11.3462 9.03846 11.0879 9.03846 10.7692V6.92308C9.03846 6.60445 9.29676 6.34615 9.61538 6.34615Z" fill="#636363"/>
</svg>
