<svg width="16" height="16" viewBox="0 0 16 16" fill="none" xmlns="http://www.w3.org/2000/svg">
  <path
    d="M10.6668 14V12.6667C10.6668 11.9594 10.3859 11.2811 9.88578 10.781C9.38568 10.281 8.70741 10 8.00016 10H4.00016C3.29292 10 2.61464 10.281 2.11454 10.781C1.61445 11.2811 1.3335 11.9594 1.3335 12.6667V14"
    stroke="#8C8C8C" stroke-width="1.33333" stroke-linecap="round" stroke-linejoin="round" />
  <path
    d="M6.00016 7.33333C7.47292 7.33333 8.66683 6.13943 8.66683 4.66667C8.66683 3.19391 7.47292 2 6.00016 2C4.5274 2 3.3335 3.19391 3.3335 4.66667C3.3335 6.13943 4.5274 7.33333 6.00016 7.33333Z"
    stroke="#8C8C8C" stroke-width="1.33333" stroke-linecap="round" stroke-linejoin="round" />
  <path
    d="M14.667 14.0022V12.6689C14.6666 12.078 14.4699 11.504 14.1079 11.0371C13.7459 10.5701 13.2391 10.2366 12.667 10.0889M10.667 2.08887C11.2406 2.23573 11.749 2.56933 12.1121 3.03707C12.4752 3.50481 12.6722 4.08009 12.6722 4.6722C12.6722 5.26431 12.4752 5.83959 12.1121 6.30733C11.749 6.77507 11.2406 7.10867 10.667 7.25553"
    stroke="#8C8C8C" stroke-width="1.33333" stroke-linecap="round" stroke-linejoin="round" />
</svg>