<svg width="18" height="18" viewBox="0 0 18 18" fill="none" xmlns="http://www.w3.org/2000/svg">
<path d="M11.6937 13.0401C8.15723 13.0401 5.28002 10.1619 5.27905 6.62545C5.28002 5.72898 6.00998 5 6.90451 5C6.99648 5 7.08747 5.00774 7.1746 5.02323C7.36628 5.05518 7.5483 5.12005 7.71578 5.21782C7.73998 5.23235 7.75644 5.25558 7.76031 5.28269L8.134 7.63809C8.13884 7.66616 8.13013 7.69327 8.11173 7.7136C7.90552 7.94207 7.6422 8.10665 7.34886 8.18894L7.20752 8.22863L7.26076 8.36514C7.74288 9.5927 8.72454 10.5734 9.95307 11.0574L10.0896 11.1117L10.1293 10.9703C10.2115 10.677 10.3761 10.4136 10.6046 10.2074C10.6211 10.192 10.6433 10.1842 10.6656 10.1842C10.6704 10.1842 10.6753 10.1842 10.6811 10.1852L13.0365 10.5589C13.0646 10.5637 13.0878 10.5792 13.1023 10.6034C13.1991 10.7709 13.264 10.9539 13.2969 11.1455C13.3124 11.2307 13.3192 11.3208 13.3192 11.4147C13.3192 12.3102 12.5902 13.0392 11.6937 13.0401Z" fill="#333333"/>
<path d="M17.9661 8.22371C17.7754 6.06871 16.7879 4.06957 15.1857 2.59514C13.5738 1.112 11.4827 0.294922 9.29576 0.294922C4.49589 0.294922 0.590554 4.20026 0.590554 9.00013C0.590554 10.6111 1.03491 12.1804 1.87619 13.5473L0 17.7005L6.0071 17.0606C7.05169 17.4885 8.15726 17.7053 9.29479 17.7053C9.59393 17.7053 9.90083 17.6899 10.2087 17.6579C10.4798 17.6289 10.7537 17.5863 11.0229 17.5321C15.0424 16.7198 17.9768 13.1523 18 9.0466V9.00013C18 8.73874 17.9884 8.47735 17.9652 8.22371H17.9661ZM6.23848 15.2376L2.91498 15.592L3.90729 13.3934L3.70882 13.1272C3.6943 13.1078 3.67978 13.0884 3.66332 13.0662C2.80171 11.8764 2.34669 10.4707 2.34669 9.0011C2.34669 5.16934 5.46399 2.05203 9.29576 2.05203C12.8855 2.05203 15.9283 4.85276 16.2216 8.42798C16.2371 8.61967 16.2458 8.81232 16.2458 9.00207C16.2458 9.05628 16.2448 9.10953 16.2439 9.16665C16.1703 12.372 13.9311 15.0944 10.7983 15.7875C10.5591 15.8408 10.3142 15.8814 10.0702 15.9076C9.8166 15.9366 9.55618 15.9511 9.29769 15.9511C8.37703 15.9511 7.4825 15.773 6.63734 15.4206C6.54343 15.3829 6.45146 15.3422 6.3653 15.3006L6.23945 15.2396L6.23848 15.2376Z" fill="#333333"/>
</svg>
