<svg width="98" height="62" viewBox="0 0 98 62" fill="none" xmlns="http://www.w3.org/2000/svg">
<path d="M14.7767 16.7599L14.7616 16.6564C14.7511 16.658 14.7399 16.6599 14.7294 16.6614L14.7304 16.6624L14.7624 16.8771L14.7734 16.9269C14.7722 16.9271 14.7706 16.9266 14.7694 16.9269L14.7704 16.9288C14.7681 16.9292 14.7654 16.9285 14.7626 16.9289C14.5476 16.9768 14.3394 17.0442 14.1393 17.1284L14.0349 16.8797L14.0339 16.8788C13.5937 17.0641 13.1914 17.3274 12.8365 17.6477L13.0169 17.8483C12.8512 17.9978 12.6967 18.1614 12.5538 18.3363L12.5528 18.3353C12.397 18.5287 12.2564 18.7357 12.1332 18.954L11.8983 18.822C11.643 19.2747 11.4592 19.7755 11.3686 20.3113L11.6343 20.3562C11.6038 20.5367 11.5848 20.7215 11.5777 20.9101L11.5745 21.1006L11.5815 22.2177L11.311 22.2197L11.3249 24.453L11.5944 24.4521L11.6084 26.6864L11.3388 26.6874L11.3528 28.9227L11.6223 28.9217L11.6352 31.1561L11.3657 31.157L11.3796 33.3914L11.6492 33.3904L11.6631 35.6247L11.3936 35.6267L11.4065 37.861L11.676 37.8591L11.69 40.0934L11.4194 40.0954L11.4334 42.3297L11.4343 42.3297L11.7039 42.3278L11.7168 44.5621L11.4473 44.5631L11.4612 46.7984L11.7307 46.7974L11.7447 49.0318L11.4742 49.0327L11.4881 51.2671L11.7576 51.2661L11.7715 53.5005L11.502 53.5024L11.515 55.7367L11.7845 55.7348L11.7915 56.852C11.7927 57.1292 11.8199 57.4004 11.8696 57.6622L11.6051 57.712C11.7152 58.2929 11.9319 58.8334 12.2329 59.3103L12.4609 59.1679C12.7537 59.6316 13.131 60.0304 13.5677 60.3407L13.4113 60.559C13.8783 60.891 14.4099 61.1295 14.9821 61.2467L14.9831 61.2467L15.0378 60.9829C15.2968 61.0358 15.5647 61.0627 15.8389 61.06L15.8399 61.06L16.9024 61.0533L16.9043 61.3228L19.0293 61.3093L19.0273 61.0397L21.1523 61.0262L21.1542 61.2957L23.2782 61.2822L23.2772 61.0137L25.4012 61.0001L25.4022 61.2687L27.5282 61.2561L27.5262 60.9866L29.6512 60.9731L29.6531 61.2426L31.7781 61.2291L31.7761 60.9596L33.9011 60.946L33.9021 61.2156L36.0261 61.202L36.0251 60.9335L38.1501 60.9199L38.151 61.1885L40.277 61.1759L40.275 60.9064L42.4 60.8929L42.4019 61.1624L44.5259 61.1489L44.5249 60.8794L46.6499 60.8668L46.6509 61.1354L48.7749 61.1218L48.7739 60.8533L50.8989 60.8398L50.9008 61.1093L53.0258 61.0957L53.0238 60.8262L55.1488 60.8127L55.1498 61.0822L57.2747 61.0687L57.2738 60.8001L59.3978 60.7866L59.3987 61.0552L61.5247 61.0426L61.5227 60.7731L63.6477 60.7596L63.6496 61.0291L65.7736 61.0156L65.7727 60.746L67.8976 60.7335L67.8986 61.002L70.0226 60.9885L70.0216 60.72L72.1466 60.7064L72.1475 60.975L74.2735 60.9624L74.2715 60.6929L76.3965 60.6794L76.3985 60.9489L78.5224 60.9354L78.5215 60.6668L80.6455 60.6533L80.6464 60.9218L82.7714 60.9083L82.7704 60.6398L83.8329 60.633L83.8339 60.633L84.038 60.6264C84.2416 60.6146 84.4411 60.5867 84.6353 60.5442L84.6929 60.8076C85.2645 60.6824 85.7935 60.4365 86.2568 60.0979L86.0988 59.8807C86.5319 59.564 86.9041 59.1596 87.1912 58.6912L87.4192 58.831C87.7144 58.3493 87.9247 57.8057 88.0277 57.2223L87.7638 57.1764C87.8102 56.9135 87.8333 56.6415 87.8312 56.3637L87.838 56.3617L87.8321 55.2709L88.1017 55.2689L88.0877 53.0346L87.8192 53.0365L87.8053 50.8022L88.0748 50.8002L88.0738 50.8002L88.0609 48.5659L87.7923 48.5678L87.7784 46.3325L88.0479 46.3316L88.034 44.0972L87.7645 44.0982L87.7515 41.8638L88.0201 41.8619L88.0071 39.6276L87.7376 39.6295L87.7237 37.3952L87.9932 37.3932L87.9793 35.1589L87.7107 35.1608L87.6968 32.9265L87.9663 32.9245L87.9654 32.9245L87.9524 30.6892L87.9524 30.6902L87.6829 30.6921L87.6699 28.4568L87.9395 28.4559L87.9255 26.2215L87.656 26.2225L87.6431 23.9881L87.9116 23.9872L87.8987 21.7519L87.6291 21.7538L87.6222 20.6366C87.6209 20.359 87.5938 20.0876 87.5441 19.8254L87.8075 19.7746C87.697 19.1929 87.4799 18.6519 87.1777 18.1744L86.9517 18.3187C86.6583 17.8549 86.2799 17.4555 85.842 17.145L85.9974 16.9257C85.5297 16.5941 84.9971 16.3555 84.4237 16.238L84.4237 16.239L84.3699 16.5028C84.1103 16.4496 83.841 16.4225 83.5659 16.4247L82.5035 16.4315L82.5015 16.1619L82.5015 16.1609L80.3765 16.1735L80.3775 16.1745L80.3795 16.444L78.2545 16.4566L78.2525 16.187L76.1276 16.1996L76.1286 16.2006L76.1295 16.4701L74.0055 16.4826L74.0036 16.2131L74.0036 16.2121L71.8796 16.2257L71.8806 16.4952L69.7566 16.5077L69.7546 16.2382L67.6297 16.2508L67.6306 16.2517L67.6316 16.5213L65.5076 16.5338L65.5057 16.2643L65.5047 16.2633L63.3817 16.2768L63.3826 16.5464L61.2587 16.5599L61.2567 16.2904L61.2557 16.2894L59.1317 16.3019L59.1317 16.3029L59.1337 16.5724L57.0097 16.585L57.0077 16.3155L54.8828 16.328L54.8847 16.5975L52.7598 16.6111L52.7588 16.3415L52.7578 16.3406L50.6338 16.3531L50.6338 16.3541L50.6358 16.6236L48.5108 16.6362L48.5098 16.3666L46.3849 16.3792L46.3868 16.6487L44.2618 16.6622L44.2609 16.3927L44.2599 16.3917L42.1349 16.4043L42.1359 16.4053L42.1379 16.6748L40.0129 16.6873L40.0109 16.4178L37.886 16.4304L37.8869 16.4313L37.8889 16.7009L35.7639 16.7134L35.762 16.4439L35.762 16.4429L33.638 16.4564L33.639 16.726L31.515 16.7385L31.513 16.469L29.3881 16.4816L29.389 16.4825L29.39 16.7521L27.266 16.7646L27.2641 16.4951L27.2631 16.4941L25.1401 16.5076L25.141 16.7772L23.0171 16.7907L23.0151 16.5212L23.0141 16.5202L20.8901 16.5327L20.8901 16.5337L20.8921 16.8032L18.7681 16.8158L18.7661 16.5463L16.6412 16.5588L16.6431 16.8283L15.5806 16.8351L15.5787 16.8351C15.5167 16.8351 15.4549 16.8371 15.3932 16.8407L15.3775 16.5712L15.3766 16.5702C15.2412 16.578 15.1068 16.5934 14.9744 16.6156L14.9754 16.6166L15.0203 16.883C14.9582 16.8934 14.8962 16.9054 14.8348 16.9188L14.8065 16.9248L14.7773 16.9249M14.7767 16.7599L14.7773 16.9249M14.7767 16.7599L14.7773 16.9249M14.7767 16.7599L14.8017 16.9229C14.8005 16.923 14.7976 16.9235 14.7938 16.9239C14.7901 16.9242 14.7843 16.9249 14.7773 16.9249" stroke="#D9D9D9" stroke-width="0.539056" stroke-dasharray="2.16 2.16"/>
<path d="M79.9596 19.3827L18.7029 19.7015C16.5682 19.7126 14.8466 21.4522 14.8578 23.5869L15.0175 54.2817C15.0286 56.4165 16.7682 58.138 18.9029 58.1269L80.1595 57.8081C82.2943 57.7969 84.0158 56.0574 84.0047 53.9227L83.845 23.2279C83.8339 21.0931 82.0943 19.3716 79.9596 19.3827Z" fill="#D9D9D9"/>
<path d="M83.901 32.1549L83.8518 23.2277C83.8438 21.0923 82.0961 19.3652 79.9572 19.3802L18.7077 19.6981C16.5724 19.7061 14.8487 21.4467 14.8637 23.5856L14.913 32.5128L83.9045 32.1479L83.901 32.1549Z" fill="#EDEDED"/>
<path d="M62.2359 52.761C64.8138 54.0537 67.9516 53.0118 69.2443 50.4339C70.537 47.856 69.4952 44.7183 66.9172 43.4255C64.3393 42.1328 61.2015 43.1747 59.9088 45.7526C58.6161 48.3305 59.658 51.4683 62.2359 52.761Z" fill="white"/>
<path d="M70.8469 52.7111C73.4248 54.0038 76.5626 52.962 77.8553 50.384C79.148 47.8061 78.1062 44.6684 75.5282 43.3757C72.9503 42.0829 69.8125 43.1248 68.5198 45.7027C67.2271 48.2806 68.269 51.4184 70.8469 52.7111Z" fill="#EDEDED"/>
<path d="M32.9583 49.6698L22.3895 49.7248C21.4931 49.7294 20.7703 50.4598 20.775 51.3562C20.7796 52.2525 21.51 52.9753 22.4064 52.9706L32.9752 52.9156C33.8715 52.911 34.5943 52.1806 34.5897 51.2842C34.585 50.3879 33.8546 49.6651 32.9583 49.6698Z" fill="#EDEDED"/>
<path d="M49.7419 49.5834L39.1731 49.6384C38.2767 49.6431 37.5539 50.3735 37.5586 51.2698C37.5632 52.1661 38.2936 52.889 39.19 52.8843L49.7587 52.8293C50.6551 52.8246 51.3779 52.0942 51.3733 51.1979C51.3686 50.3016 50.6382 49.5788 49.7419 49.5834Z" fill="#EDEDED"/>
<path d="M34.288 25.0129C31.0967 25.1043 27.9054 25.1958 25.2912 25.2522C22.677 25.3087 20.7365 25.3275 20.2541 25.3776M25.9092 27.596C24.5553 27.5833 23.2012 27.5706 22.0883 27.5517C20.9753 27.5329 20.1444 27.5082 19.9473 27.5229" stroke="#D9D9D9" stroke-width="0.754678" stroke-linecap="round"/>
<ellipse cx="12.4546" cy="13.1108" rx="12.4546" ry="12.4545" fill="#CCCCCC"/>
<path d="M13.8784 16.8429C13.9194 16.8709 14.0783 16.9004 14.1796 16.8028C14.3178 16.625 14.2524 16.6412 14.2678 16.6195C14.2666 16.5304 14.2591 16.5438 14.2545 16.5194C14.2484 16.5014 14.2397 16.4847 14.2333 16.4681C14.2317 16.4546 14.2281 16.4319 14.2233 16.4091C14.2138 16.3636 14.2022 16.3162 14.1914 16.2727C14.1833 16.2387 14.1747 16.2049 14.1651 16.1714C13.5075 13.8862 12.8978 11.5852 12.2135 9.31892C12.2116 9.31246 12.2103 9.30586 12.2085 9.29942C11.9 8.20623 11.5747 7.07768 11.427 6.01691C11.416 5.92372 11.408 5.83051 11.4073 5.75454C11.407 5.72661 11.4092 5.70167 11.4106 5.68403C11.4475 5.6159 11.47 5.53992 11.4707 5.46107C11.4717 5.33424 11.4222 5.21224 11.3334 5.12167C11.2443 5.03102 11.1227 4.97857 10.9957 4.97733C10.8687 4.97619 10.746 5.026 10.6553 5.11495C10.4572 5.34304 10.4865 5.44448 10.4623 5.53621C10.4503 5.62715 10.4486 5.69369 10.4489 5.76359C10.4504 5.89577 10.4619 6.01355 10.4751 6.12814C10.6473 7.34885 10.9727 8.44355 11.2866 9.56449C11.2885 9.57098 11.2909 9.57754 11.2944 9.58945C11.9842 11.8698 12.7965 14.1097 13.5828 16.357C13.5944 16.3901 13.6075 16.4231 13.6227 16.4615C13.6437 16.5109 13.6653 16.5565 13.6907 16.6056C13.7043 16.632 13.7159 16.6536 13.7355 16.6885C13.7401 16.6963 13.7468 16.7082 13.7555 16.7222C13.764 16.7355 13.7645 16.7415 13.7935 16.7767C13.8077 16.7919 13.8251 16.8143 13.8784 16.8429ZM11.4116 5.66688C11.4074 5.66107 11.4194 5.65584 11.4108 5.67767C11.4112 5.67365 11.4112 5.66979 11.4116 5.66688ZM13.7367 16.5807C13.7465 16.5683 13.7278 16.5733 13.7433 16.5344C13.7431 16.5596 13.7433 16.5835 13.7422 16.6053C13.7416 16.6087 13.7384 16.6429 13.7367 16.5807Z" fill="white"/>
<ellipse cx="14.96" cy="19.7334" rx="1.20803" ry="1.20803" fill="white"/>
<path d="M91.3697 15.6929C91.3882 15.6948 91.4534 15.6957 91.6058 15.6646C91.7527 15.6347 91.9643 15.5778 92.2693 15.4791C92.7935 15.2663 93.2689 15.0637 93.64 14.8963C93.6969 14.8707 93.7501 14.8444 93.8009 14.821C93.8214 14.6926 93.9168 14.5837 94.0515 14.5539C94.1553 14.531 94.2703 14.5054 94.3585 14.4906C94.3993 14.4838 94.4534 14.4756 94.5035 14.4753C94.5218 14.4753 94.5796 14.4753 94.6429 14.4987C94.6761 14.511 94.7421 14.5407 94.7954 14.6108C94.8581 14.6932 94.8736 14.7913 94.8576 14.8752L94.8315 15.0095L94.7187 15.085C94.5811 15.177 94.281 15.3237 93.9088 15.4916C93.7172 15.578 93.4991 15.6728 93.2625 15.7735L92.5029 16.0891L92.492 16.0936L92.4812 16.0973C92.1583 16.2021 91.9179 16.2669 91.7362 16.3039C91.5582 16.3402 91.4174 16.354 91.302 16.3419C91.1228 16.3231 90.993 16.1624 91.0118 15.9832C91.0305 15.804 91.1906 15.6743 91.3697 15.6929Z" fill="#D9D9D9"/>
<path d="M89.149 8.97924L88.7305 10.0492C88.5963 10.3877 88.4696 10.7009 88.3553 10.9658C88.1247 11.4996 87.9502 11.8304 87.8191 12.0651C87.6885 12.299 87.6036 12.4322 87.5214 12.5611C87.4245 12.7131 87.2231 12.7577 87.0712 12.6608C86.9381 12.5759 86.8869 12.4109 86.9414 12.2691L86.9715 12.2105L87.0946 12.0135C87.139 11.9405 87.1891 11.8557 87.2499 11.7469C87.371 11.53 87.5348 11.2187 87.7558 10.7069C87.8672 10.4489 87.9918 10.1428 88.1243 9.80883L88.5408 8.74271L88.571 8.68417C88.6531 8.55653 88.8162 8.49979 88.9632 8.55686C89.1101 8.614 89.1924 8.7658 89.1669 8.91541L89.149 8.97924Z" fill="#D9D9D9"/>
<path d="M94.5771 9.22131C94.5597 9.27184 94.5325 9.30908 94.5253 9.31924C94.5131 9.33643 94.5001 9.35326 94.4882 9.36744C94.4042 9.46749 94.1906 9.68302 93.9066 9.96609C93.6139 10.2577 93.2363 10.6298 92.8009 11.0644C91.9332 11.9308 90.8831 12.9958 89.8314 14.0617C89.7048 14.19 89.498 14.1913 89.3697 14.0647C89.2414 13.9381 89.24 13.7313 89.3666 13.6029C90.4178 12.5377 91.4706 11.4714 92.3403 10.603C92.6948 10.249 93.0162 9.93017 93.279 9.66906C93.2622 9.55833 93.3015 9.44193 93.3947 9.36628C93.5911 9.20704 93.7919 9.04427 93.9252 8.94336C93.9588 8.91789 93.9909 8.89474 94.0188 8.87542C94.0408 8.86018 94.0791 8.83363 94.1188 8.81535C94.1303 8.81008 94.1503 8.80175 94.1754 8.79483C94.193 8.78997 94.2535 8.77374 94.3291 8.78843C94.3721 8.79681 94.4293 8.8168 94.4824 8.86291C94.5375 8.9109 94.5697 8.97097 94.5846 9.0274C94.61 9.12391 94.5839 9.2017 94.5771 9.22131Z" fill="#D9D9D9"/>
</svg>
