<svg width="111" height="110" fill="none" xmlns="http://www.w3.org/2000/svg">
  <path
    d="M94.9 79.624h-49c.3-8.881 4.4-15.44 7.3-18.065 3.5-3.23 7.2-4.844 10.6-5.853-2.7-2.22-4.5-5.651-4.5-9.486 0-6.56 4.4-12.211 11.2-12.211 7.1.202 11.2 5.55 11.2 12.21 0 3.836-1.8 7.267-4.5 9.487 3.5 1.01 7.1 2.624 10.6 5.954 2.9 2.725 7 9.285 7.3 18.064l-.2-.1Z"
    stroke="#D9D9D9" stroke-width=".8" stroke-miterlimit="10" stroke-dasharray="1.6 1.6" />
  <path
    d="M65.1 79.624h-49c.3-8.881 4.4-15.44 7.3-18.065 3.5-3.23 7.2-4.844 10.6-5.853-2.7-2.22-4.5-5.651-4.5-9.486 0-6.56 4.4-12.211 11.2-12.211 7.1.202 11.2 5.55 11.2 12.21 0 3.836-1.8 7.267-4.5 9.487 3.5 1.01 7.1 2.624 10.6 5.954 2.9 2.725 7 9.285 7.3 18.064l-.2-.1Z"
    stroke="#D9D9D9" stroke-width=".8" stroke-miterlimit="10" stroke-dasharray="1.6 1.6" />
  <path
    d="M77.1 73.67H31.7c.2-8.174 4.1-14.33 6.7-16.752 3.3-3.028 6.6-4.541 9.8-5.45-2.5-2.018-4.2-5.247-4.2-8.78 0-6.156 4.1-11.302 10.4-11.302 6.6.202 10.4 5.146 10.4 11.302 0 3.633-1.7 6.762-4.2 8.78 3.2 1.01 6.6 2.422 9.8 5.45 2.7 2.523 6.5 8.578 6.7 16.752Z"
    fill="#BEBEBE" />
  <path
    d="m73.91 56.941-42.518 8.263a2.22 2.22 0 0 0-1.744 2.6l3.744 19.621a2.201 2.201 0 0 0 2.576 1.76l42.519-8.262a2.22 2.22 0 0 0 1.744-2.6l-3.744-19.621a2.201 2.201 0 0 0-2.576-1.76Z"
    fill="#D9D9D9" />
  <path
    d="M63 66.404c-1.1-1.413-3.6-2.22-5.9-.908-1.1.605-2 1.614-2.5 2.825-1-.908-2.2-1.412-3.5-1.513-2.7-.202-4.6 1.614-5 3.33-.6 2.422.4 4.743 2.9 7.064 2 1.716 4.6 3.33 8.3 5.147.2.1.5 0 .7-.202 2.6-3.128 4.3-5.752 5.3-8.174 1.3-3.129 1.2-5.652-.3-7.569Z"
    fill="#fff" />
  <path
    d="M28.4 70.238c8.9 4.44 5.9 10.9 2.3 14.532-.6.606-1.6.202-1.7-.605l-2.1-12.817c-.1-.908.7-1.513 1.5-1.11Zm49.8-10.495c-6.7 7.367-1.7 12.312 3 14.431.8.404 1.6-.303 1.4-1.211L80 60.247c-.2-.908-1.2-1.21-1.8-.504Z"
    fill="#BEBEBE" />
  <path
    d="M55.4 70.844h.4v.504h-.6l-.2.202-.2.202-.3.303s-.1.202-.2.202V73.064h.1s.1 0 .2.1h.2l.2.102h1.3c.1 0 .2 0 .3.1 0 0 .1.102.1.203 0 .1 0 .201.1.201 0 0 0 .101.1.202v1.11c0 .101-.1.202-.2.404v.202h-.2v.202l-.1.1v1.413c0 .101 0 0-.1 0h-.2l-.1-.1v-.909c-.4.101-.7 0-1 0h-.5v-.605h.1c.2 0 .4 0 .5.1.1 0 .3.102.5 0h.5l.2-.201s0-.101.1-.202c0 0 0-.1.1-.202V74.477c0-.202-.1-.404-.3-.505-.1-.1-.3-.302-.5-.403H54.1s-.1 0-.1-.101l-.1-.101v-.101s0-.101-.1-.101c0 0-.1-.202-.1-.303v-1.109l.1-.102h.1c0-.202.1-.202.1-.303 0 0 .1-.1.2-.1V69.934h.2s.1.102.2.102l.1.201v.202s0 .202.1.303l.6.1Z"
    fill="#9D9D9B" />
  <path
    d="M31.7 67.211c.6-.1 1.1-.201 2-.403.9-.202 2-.404 2.7-.505.7-.1 1-.202 1.2-.303.2 0 .4 0 .9-.201l2.2-.404c.6 0 .6 0 .7-.101.1-.101.2 0 .4 0"
    stroke="#fff" stroke-width=".9" stroke-linecap="round" />
  <path
    d="M51.8 27.55v-3.128c-.2 0-.2-.202-.2-.404v-.706c.1-.202.4-.202.5 0h.1v.302c0 .202 0 .606.1 1.11v2.826c0 .202 0 .404-.1.505-.1.202-.4.303-.5.1-.2-.1-.3-.302-.2-.504m-8.3-.505 1 1.01c.3.303.6.605.9.807.5.505.8.807 1 1.11.2.303.3.404.4.606.1.202 0 .403 0 .605-.2.101-.4 0-.5 0l-.2-.303c0-.1-.2-.201-.2-.302-.2-.202-.5-.606-1-1.01-.2-.201-.5-.504-.9-.807l-1-.908c-.1-.202 0-.505 0-.606.1 0 .3-.1.4 0l.1-.201Zm2.6-6.155v.1c0 .202.2.505.4 1.01.2.504.5 1.11.8 1.816.6 1.413 1.4 3.028 2.1 4.743 0 .202 0 .404-.2.505-.2.1-.4 0-.5-.202-.7-1.615-1.4-3.128-2.1-4.743-.2-.606-.5-1.11-.7-1.514-.1 0-.3-.1-.3-.303 0-.302-.2-.504-.2-.807v-.303c0-.201 0-.302.2-.403h.5M86.6 54.496c.552 0 1-.452 1-1.01 0-.557-.448-1.008-1-1.008s-1 .451-1 1.009c0 .557.448 1.009 1 1.009ZM63.7 27.046c.387 0 .7-.317.7-.707a.703.703 0 0 0-.7-.706c-.387 0-.7.316-.7.706 0 .39.313.707.7.707Z"
    fill="#D9D9D9" />
</svg>