<svg width="110" height="110" fill="none" xmlns="http://www.w3.org/2000/svg">
  <path
    d="m58.22 27.575-41.758 6.091a.6.6 0 0 0-.507.68l7.694 52.742a.6.6 0 0 0 .68.508l41.759-6.092a.6.6 0 0 0 .507-.68L58.9 28.081a.6.6 0 0 0-.68-.508Z"
    stroke="#D9D9D9" stroke-width=".9" stroke-dasharray="1.7 1.7" />
  <path
    d="M93.4 48.8v.2s-.5-.4-1.2-1c-.9-.7-.9-.6-1.5-1h-.2v.4c0 .2.1.5.2.5v-.4l.1.3c0 .2.1.6 0 1-.2.4-.6.4-1.1.3-.3-.1-.7-.2-1.1-.3-.4-.1-.9-.2-1.3-.3-.8 0-1.5-.2-2.1-.5l-.3-.2s-.4 0-.9-.2c0 0-.1-.1-.1-.3v-.6c.9.2 1.7.4 2.2.6.8.2 1.5.5 1.5.4 0 0-.2-.1-.2-.2h.6c.4 0 .6.2.9.3.1 0 .3.1.5.2 0 0 .2 0 .3.1h.5c.1 0 .2-.3.1-.5v-.4s0-.2-.1-.3v-.6c0-.1.1-.2.2-.2.4-.2.5 0 .6 0 .1 0 .2.1.4.2s.5.3.7.4c.2.1.8.5 1.4 1.2.5.5 1 1.1.9 1.1 0 0-.3-.2-.4-.2l.2.2c.1 0 .3.2.5.5 0 0 0 .2-.1.2-.5.5-1-1.1-1.1-1l-.1.1Zm-4-24 .2-.2s-.4 1.1-1 2.4c-.4.9-.7 1.3-.8 1.6-.2.3-.3.6-.8 1-.3.3-.7.4-1 .3-.5-.2-.6-.6-.7-.9 0-.2 0-.4-.1-.4v.5s-.2-.6-.3-1.6c0-.5 0-1-.1-1.6 0-.3 0-.6-.2-.9 0-.3-.2-.6-.4-.7-.1-.1-.3-.1-.4 0-.1 0-.3.2-.5.3l-.4.4c-.8 1.1-1.3 2.4-2.3 3-.1 0-.6.4-.6.4s.2-.1.3-.1c0 0-.4.6-1 1.4 0 0-.2.1-.4 0-.2 0-.3-.2-.5-.3.8-1 1.6-2.1 2.4-3.1.5-.6.9-1.1 1.2-1.5.3-.4.6-.6.5-.6l-.4.3s.6-.7.7-.8c.3-.2.6-.4 1.1-.4.4 0 .8.2 1 .6.4.6.4 1.3.5 2.2v1.3c0 .3 0 .6.2 1 0 .2.1.4.2.6 0 .1.1.3.3.3 0 0 .2 0 .3-.2l.1-.1s.2-.2.2-.3c.2-.2.3-.5.5-.8.2-.3.7-1.3 1.3-2.5.5-1 1-2 1.1-2v.3c0 .2-.1.3 0 .3l.1-.3c0-.2.2-.6.4-1.1h.3c.3.2.1.8-.2 1.3-.3.5-.7.9-.7.9h-.1ZM84.2 37.3c0 .4-.3.8-.7.8-.4 0-.8-.3-.8-.7 0-.4.4-.8.8-.7.4 0 .7.3.7.7v-.1ZM17 82.2c0 .4-.3.8-.7.8-.4 0-.8-.3-.8-.7 0-.4.4-.8.8-.7.4 0 .7.3.7.7v-.1Z"
    fill="#D9D9D9" />
  <path d="M79.6 39.5c-1.5-3.8-6.6-5.3-11.3-3.5 1.6 5.6 2.8 8.6 5.5 13.7 4.7-1.9 7.3-6.5 5.8-10.3v.1Z" fill="#BEBEBE" />
  <path
    d="M50.074 50.379c-.543-1.566-2.23-2.403-3.77-1.87-1.54.533-2.348 2.235-1.806 3.8l7.952 22.963c.542 1.565 2.23 2.402 3.769 1.87 1.54-.534 2.348-2.235 1.806-3.8l-7.951-22.963Z"
    fill="#9D9D9B" />
  <path d="M35.5 58.3c.7 1.9 3.1 2.7 5.4 1.9-.7-2.7-1.2-4.2-2.4-6.7-2.3.8-3.6 3-3 4.9v-.1Z" fill="#BEBEBE" />
  <path d="M35.5 58.3c.7 1.9 3.1 2.7 5.4 1.9-.7-2.7-1.2-4.2-2.4-6.7-2.3.8-3.6 3-3 4.9v-.1Z" fill="#9D9D9B" />
  <path
    d="M39.2 59.2c2.2 3.1 5.9 3.5 6.5 3.5 2.8.2 4.4-1.1 7.1-2.3 8.1-3.5 16.4-1.7 19-1.1 1.6.3 3.7 1 6.2 2.1.9.4 1.8-.5 1.5-1.3-1.8-4.8-1.3-3.4-7-17.1-4.9-12.7-4-10.7-6.1-15.4-.4-.9-1.8-.8-2.2 0-1.2 2.6-2.8 4.6-3.6 5.9-1.1 1.8-6 9.8-14.8 12.3-2.6.8-3.8.5-5.3 1.9-2.6 2.4-3.8 7.6-1.3 11.2v.3Z"
    fill="#D9D9D9" />
  <path
    d="M53.3 58.5v.2s-.5-.6-1-1.4c-.7-1.1-.7-1-1.1-1.7-.3-.7-.5-1.4-.6-1.4l.2.4s-.7-1.5-1.3-3.3c-.2-.5-.3-.8-.4-1.1 0-.3-.2-.8-.2-.8-.2-.9-.4-1.2-.4-2.3l.2-.5s0 .2-.1.2c0 0-.4-1.1-.4-1.7.2 0 .3-.2.5-.2s.4-.2.6-.3v3.5c0 1 .3 1.8.3 1.8s-.2-.4-.1-.4c0 0 .3 1.2.4 1.1.2.8.4.8.5 2 .1.7.6 1.8 1.9 3.7.1.2.5.8 1 1.6.4.7.7 1.3.7 1.3l-.3-.3.1.2c0 .1.4.3.6.6 0 0-.4.2-.5.2-.7.4-.7-1.4-.8-1.3l.2-.1Z"
    fill="#BEBEBE" />
  <path
    d="M66.7 46.9c-1 .4-1.7.8-3.6 1.8.5-.3-.4.2-1.4.8-1 .5-2.2 1.1-2 .8h-.2l-.2.2H59v-.1c.1-.2.2-.3.3-.5.1-.2.2-.4.3-.5 0-.1 0-.2.1-.3.2-.3.5-.6.7-1.1 0-.2.2-.4.3-.7v-.5c0-.3-.2-.5-.4-.6-.1 0-.2 0-.4-.1h-.4c-1.6.6-3.7 1.5-6.5 3.1-.2.1-.4.4-.3.5 0 .1.3.2.6 0 .8-.5 2-1.2 3-1.6.9-.5 1.6-.8 1.2-.5-.7.5 1.6-.7 2.3-.9h.4c.3.1.2.5.1.8-.1.3 0 .2 0 0 0 .2-.2.4-.3.6l-.2.2c0 .1-.2.3-.3.5 0 0-.1.2-.2.3 0 .2-.2.3-.3.5-.1.2-.3.4-.4.6 0 .2-.2.3-.3.5v.4c0 .1.2.2.4.2H59.8l.4-.2c-.8.5-.2.2.7-.2.9-.4 2.1-1.1 2.6-1.3 1.9-1 2.5-1.3 3.4-1.7.2-.1.4-.3.4-.5s-.2-.2-.5-.1l-.1-.4Z"
    fill="#fff" />
  <path
    d="M42.8 43.7v-1.2c-.2-1.2-.4-2.3-.5-2.5v.5M39 45.6l-.4-.4c-.2-.2-.5-.5-1-.8-.5-.4-1.2-.9-1.9-1.4m5 1.3c-.8-1.4-1.7-2.8-2.4-3.9-.7-1.2-1.2-2-1.3-2.2-.1-.2 0 .3.3.8"
    stroke="#fff" stroke-width=".6" stroke-linecap="round" />
  <path
    d="M26.9 69.7h2v-.1c.1 0 .2.1.2.3V70.8l.3.9c.1 0 .1.2 0 .4h-.2l-1.1.2-.9.2c-.1 0-.3 0-.3-.2v-.2l-.2-1.1v-.7c-.1 0-.2-.2-.2-.3 0 0 .1-.2.2-.2h.2v-.1Zm.3 1.2v.9c.1 0 .8-.1.8-.1l1-.2-.2-.8v-.6h-1.6v.8Zm.5 4h2v-.1c.1 0 .2.1.2.3V76l.3.9c.1 0 .1.2 0 .4H30l-1.1.2-.9.2c-.1 0-.3 0-.3-.2v-.2l-.2-1.1v-.7c-.1 0-.2-.2-.2-.3 0 0 .1-.2.2-.2h.2v-.1Zm.4 1.2v.9c.1 0 .8-.1.8-.1l1-.2-.2-.8v-.6h-1.6v.8Zm17.7-7.6s.1-.1 0-.2H45.2c-2.7.4-5.4.7-8.1 1.1-1.3.2-2.6.4-3.9.4h-.9c-.1 0-.2.1-.3.2v.2c.2.1.3 0 .4 0H33c1.4-.1 2.7-.3 4-.5 2.7-.4 5.4-.8 8.1-1.3h.4l.3.1Zm.7 5s.1-.1 0-.2H45.9c-2.7.4-5.4.7-8.1 1.1-1.3.2-2.6.4-3.9.4h-1c-.1 0-.2.1-.3.2v.2c.2.1.3 0 .4 0H33.6c1.4-.1 2.7-.3 4-.5 2.7-.4 5.4-.8 8.1-1.3h.4l.4.1Z"
    fill="#D9D9D9" />
</svg>