<svg width="110" height="110" fill="none" xmlns="http://www.w3.org/2000/svg">
  <path
    d="M34.7 44.807h20.7c1.2 0 2.2 1.01 2.2 2.22 0 1.212-1 2.22-2.2 2.22H34.7c-1.2 0-2.2-1.008-2.2-2.22 0-1.21 1-2.22 2.2-2.22ZM34.7 39.862h20.7c1.2 0 2.2 1.01 2.2 2.22 0 1.212-1 2.22-2.2 2.22H34.7c-1.2 0-2.2-1.008-2.2-2.22 0-1.21 1-2.22 2.2-2.22ZM34.7 34.917h20.7c1.2 0 2.2 1.01 2.2 2.22 0 1.212-1 2.22-2.2 2.22H34.7c-1.2 0-2.2-1.008-2.2-2.22 0-1.21 1-2.22 2.2-2.22ZM61.4 48.037h20.7c1.2 0 2.2 1.009 2.2 2.22 0 1.21-1 2.22-2.2 2.22H61.4c-1.2 0-2.2-1.01-2.2-2.22 0-1.211 1-2.22 2.2-2.22ZM61.4 43.193h20.7c1.2 0 2.2 1.009 2.2 2.22 0 1.21-1 2.22-2.2 2.22H61.4c-1.2 0-2.2-1.01-2.2-2.22 0-1.211 1-2.22 2.2-2.22Z"
    fill="#BEBEBE" />
  <path d="m90.4 52.88-63-10.898-4.9 28.66 63 10.9 4.9-28.661Z" fill="#D9D9D9" />
  <path
    d="M81.9 54.193c-.2.403-.3.807-.4 1.312-.4 2.32 1.2 4.44 3.4 4.743h1.3l-2 11.706c-.4-.202-.8-.404-1.3-.404-2.2-.403-4.4 1.211-4.7 3.432-.1.908 0 1.917.5 2.724l-47.6-8.174c.3-.504.5-1.01.6-1.615.4-2.32-1.2-4.44-3.4-4.743h-1.4l2.2-12.715c.4.302.9.403 1.4.504 2.2.404 4.4-1.21 4.7-3.43V46.32L82 54.394l-.1-.201Z"
    fill="#D9D9D9" />
  <path
    d="m81.9 54.193.7.403.5-1.009-1.1-.202v.808h-.1Zm-.5 1.312h-.8c0-.101.8 0 .8 0Zm3.5 4.743v.807c-.1 0 0-.807 0-.807Zm1.2 0h.8c0 .1.2-1.01.2-1.01l-1.1.202v.808h.1Zm-2 11.706-.4.707 1 .504.2-1.11h-.8v-.1Zm-1.2-.504v-.808c.1 0 0 .808 0 .808Zm-4.8 3.532h-.8c0-.101.8 0 .8 0Zm.5 2.724v.808c-.1 0 1.5.303 1.5.303l-.8-1.514-.7.403ZM31 69.431l-.7-.403-.7 1.009 1.2.201v-.807h.2Zm.6-1.614h.8c0 .1-.8 0-.8 0Zm-3.4-4.744v-.807c.1 0 0 .807 0 .807Zm-1.4 0H26c0-.1-.2 1.01-.2 1.01l1.1-.202-.2-.808h.1Zm2.1-12.715.4-.707-1-.605-.2 1.11h.8v.202Zm1.4.504v.808c-.1 0 0-.808 0-.808Zm4.8-3.532h.8c0 .101-.8 0-.8 0Zm0-1.21v-.808c.1 0-.9-.202-.9-.202l.2 1.11h.8l-.1-.1Zm46.8 8.073-.7-.404c-.2.505-.4 1.01-.5 1.514h.8c0 .1.8.303.8.303 0-.404.2-.707.3-1.01l-.7-.403Zm-.5 1.312h-.8a4.878 4.878 0 0 0 4.1 5.55v-.807c.1 0 .3-.808.3-.808-1.8-.302-3-2.018-2.8-3.834h-.8v-.101Zm3.5 4.743v.807h1.4v-.807c-.1 0-.2-.808-.2-.808h-1v.808h-.2Zm1.2 0h-.8c0-.101-2 11.504-2 11.504h.8c0 .101.8.303.8.303l2-11.706h-.8v-.101Zm-2 11.706.4-.706c-.5-.303-1-.404-1.5-.505v.808c-.1 0-.3.807-.3.807.4 0 .7.202 1 .303l.4-.707Zm-1.2-.504v-.808c-2.6-.403-5.1 1.413-5.5 4.138h.8c0 .1.8.303.8.303.3-1.817 2-3.129 3.8-2.826v-.807h.1Zm-4.8 3.532h-.8c-.2 1.009 0 2.119.6 3.128l.7-.404.7-.403c-.4-.707-.5-1.413-.4-2.22h-.8v-.101Zm.5 2.724V76.9c.1 0-47.5-8.174-47.5-8.174v.807c-.1 0-.3.808-.3.808l47.6 8.174v-.808h.2ZM31 69.431l.7.404c.4-.606.6-1.211.7-1.918h-.8c0-.1-.8-.302-.8-.302 0 .504-.2.908-.5 1.312l.7.403v.101Zm.6-1.614h.8a4.878 4.878 0 0 0-4.1-5.55v.806c-.1 0-.3.808-.3.808 1.8.302 3 2.018 2.8 3.835h.8v.1Zm-3.4-4.744v-.807h-1.6l.2.807.2.808h1.1v-.808h.1Zm-1.4 0h.8c0 .101 2.2-12.614 2.2-12.614H29c0-.101-.8-.303-.8-.303L26 62.872h.8v.201Zm2.1-12.715-.4.706c.5.303 1.1.505 1.7.606v-.808c.1 0 .3-.807.3-.807-.4 0-.8-.202-1.2-.404l-.4.707Zm1.4.504v.808c2.6.403 5.1-1.413 5.5-4.138H35c0-.1-.8-.303-.8-.303-.3 1.817-2 3.129-3.8 2.826v.807h-.1Zm4.8-3.532h.8v-1.413h-.8c0 .101-.8.202-.8.202v1.01h.8v.201Zm0-1.21v.807C35 46.927 81.7 55 81.7 55v-.807c.1 0 .3-.808.3-.808l-46.8-8.073v.807h-.1Z"
    fill="#BEBEBE" />
  <path
    d="M65.8 64.486c1.3-5.248-1.8-10.697-7.1-12.009-5.2-1.312-10.6 1.817-11.9 7.165-1.3 5.248 1.8 10.697 7.1 12.01 5.2 1.311 10.6-1.817 11.9-7.166ZM36.6 58.33c.5 0 1-.202 1.1-.807 0-.505-.2-1.01-.8-1.11-.5 0-1 .303-1.1.807 0 .505.3 1.01.8 1.11Z"
    fill="#D9D9D9" />
  <path
    d="M65.9 64.284c1.3-5.247-1.8-10.697-7.1-12.009-5.2-1.312-10.6 1.817-11.9 7.166-1.3 5.247 1.8 10.697 7.1 12.009 5.2 1.312 10.6-1.817 11.9-7.166Z"
    fill="#fff" />
  <path
    d="m52.9 55.101.5-.202s-.1 0-.4.202c-.2.1-.6.303-1 .605-1 .707-1.8 1.716-2.3 2.826-.7 1.817-.7 2.725-.6 3.532 0 .707.1 1.312.5 2.422.8 2.22 2.7 3.532 2.7 3.431l-.3-.302-.3-.303s.8.807 2.5 1.413c1 .303 2.1.504 3.1.404 1.2-.101 2.5-.606 3.5-1.413 1.1-.909 1.7-1.817 2-2.523.3-.707.4-1.211.4-1.211a7.11 7.11 0 0 0-.2-3.835c-.4-1.211-.9-2.12-1.5-3.028-.1-.202-.8-1.009-.8-1.009l.3.404s-1-.908-2.8-1.514c-.2 0-.4-.202-.4-.303 0-.202 0-.303.1-.403 1.5.302 2.9 1.11 4 2.22.8.807 1.4 1.816 1.8 2.926.5 1.413.5 2.826.4 3.835-.2 1.01-.4 1.615-.4 1.615s0-.202.2-.404c0-.202.2-.504.2-.504s0 .504-.2.908c-.2.505-.4.908-.5 1.01a6.594 6.594 0 0 1-2.3 2.623c-1 .606-2.2 1.211-4.1 1.312-.6 0-1.3 0-1.9-.101-.8-.1-1.6-.404-2.6-.908-.9-.505-1.9-1.312-2.8-2.523-1-1.413-1.4-3.129-1.3-4.844 0-.808.2-1.514.5-2.22.5-1.312 1.3-2.422 2.3-3.33.9-.808 2-1.313 3.1-1.615.4 0 .7-.202 1.1-.202h.4s-.4 0-.7.202c-.4 0-.7.202-.7.202s.2 0 .8-.202c.5 0 1.3-.202 2.5-.101v.202c-.2.302-1.4.1-2.6.302-.6 0-1.1.202-1.6.303-.4.101-.7.303-.7.303l.1-.202Z"
    fill="#9D9D9B" />
  <path
    d="M57.3 58.431h.5v.303h-1c-.2 0-.4.1-.6.202 0 0-.2.1-.3.202 0 0-.1 0-.1.1v.807l.1.102s0 .1.1.202h.2c0 .201.1.201.2.302h.1s.1 0 .2.101c0 0 .1 0 .2.101l.1.101.1.1s.2.102.3.203c.1 0 .2.1.2.202V63.376c0 .101 0 .202-.1.303 0 .1-.1.202-.2.302 0 .101-.2.202-.3.303h-.2V64.587h-.4v1.412h-.1l-.1-.1V64.89c-.4 0-.7-.202-1-.505l-.1-.1-.1-.102s-.2 0-.2-.202v-.201s0-.101.1-.202V63.276h.2c.2.1.4.302.5.403.1.1.3.202.4.302h.4c.1 0 .2 0 .3-.1 0 0 .1 0 .2-.202 0 0 .1 0 .2-.202v-.201c0-.102.1-.203.2-.304 0-.1.1-.202.1-.302 0-.202 0-.404-.1-.606 0-.202-.2-.404-.3-.605h-.4l-.3-.303h-.1c-.2 0-.3-.202-.4-.202h-.2s-.1 0-.2-.1v-2.12l.2-.202.1-.1s.1-.102.2-.102h.2l.2-.202h.2V56.817h.1s.1 0 .2.201c0 0 0 .101.1.202V58.128l.4.303Z"
    fill="#9D9D9B" />
  <path
    d="M35.6 31.587v-1.11c0-.605-.2-1.21-.2-1.816v-.202c-.1 0-.2-.202-.2-.404V27.248c.1-.202.3-.202.5-.101h.2v.202c0 .202.1.605.2 1.11 0 .303 0 .504.1.908v1.01h.1v1.513c0 .202-.3.303-.5.202-.2 0-.3-.303-.2-.505Zm-9.3.808 1.1.807c.4.303.7.505 1 .706.6.404.9.808 1.1 1.01l.5.504c.1.202.1.404 0 .606-.1.1-.4.1-.5 0l-.2-.303-.3-.303c-.3-.303-.7-.605-1.1-.908-.3-.202-.6-.505-.9-.707L25.9 33c-.1-.202-.1-.505 0-.605.1-.101.3-.101.4 0Zm2.1-6.46c0 .102.3.506.5.91.2.403.6 1.008.9 1.715.7 1.312 1.7 2.926 2.6 4.541.1.202 0 .404-.1.505-.1.1-.4 0-.5-.101-.9-1.514-1.7-3.028-2.6-4.542l-.8-1.412c-.1 0-.3-.101-.3-.202-.1-.303-.2-.505-.3-.808v-.302c0-.202 0-.303.2-.404h.5l-.1.1Z"
    fill="#D9D9D9" />
  <path
    d="M87.6 30.578c0 .605-.4 1.01-1 1.01s-1-.405-1-1.01.4-1.01 1-1.01 1 .404 1 1.01ZM20 50.358c0 .605-.4 1.009-1 1.009s-1-.404-1-1.01c0-.605.4-1.008 1-1.008s1 .403 1 1.009ZM72.2 43.193c4 0 4.5 0 5.8-1.413 1.3-1.312 1.3-3.129 1.3-3.532.1-3.431-3-6.257-3.1-6.358-1.1-1.01-2.5-1.716-2.6-3.028 0-.201 0-.706.2-1.21.5-1.01 1.6-.909 1.8-1.817.1-.505 0-1.01-.4-1.211-.5-.303-1.3 0-1.9.807 0 0-.5-.706-1.4-.706-.9 0-1.3.706-1.4.706-.7-.908-1.6-1.11-2.1-.807-.3.202-.4.505-.4.807 0 .707 1 .909 1.5 1.918.3.605.3 1.11.3 1.413 0 1.412-1.5 2.018-2.9 3.33-.6.605-3 2.926-2.9 5.853.1 2.422 2 3.936 2.2 4.037 1.5 1.21 1.8 1.11 5.9 1.11"
    fill="#D3D3D3" />
  <mask id="a" style="mask-type:luminance" maskUnits="userSpaceOnUse" x="69" y="27" width="7" height="7">
    <path d="m69.67 27.539-.199 5.243 6.295.245.2-5.244-6.295-.244Z" fill="#fff" />
  </mask>
  <g mask="url(#a)" stroke="#9D9D9B" stroke-width=".2">
    <path d="M69.8 29.367c.7.202 3.1.303 3.9 0" />
    <path d="M73.8 29.266c-.4 0-1 .505-.4 1.615.6 1.01-.5 1.615-1.2 1.716" />
    <path d="M73.8 29.266c-.3-.201-1.1-.201-1.3 1.01-.2 1.21-1.4.908-1.9.706" />
    <path d="M69.6 29.872c.5.303 3.4.303 4.4 0" />
    <path
      d="M73.9 29.468c-.5-.505 0-1.715.9-1.413 1.2.404-1.3.303-.9 1.413Zm0 0c-.5-.505 2.2-.404 1.5.404-1.3 1.413-1.5-.505-1.5-.404Z" />
  </g>
  <path
    d="M78.4 37.642h-.1V38.248c0 .403 0 .807-.1 1.11-.2.403-.3.807-.6 1.21 0 .102-.2.203-.2.303v.202h-.1.1c0-.202.2-.403.2-.504l.6-1.211c0-.404.1-.808 0-1.211v-.505"
    fill="#FDFFFC" />
</svg>