<svg viewBox="0 0 110 110" width="110" height="110" fill="none" xmlns="http://www.w3.org/2000/svg">
  <path
    d="M92.622 92.541c0 .487-.406.973-.892.973-.487 0-.973-.405-.973-.892 0-.486.486-.891.973-.891a.9.9 0 0 1 .892.891v-.08ZM20.784 93.678c0 .324-.244.568-.568.648-.324 0-.568-.243-.649-.567 0-.324.325-.568.649-.568s.568.244.568.568v-.081ZM18.433 18.92c0 .487-.406.973-.892.973-.487 0-.973-.405-.973-.892 0-.486.486-.892.973-.892a.9.9 0 0 1 .892.892v-.08Z"
    fill="#D9D9D9" />
  <path
    d="M87.919 37.2c0-8.352-6.77-15.122-15.122-15.122-8.351 0-15.121 6.77-15.121 15.122 0 8.351 6.77 15.121 15.121 15.121 8.352 0 15.122-6.77 15.122-15.121ZM84.27 57.672H61.324a3.649 3.649 0 0 0-3.648 3.649v22.945a3.649 3.649 0 0 0 3.648 3.65H84.27a3.649 3.649 0 0 0 3.649-3.65V61.32a3.649 3.649 0 0 0-3.649-3.648ZM48.676 57.676H25.73a3.649 3.649 0 0 0-3.649 3.648V84.27a3.649 3.649 0 0 0 3.649 3.649h22.946a3.649 3.649 0 0 0 3.648-3.649V61.324a3.649 3.649 0 0 0-3.648-3.648Z"
    stroke="#D9D9D9" stroke-linecap="round" stroke-linejoin="round" stroke-dasharray="2.68 2.68" />
  <path d="M36.027 48.432a1.216 1.216 0 1 0 2.432 0v-22.46a1.216 1.216 0 1 0-2.432 0v22.46Z" fill="#D9D9D9" />
  <path d="M48.432 38.378a1.216 1.216 0 1 0 0-2.433h-22.46a1.216 1.216 0 1 0 0 2.433h22.46Z" fill="#D9D9D9" />
</svg>