<svg width="111" height="110" fill="none" xmlns="http://www.w3.org/2000/svg">
  <path
    d="M53.145 91.219c9.9-.18 15.964-.27 20.423-4.95 4.46-4.59 4.638-10.89 4.638-12.24.356-12.06-10.346-22.051-10.88-22.501-3.925-3.51-8.652-6.03-9.008-10.8 0-.72-.179-2.43.624-4.14 1.694-3.51 5.53-3.33 6.332-6.21.446-1.62-.178-3.69-1.516-4.41-1.605-.991-4.549 0-6.51 2.79-.18-.27-1.963-2.43-4.995-2.43s-4.727 2.34-4.905 2.61c-2.497-3.06-5.708-4.051-7.402-2.97-.892.54-1.517 1.8-1.517 2.97.09 2.61 3.39 3.15 5.262 6.84 1.07 2.07 1.16 4.05 1.16 4.95-.09 4.77-5.173 7.02-10.078 11.79-2.051 1.98-10.702 10.44-10.256 20.43.446 8.37 6.956 13.77 7.58 14.22 5.262 4.141 10.792 4.051 20.78 3.871l.268.18Z"
    fill="#D3D3D3" />
  <path
    d="M46.813 60.708c3.21-.99 3.924 3.78 5.083 5.85.268.45-.446-.9 1.605-5.85 2.854-5.67 5.797 1.08 5.262 3.78-.446 2.07-5.886 13.59-7.937 11.88-2.051-1.62-8.116-14.49-4.013-15.75"
    fill="#fff" />
  <mask id="a" style="mask-type:luminance" maskUnits="userSpaceOnUse" x="43" y="36" width="23" height="20">
    <path d="m44.014 36.381-.699 18.347 21.924.85.698-18.347-21.923-.85Z" fill="#fff" />
  </mask>
  <g mask="url(#a)" fill="#9D9D9B">
    <path
      d="M55.285 51.17c-.09-.81 0-1.62.357-2.34.357-.81.713-.99 1.07-1.71.446-.81.713-1.62.803-1.62 0 0-.09.36 0 .36 0 0 .267-.72.892-1.35.267-.27.535-.54.891-.72.179.09.357.27.446.45.179.18 0 .18-.178.27-.09 0-.178.18-.268.27-.535.45-.713.72-.713.72s.446-.45.535-.45c0 0-.713.9-1.249 1.8-.535.99-.891 1.98-.98 1.98v-.27s-.179.27-.179.54c0 .09 0 1.62-.268 1.98 0 0 0 .09-.178.09l-.178-.09v.09c-.179 0-.268 0-.446-.09l-.357.09Z" />
    <path
      d="M60.1 44.152c.447.99.625 2.07.536 3.15-.178 1.26-.446 1.53-.624 2.7-.268 1.26-.535 2.43-.625 2.43v-.45s0 .27-.178.63c-.178.54-.357.99-.624 1.44-.268.45-.625.81-.981 1.17-.179 0-.446-.18-.535-.36-.179-.18 0-.27.178-.36.178-.09.178-.36.267-.45.535-.72.803-1.17.803-1.17s-.535.81-.535.72l.446-.9c.267-.54.535-1.26.803-1.98.446-1.44.535-3.06.624-3.06 0 0 .089.36.178.36.09 0 0-.45 0-.81 0 0-.089-.63-.178-1.17-.09-.63-.268-1.26-.268-1.53 0 0 0-.18.09-.27h.267s-.09-.09 0-.18h.446l-.09.09Z" />
    <path
      d="M60.28 43.969c1.07.72 1.961.81 2.675.81a4.1 4.1 0 0 0 1.248-.18c.179 0 .357-.18.446-.27.178-.09.268-.27.178-.54-.178-.45-.891-.72-1.248-.81h-.624l.356-.18s-.267 0-.624.09-.803.45-1.338.72c-.535.27-.98.54-1.248.81-.179-.09-.357-.27-.446-.36-.179-.18 0-.27.267-.36.179-.09.268-.27.536-.45.445-.27.802-.45 1.07-.54.267-.09.446-.18.446-.18s-.981.45-.981.36c0 0 .356-.27.98-.63.357-.18.803-.27 1.338-.27s.981.18 1.517.45c.267.18.445.36.624.54.178.27.356.63.267 1.08-.178.81-.713.99-.98 1.17-.714.36-1.16.45-1.16.36l.357-.27-.892.18s-.714.18-1.516 0c-.803-.18-1.517-.63-1.695-.99 0 0-.089-.18 0-.27h.268s-.179 0 0-.18c0 0 .178-.18.357-.27l-.179.18Z" />
    <path
      d="M57.96 38.57c-.356.63-.267 1.44 0 2.07.179.63.446 1.26.714 1.62.267.36.446.63.713.81.09.09.179.18.357.27l.179.18h.178c.357-.27.713-.54.981-.99.446-.72.624-1.62.624-2.25 0-.63-.178-.9-.178-.9l.267.54v-.27c0-.18-.178-.36-.267-.54-.268-.45-.803-.81-1.605-.99-.714-.09-1.338 0-1.695.27a2.776 2.776 0 0 1-.535-.36c-.178-.18.178-.36.446-.45.267-.09.624-.27.892-.27 1.605 0 2.319.72 2.319.72s-.268-.27-.625-.45-.713-.27-.713-.27.356 0 .98.27c.536.27 1.339.9 1.517 1.98.178.99 0 1.98-.446 2.88-.178.45-.535.9-.803 1.26l-.446.45h-.089c0 .09-.178.27-.178.27-.178.09-.268.18-.446.27-.178-.09-.446-.18-.624-.36-.09 0-.179-.18-.357-.18-.178-.09-.357-.27-.446-.36-.268-.18-.357-.36-.357-.36s.535.36.535.27c0 0-.446-.45-.891-.99 0 0-.625-.81-.981-1.8-.179-.45-.268-1.08-.179-1.53 0-.54.268-.99.535-1.17 0 0 .268-.27.357-.18v.27s.09-.18.178-.18c0 0 .179.27.268.45h-.178Z" />
    <path
      d="M58.317 43.07c-1.16.54-2.408.9-3.745.99-1.517 0-1.873-.09-3.3-.09h-2.943.535-.803a6.73 6.73 0 0 1-1.873-.27c-.624-.18-1.16-.36-1.694-.63v-.63c.089-.18.267 0 .446 0 .178.09.446.09.624.18 1.07.36 1.694.45 1.694.45s-1.07-.27-1.07-.36c0 0 .446 0 1.16.18.713.09 1.694.27 2.675.27 1.962.09 3.835-.18 3.835 0l-.446.18s.535 0 .981-.09c0 0 .714-.18 1.427-.45.713-.27 1.516-.45 1.873-.54h.268s-.09.18-.09.27c0 0 .179-.09.179 0v.45l.267.09Z" />
    <path
      d="M58.763 44.78c-1.249.54-2.586.9-4.013.99-1.606 0-2.052-.09-3.568-.09h-3.21.624-.892c-.535 0-1.248 0-2.051-.27-.624-.09-1.249-.36-1.784-.63v-.63c.09-.27.268 0 .535 0 .268.09.446.09.714.18 1.16.36 1.873.45 1.873.45s-1.16-.27-1.16-.36c0 0 .535 0 1.249.18.802.09 1.784.27 2.854.27 2.05.09 4.102-.18 4.102 0 0 0-.446.18-.446.27 0 0 .535 0 1.07-.09 0 0 .803-.18 1.606-.45.802-.18 1.605-.54 1.962-.54h.267l-.089.27s.179-.18.179 0v.54l.178-.09Z" />
  </g>
  <path
    d="M67.414 24.527h.268c.178 0 .356-.18.624-.36.446-.27.892-.63 1.338-.99 0 0 .089 0 .178-.09 0-.18 0-.27.178-.36.09 0 .179-.09.357-.18h.357c.178 0 .267.18.357.36v.18l-.09.09c-.089.09-.445.36-.802.63-.178.18-.357.27-.624.45l-.714.54c-.357.18-.535.36-.713.36a.678.678 0 0 0-.446.18c-.179 0-.357-.09-.357-.36 0-.18.09-.36.357-.36m-4.727-7.11-.178 1.26c0 .36-.09.72-.179 1.08-.089.63-.267.99-.357 1.35 0 .18-.089.36-.178.63 0 .18-.268.27-.446.18-.178 0-.267-.18-.267-.36v-.27c0-.09 0-.18.089-.36 0-.27.178-.63.267-1.26 0-.27.09-.63.179-1.08l.178-1.26c0-.27.268-.36.446-.27.178 0 .267.18.267.36h.179Zm5.886-.99v.09c0 .18-.267.45-.446.81-.267.36-.535.9-.892 1.44-.713 1.17-1.605 2.52-2.497 3.96-.09.18-.357.18-.535.09-.178-.09-.178-.36-.09-.54.893-1.35 1.784-2.79 2.498-3.96l.803-1.26v-.36c.178-.18.356-.45.446-.54 0-.09 0-.18.089-.18a.27.27 0 0 1 .356 0c.09 0 .179.18.179.36m-16.32 46.8c0-.27-.18-.45-.447-.45s-.446.18-.446.45v.81c0 1.081-.178 2.161-.357 3.151 0 .09-.178.27-.089.63v.18c.09.27.268.54.535.72.09.09.268.18.357.18.09 0 .268.09.179 0 0 0 0 .63-.357 1.08-.268.54-.535.81-.892 1.62 0 .27 0 .54.09.72.088.18.267.36.356.45.09.09.268.18.357.27v-.18c-.179.9-.714 2.43-1.07 3.69-.09.36-.179.72-.268 1.17v.45c0 .09 0 .36.357.36v.18h.178c.267-.09.357-.18.446-.27 0 0 .09-.18.09-.27v-.36c0-.36.088-.72.178-1.08.356-1.35.802-2.34 1.07-4.14 0 0 0-.18-.09-.36-.267-.36-.356-.36-.445-.45-.09 0-.179-.09-.268-.18-.09-.09-.09 0 0 0 0-.27.446-.9.713-1.35.179-.27.268-.54.357-.9 0-.36.179-.81-.089-1.26 0 0 0-.09-.09-.18-.267-.18-.356-.18-.445-.27 0 0-.178 0-.178-.09-.09 0-.179-.18-.268-.27v-.36c.268-1.17.268-2.16.357-3.33v-.9"
    fill="#D9D9D9" />
  <path
    d="M74.727 71.87c0-.18-.178-.27-.356-.18-.179.09-.268.18-.179.36 0 .18.09.36.179.63 0 .36.089.72.178 1.17.178 1.26-.09 2.701-.357 4.051-.535 1.44-1.16 2.88-1.962 4.23-.267.36-.535.81-.803 1.17-.089.18-.267.36-.356.54v.18c0 .18.178.27.356.18 0 0 .179 0 .179-.09.09-.18.268-.36.357-.54.267-.36.624-.72.892-1.17.891-1.44 1.426-2.88 1.962-4.41.267-1.44.446-2.88.267-4.32 0-.36-.09-.81-.178-1.17 0-.18-.09-.45-.179-.63Z"
    fill="#FDFFFC" />
  <path
    d="M65.363 89.778h18.461c1.07 0 1.962.9 1.962 1.98s-.892 1.98-1.962 1.98H65.363c-1.07 0-1.962-.9-1.962-1.98s.892-1.98 1.962-1.98Z"
    fill="#BEBEBE" />
  <path
    d="M65.363 85.911h18.461c1.07 0 1.962.9 1.962 1.98s-.892 1.98-1.962 1.98H65.363c-1.07 0-1.962-.9-1.962-1.98s.892-1.98 1.962-1.98ZM65.363 81.769h18.461c1.07 0 1.962.9 1.962 1.98s-.892 1.98-1.962 1.98H65.363c-1.07 0-1.962-.9-1.962-1.98s.892-1.98 1.962-1.98Z"
    fill="#BEBEBE" />
  <path
    d="M64.471 89.869s-.178 0 0-.18h19.71c.178 0 .357 0 .357.18v.18c-.268.09-.446.09-.535.18h-6.778c-3.924 0-7.849-.09-11.683-.18H64.65m.356-.18h-.089.09Zm-.535-4.14s-.178 0 0-.18h19.71c.178 0 .357 0 .357.18v.18c-.268.09-.446.09-.535.18h-6.778c-3.924 0-7.849-.09-11.683-.18H64.65m.356-.09h-.089.09Z"
    fill="#D9D9D9" />
  <path
    d="M74.817 47.84a.896.896 0 0 0 .892-.9c0-.497-.4-.9-.892-.9a.896.896 0 0 0-.892.9c0 .497.4.9.892.9ZM26.479 58.458a.896.896 0 0 0 .892-.9c0-.497-.4-.9-.892-.9a.896.896 0 0 0-.892.9c0 .497.4.9.892.9Z"
    fill="#D3D3D3" />
</svg>