<svg width="111" height="110" fill="none" xmlns="http://www.w3.org/2000/svg">
  <path
    d="M93.3 84.77h-49c.3-8.88 4.4-15.44 7.3-18.063 3.5-3.23 7.2-4.845 10.6-5.854-2.7-2.22-4.5-5.651-4.5-9.486 0-6.56 4.4-12.211 11.2-12.211 7.1.202 11.2 5.55 11.2 12.211 0 3.835-1.8 7.266-4.6 9.486 3.4 1.01 7.1 2.624 10.6 5.954 2.9 2.725 7 9.285 7.3 18.065l-.1-.101Z"
    fill="#BEBEBE" />
  <path
    d="M80.5 84.77s-48 7.23-49 0c-1.002-7.228 4.4-15.44 7.3-18.063 3.5-3.23 7.2-4.845 10.6-5.854-2.7-2.22-4.5-5.651-4.5-9.486 0-6.56 4.4-12.211 11.2-12.211 7.1.202 11.2 5.55 11.2 12.211 0 3.835-1.8 7.266-4.5 9.486 3.5 1.01 7.1 2.624 10.6 5.954 2.9 2.725 6.948 13.53 7.1 17.964Z"
    fill="#D9D9D9" />
  <path
    d="M50.5 42.364c-1.91-2.153-4.688-3.512-8.2-3.612-6.8 0-11.2 5.652-11.2 12.211 0 3.835 1.8 7.266 4.5 9.486-3.4 1.01-7.1 2.624-10.6 5.854-2.9 2.624-7 9.183-7.3 18.064l14.8.1"
    stroke="#D9D9D9" stroke-width=".8" stroke-miterlimit="10" stroke-dasharray="1.6 1.6" />
  <path
    d="M69.2 72.762c-.3-.707-1.2-1.211-2.3-.909-.5.101-.9.505-1.3.909-.3-.404-.7-.707-1.3-.909-1.1-.302-2 .202-2.3.909-.4.908-.3 1.917.5 3.027.6.908 1.5 1.716 2.8 2.826h.3c1.3-1.01 2.2-1.918 2.8-2.826.8-1.11 1-2.12.5-3.027h.3Z"
    fill="#fff" />
  <path
    d="M27.3 58.532c.552 0 1-.452 1-1.01 0-.556-.448-1.008-1-1.008-.553 0-1 .451-1 1.009 0 .557.447 1.009 1 1.009ZM80.7 38.752c0 .606-.4 1.01-1 1.01s-1-.404-1-1.01c0-.605.4-1.009 1-1.009s1 .404 1 1.01ZM44.5 33.202l.1-.303c0-.202.2-.404.3-.807.2-.707.3-1.312.4-1.817v-.202c0-.1-.1-.302 0-.403 0-.101.1-.303.2-.404v-.202l.1-.1c.2-.102.4 0 .5 0h.1v.302c0 .202 0 .606-.2 1.11 0 .303-.1.606-.2.807l-.2 1.01c0 .302-.2.605-.3.908 0 .202-.2.404-.3.505-.1.201-.4.201-.6 0-.2-.102-.2-.404 0-.606l.1.202Zm-9-2.523.8 1.21c.2.405.5.707.6 1.01.4.605.6 1.01.7 1.312.1.303.2.505.3.706 0 .202 0 .404-.2.505-.2 0-.4 0-.5-.202l-.1-.303c0-.1 0-.201-.2-.302-.2-.404-.4-.808-.7-1.211-.2-.303-.4-.606-.6-1.01l-.8-1.21c0-.303 0-.505.2-.606h.4l.1.1Zm4.2-5.248v.101c0 .202 0 .606.2 1.11 0 .505.2 1.11.3 1.918.2 1.513.5 3.33.8 5.146 0 .202-.1.404-.3.505a.55.55 0 0 1-.5-.303c-.3-1.816-.6-3.633-.8-5.147 0-.605-.2-1.21-.3-1.614-.1 0-.2-.202-.2-.303V25.835c0-.202.1-.303.3-.303.2 0 .3 0 .4.202l.1-.303Z"
    fill="#D9D9D9" />
</svg>