<svg width="110" height="110" fill="none" xmlns="http://www.w3.org/2000/svg">
  <path
    d="M86.6 79.22h-49c.3-8.88 4.4-15.44 7.3-18.064 3.5-3.23 7.2-4.844 10.6-5.853-2.7-2.22-4.5-5.652-4.5-9.486 0-6.56 4.4-12.212 11.2-12.212 7.1.202 11.2 5.55 11.2 12.212 0 3.834-1.8 7.266-4.5 9.486 3.5 1.009 7.1 2.624 10.6 5.954 2.9 2.725 7 9.284 7.3 18.064l-.2-.1Z"
    stroke="#D9D9D9" stroke-width=".8" stroke-miterlimit="10" stroke-dasharray="1.6 1.6" />
  <path
    d="M72.4 61.156c-3.5-3.23-7.2-4.844-10.6-5.853 2.7-2.22 4.5-5.652 4.5-9.486 0-6.661-5-12.11-11.4-12.212-6.3 0-11.5 5.248-11.6 12.01 0 4.036 1.8 7.67 4.7 9.89-4.2 1.311-7.7 3.834-9.8 5.752h34.1l.1-.101Z"
    fill="#BEBEBE" />
  <path d="M87.4 61.156H23.5v29.065h63.9V61.156Z" fill="#D9D9D9" />
  <path
    d="M79.3 63.88c-.1.404-.2.91-.2 1.313 0 2.32 1.9 4.137 4.2 4.137.4 0 .8 0 1.2-.201v11.807c-.4-.101-.9-.202-1.3-.202-2.3 0-4.1 1.918-4.1 4.239 0 1.009.3 1.917.9 2.624H31.6c.2-.505.4-1.11.3-1.716 0-2.321-1.9-4.138-4.2-4.138-.5 0-1 0-1.4.303V69.129c.5.201 1 .302 1.5.302 2.3 0 4.1-1.917 4.1-4.238 0-.404 0-.808-.2-1.211h47.5l.1-.101Z"
    fill="#D9D9D9" />
  <path
    d="m79.3 63.88.8.203.3-1.01h-1.1v.808Zm5.2 5.249h.8v-1.11l-1.1.302.2.808h.1Zm0 11.807-.2.807 1.1.303v-1.11h-.9Zm-4.5 6.56v.807h1.7l-1-1.312-.6.505H80Zm-48.4 0-.7-.303-.5 1.11h1.2v-.807Zm-5.2-5.55h-.8v1.21l1.1-.404-.3-.706v-.1Zm0-12.918.3-.707-1.1-.403v1.21h.8v-.1Zm5.4-5.248v-.807h-1.1l.3 1.009.8-.202Zm47.5.1-.8-.2c-.2.504-.2 1.008-.2 1.614h1.6c0-.404 0-.707.2-1.11l-.8-.202v-.101Zm-.2 1.313h-.8c0 2.725 2.2 4.945 5 4.945V68.523c-1.8 0-3.3-1.514-3.4-3.33h-.8Zm4.1 4.138v.807c.5 0 1 0 1.5-.202l-.2-.807-.2-.808c-.3.101-.6.202-1 .202v.808h-.1Zm1.3-.202h-.8v11.807h1.6V69.129h-.8Zm0 11.807.2-.807c-.5-.202-1-.303-1.6-.202V81.542c.4 0 .7 0 1.1.201l.2-.807h.1Zm-1.4-.202v-.807c-2.7 0-4.9 2.32-4.9 5.046h1.6c0-1.918 1.5-3.431 3.3-3.431v-.808Zm-4 4.239h-.8c0 1.11.4 2.22 1.1 3.128l.6-.504.6-.505c-.5-.606-.7-1.312-.7-2.12h-.8Zm.9 2.523v-.808H31.6v1.615h48.3v-.807h.1Zm-48.4 0 .7.302c.3-.605.4-1.312.4-2.018h-1.6c0 .505 0 .908-.3 1.413l.7.303h.1Zm.4-1.716h.8c0-2.725-2.3-4.945-5-4.945V82.45c1.8 0 3.3 1.513 3.4 3.33h.8Zm-4.2-4.138v-.807c-.6 0-1.2.101-1.7.303l.3.706.3.707c.4-.101.7-.202 1.1-.202v-.808.101Zm-1.4.303h.8V69.028h-1.6v12.917h.8Zm0-12.917-.3.706c.6.202 1.2.303 1.8.303V68.422c-.4 0-.8 0-1.2-.202l-.3.707v.1Zm1.5.201v.808c2.7 0 4.9-2.321 4.9-5.046h-1.6c0 1.917-1.5 3.431-3.3 3.431v.808Zm4.1-4.137h.8c0-.505 0-1.01-.2-1.514l-.8.202-.8.202c0 .303.2.605.2 1.009h.8v.1Zm-.2-1.312v.807h47.5v-1.614H31.8v.807Z"
    fill="#BEBEBE" />
  <path
    d="M65.1 76.698c.4-5.45-3.6-10.193-9-10.697-5.4-.404-10.1 3.632-10.6 9.082-.5 5.45 3.6 10.193 9 10.697 5.4.404 10.1-3.633 10.6-9.082Zm-29.8-1.11a.9.9 0 0 0 .9-.909.9.9 0 1 0-1.8 0 .9.9 0 0 0 .9.909Z"
    fill="#D9D9D9" />
  <path
    d="M65.2 76.496c.4-5.45-3.6-10.193-9-10.697-5.4-.505-10.1 3.632-10.6 9.082-.4 5.45 3.6 10.193 9 10.697 5.4.505 10.1-3.633 10.6-9.082Z"
    fill="#fff" />
  <path
    d="M50.9 69.633s.4-.302.5-.202l-.3.303c-.2.202-.5.404-.8.808a6.91 6.91 0 0 0-1.8 3.229c-.4 1.917-.2 2.826 0 3.532s.4 1.211.9 2.22c1.2 2.019 3.2 3.028 3.3 2.927l-.4-.202c-.2-.101-.4-.303-.4-.303s.9.707 2.7 1.01c.9.1 2 .201 3.1-.203 1.2-.302 2.3-1.009 3.2-2.018.9-1.009 1.4-2.12 1.5-2.825.2-.808.2-1.212.2-1.212 0-1.312-.2-2.623-.8-3.734-.5-1.11-1.3-1.917-2-2.724-.2-.202-1-.909-1-.808 0 0 .4.303.3.404 0 0-1.2-.706-3-1.01-.2 0-.4 0-.5-.302v-.504c1.5 0 3 .605 4.3 1.513.9.707 1.7 1.514 2.3 2.523.8 1.312 1 2.725 1 3.734 0 1.01-.1 1.615 0 1.615 0 0 0-.202.1-.505 0-.202 0-.504.1-.504v1.009c0 .505-.2 1.01-.3 1.11-.4 1.312-1 2.22-1.8 3.028-.8.807-1.9 1.614-3.8 2.018-.6.1-1.3.202-1.9.202-.8 0-1.7-.101-2.7-.505-1-.303-2.1-1.01-3.1-2.018-1.2-1.211-1.9-2.826-2.1-4.541v-2.322c.3-1.312.9-2.624 1.7-3.633.8-.908 1.7-1.614 2.8-2.119.3-.202.7-.303 1.1-.404h.4s-.3.101-.7.303c-.4.202-.7.303-.7.303s.2-.101.7-.303c.5-.202 1.3-.504 2.5-.504 0 0 .1.1 0 .201-.1.303-1.3.303-2.5.707-.5.202-1.1.403-1.5.605-.4.202-.7.404-.7.404"
    fill="#9D9D9B" />
  <path
    d="M55.8 72.156h.4v.404s0 .1-.1.1h-.6s-.1.102-.2.102c-.3.1-.6.302-.8.504l-.1.202V74.275l.1.101s0 .101.2.202h.2c0 .1.1.202.2.202H56s.1 0 .2.1c0 0 .2 0 .3.102.1 0 .2 0 .3.201v.101s0 .101.1.202v1.817c0 .1 0 .202-.2.303 0 .1-.2.201-.3.302v.202h-.2v.202h-.1s-.1 0-.2.1v1.514h-.1l-.1-.1-.1-.202V78.716c-.4 0-.8 0-1.1-.303H54.2s-.2 0-.2-.101V77.606h.2c.2 0 .4.201.5.302.1.101.3.202.5.202h.5c.2 0 .3-.202.4-.303l.2-.201v-.202c0-.101 0-.202.1-.303v-.404c0-.202 0-.403-.2-.605-.1-.202-.3-.404-.4-.505h-.4c-.1 0-.2-.1-.3-.202H55c-.2 0-.3 0-.5-.202h-.4s0-.1-.1-.201V74.376c0-.1-.1-.202 0-.404v-.706s0-.1.1-.202v-.202s0-.1.2-.201h.2c0-.101.1-.202.2-.202 0 0 .1 0 .2-.101v-1.312h.1s.1 0 .2.1l.2.203V72.257l.4-.101Z"
    fill="#9D9D9B" />
  <path
    d="M20.9 68.12c9.4 6.458 4.7 13.018.1 16.348-.6.404-1.4 0-1.5-.807l-.2-14.734c0-.807.8-1.312 1.5-.807h.1Zm68.9-.404c-9.2 6.66-4.5 13.12.2 16.349.6.403 1.4 0 1.4-.808l-.2-14.734c0-.807-.9-1.21-1.5-.807"
    fill="#BEBEBE" />
  <path
    d="M71.6 32.799c.552 0 1-.452 1-1.01 0-.557-.448-1.009-1-1.009s-1 .452-1 1.01c0 .557.448 1.009 1 1.009ZM38.6 43.394c.552 0 1-.451 1-1.009 0-.557-.448-1.009-1-1.009s-1 .452-1 1.01c0 .556.448 1.008 1 1.008Z"
    fill="#D9D9D9" />
  <path
    d="M70.8 67.413h.2c.2.101.4.202.5.303 1.1.706 2.2 1.413 3.2 2.32.5.405.6 1.111.6 1.616.9 0 1.7.706 2.3 1.21.3.404.6.808.8 1.313v.706h-.2c0-.1-.2-.202-.2-.303v-.202c-.2-.403-.5-.706-.8-1.11-.7-.504-1.4-1.11-2.1-1.11 0 0-.1.101-.2.101s-.2.101-.3.101h-.3v-.404h.1s.2 0 .2-.1h.1c0-.505 0-.909-.3-1.212-.9-.908-2-1.614-3.1-2.32l-.5-.303c-.1 0-.2-.303-.1-.404 0 0 .1-.101.2-.101l-.1-.1Z"
    fill="#fff" />
</svg>