<svg viewBox="0 0 110 110" width="110" height="110" fill="none" xmlns="http://www.w3.org/2000/svg">
  <path
    d="m23.9 35.112 3.8 44.706c0 .505.5 1.01 1.1.908l57.6-4.743m1 .202-4.1-45.514c0-.504-.5-1.009-1.1-.908l-58.3 5.046"
    stroke="#D9D9D9" stroke-width=".8" stroke-linecap="round" stroke-dasharray="2.5 2.5" />
  <path
    d="M91.5 38.238h-59c-.552 0-1 .452-1 1.01v46.22c0 .557.448 1.009 1 1.009h59c.552 0 1-.452 1-1.01v-46.22c0-.557-.448-1.009-1-1.009ZM19.3 67.706c.718 0 1.3-.588 1.3-1.312 0-.725-.582-1.312-1.3-1.312-.718 0-1.3.587-1.3 1.312 0 .724.582 1.312 1.3 1.312Z"
    fill="#D9D9D9" />
  <path d="M71.9 26.23c.6-.404 1.2-.909 3-1.817.5-.202.9-.202 1.2-.202" stroke="#D9D9D9" stroke-width=".8"
    stroke-miterlimit="10" stroke-linecap="round" />
  <path d="M73.1 23c.4.605 1 2.12 1.8 3.936" stroke="#D9D9D9" stroke-width=".8" stroke-miterlimit="10"
    stroke-linecap="round" />
  <path
    d="M77.5 82.843v-.403h7.1c1.1 0 2.2 0 3.3-.202h.2l.2-.101h.4s.2.202.2.302v.404c-.2.202-.3.202-.3.303h-.5c-1.2.202-2.3.202-3.4.202-2.3 0-4.6-.202-6.9-.303h-.3v-.202Z"
    fill="#fff" />
  <path d="M59.1 68.513 32.4 38.238h59.2L64.9 68.513a4.025 4.025 0 0 1-5.9 0h.1Z" fill="#BEBEBE" />
</svg>