<svg width="111" height="110" fill="none" xmlns="http://www.w3.org/2000/svg">
  <path
    d="M93.3 42.285c-2.5-5.248-9.8-9.588-18.3-7.065-4.1 1.211-7.6 3.734-10 7.166-2.4-3.432-6-6.056-10-7.166-8.5-2.422-15.8 1.817-18.3 7.065-3.6 7.367-2.1 15.642 4.4 24.623 5.1 6.964 12.3 14.129 22.8 22.404.7.505 1.6.505 2.3 0C76.7 81.037 84 74.074 89 66.908c6.5-8.981 7.9-17.256 4.4-24.623h-.1Z"
    fill="#D9D9D9" />
  <path
    d="M68.9 23.817c-4.2-4.037-12.6-5.349-19.6 0-3.4 2.523-5.8 6.257-6.8 10.394a19.092 19.092 0 0 0-11.9-3.128c-8.8.807-14.1 7.367-14.6 13.22-.7 8.174 3.6 15.34 12.8 21.395C36 70.44 45.3 74.478 58 78.312c.8.303 1.7 0 2.2-.807C67.1 66 71.4 56.817 73.6 48.34c2.9-10.698 1.3-18.973-4.6-24.523h-.1Z"
    stroke="#D9D9D9" stroke-width=".8" stroke-miterlimit="10" stroke-dasharray="1.6 1.6" />
  <path
    d="M45.4 39.156c.5-.202 1.1-.303 1.7-.202.2 0 .5 0 .7.101 0 0 .1 0 .2.101v.202s0 .1-.1.202h-.8c-.5 0-.9.201-1.4.302-1.7.707-3.3 1.918-4.4 3.432-.7 1.312-1.4 2.623-1.8 3.935 0 .202-.1.404-.2.606 0 .202-.3.404-.5.404s-.4-.303-.4-.505c0-.303.1-.505.2-.706.5-1.514 1.2-2.826 1.9-4.138 1.3-1.716 2.9-3.028 4.8-3.835l.1.101Zm4.7-.303c.1 0 .2 0 .3.202.1 0 .3-.1.5-.1h1s.2 0 .2.1v.201c0 .102 0 .203-.2.304 0 0-.1 0-.2.1h-.4s-.2 0-.3-.1h-1c-.2 0-.4-.101-.5-.303v-.606l.1-.1.1-.102s.2-.1.3-.1l.1.504Zm1.5.606v-.101.1Z"
    fill="#fff" />
  <path
    d="M50.1 53.99c1.1.505 1.5 1.918.9 3.028l-3.1 6.156.6.605 13-11.504c1-.908 2.4-.808 3.2 0 .8.908.6 2.422-.3 3.23l-8.5 7.467.7.807 11.2-9.89c1-.908 2.4-.807 3.2 0 .8.909.6 2.422-.3 3.23l-11.2 9.89.7.807 9.4-8.275c1-.908 2.4-.807 3.2 0 .8.908.6 2.422-.3 3.23l-10.3 9.082.7.807 6.7-5.954c1-.908 2.4-.807 3.2 0 .8.908.6 2.422-.3 3.23L60.4 80.632c-4.2 3.734-11.2 6.256-17.7-1.212-2-2.32-3.5-4.844-3.8-6.76-.2-1.212 0-2.423.2-3.533.2-.908.6-1.716 1-2.523l6.8-12.211c.6-1.11 2-1.716 3.1-1.11l.1.706Z"
    fill="#BEBEBE" />
  <path
    d="M33 27.853c.607 0 1.1-.497 1.1-1.11 0-.613-.493-1.11-1.1-1.11-.608 0-1.1.497-1.1 1.11 0 .613.492 1.11 1.1 1.11Z"
    fill="#D9D9D9" />
</svg>