<svg width="111" height="110" fill="none" xmlns="http://www.w3.org/2000/svg">
  <path d="M82 50.56V81.54c0 2.725-2.7 4.844-6.1 4.844h-38c-3.4 0-6.1-2.22-6.1-4.844V50.56H82Z" fill="#D9D9D9" />
  <path
    d="M55.6 61.156c.2-.807 1.2-.807 1.5-.101l1.5 3.734c.1.303.5.504.8.504l3.9-.302c.8 0 1.2.908.6 1.413l-3 2.623c-.3.202-.4.606-.2.909l1.5 3.734c.3.706-.5 1.412-1.2 1.009l-3.4-2.12c-.3-.201-.7-.201-.9 0l-3 2.624c-.6.505-1.5 0-1.3-.807l.9-3.835c0-.303 0-.706-.4-.908l-3.4-2.12c-.7-.403-.4-1.412.4-1.513l3.9-.303c.3 0 .6-.303.7-.605l.9-3.835.2-.101Z"
    fill="#fff" />
  <path
    d="m36.1 28.257 51.2 16.752c2.1.706 3.3 2.927 2.6 5.046-.7 2.12-2.9 3.33-5 2.624h-.1L33.6 35.926C31.5 35.22 30.3 33 31 30.881c.7-2.12 2.9-3.33 5-2.624h.1Z"
    fill="#D9D9D9" />
  <path
    d="M59.1 29.67s.1.202.3.504c.2.303.3.707.5 1.11.2.404.3.808.5 1.11.1.303.2.505.2.505s-.1-.202-.3-.706c-.3-.606-.6-1.312-.9-1.918-.9-1.513-2.3-3.734-5-5.247-1.5-.808-2.9-.909-3.9-.404-.8.404-1.3 1.21-1.3 2.12 0 1.311.7 2.22 1.9 3.632 2.6 2.826 5.5 4.34 7.5 5.349 2 1.009 3.3 1.514 3.3 1.413 0-.202-2.1-1.413-2-1.514 0 0 .4.202 1.1.605-.1 0-.2-.201-.4-.302-.1-.101-.3-.202-.4-.303l-.4-.404c-.2 0-.5-.1-.7-.202-.8-.302-1.6-.908-2.1-1.715l-1.1-.707c-1-.605-1.9-1.312-2.7-2.018-.6-.505-.9-.908-.9-.807-.1 0 1.4 1.614 1.4 1.614s-.3-.202-.7-.504c-.4-.404-1-.909-1.6-1.716-.6-.807-1.3-1.715-1.1-2.624.1-.807 1.2-1.21 2.4-.807 1.5.504 2.8 1.413 3.7 2.22.8.808 1.3 1.514 1.3 1.514l-1.2-1.11.3.302c.2.202.4.505.7.909.6.706 1.3 1.816 1.9 2.926 1.2 2.322 2.3 4.845 2.5 4.744.2 0-.3-2.019-1-3.936-.3-1.01-.8-1.918-1.1-2.624-.4-.706-.6-1.11-.6-1.11l-.1.1Z"
    fill="#9D9D9B" />
  <path
    d="M64.5 30.78s-.1.202-.3.505c-.2.302-.3.706-.5 1.009-.2.403-.3.807-.5 1.11-.1.302-.2.504-.2.504s0-.202.2-.706c.2-.404.4-1.11.8-1.817.4-.807.8-1.715 1.4-2.724.6-1.01 1.2-2.22 2.3-3.028 1.2-.908 2.5-.706 3.1-.303.6.505.8 1.11.9 1.615.1 1.01 0 1.817-1 3.33-1.9 2.927-4.5 4.542-6.3 5.55-1.8 1.01-3 1.414-3 1.615 0 0 .6 0 1.2-.201.6-.202 1.1-.303 1.1-.303s-.4.202-1.1.404h.4c.2 0 .3-.202.5-.202h.5c.2-.202.4-.303.6-.404.8-.505 1.6-.807 2.5-1.01.4-.2.8-.504 1.1-.806.9-.707 1.8-1.615 2.5-2.422.5-.707.8-1.11.8-1.11l-.8.807c-.4.404-.8.807-.8.706 0 0 .9-.908 2-2.624.5-.908 1.2-2.22.8-3.935-.2-.808-.7-1.716-1.6-2.22-.9-.505-2-.505-2.9-.202-1.1.403-1.8 1.11-2.3 1.816-.5.706-.9 1.413-1.2 1.917-.6 1.11-.9 1.918-1 1.817 0 0 .1-.404.3-.807.2-.404.3-.808.3-.808s0 .101-.2.404c-.1.303-.3.605-.5 1.11-.5 1.11-.9 2.321-1.3 3.532-.8 2.624-1 5.248-.8 5.349.2 0 .7-1.918 1.4-3.734.3-.908.7-1.817 1-2.523.3-.706.5-1.11.5-1.11l.1-.101Z"
    fill="#9D9D9B" />
  <path
    d="M61.2 37.239s0-.101.1-.202c0-.101.3-.202.4-.202h.1c.3.1.5.303.7.605.1.101.2.303.3.404.1.1.2.303.3.404.4.504 2.2 3.229 2.1 3.128-1.2-2.321 2.4 3.532 3.9 5.752.4.505.8 1.413.8 1.11.1-2.22-.3-6.862-.3-5.247 0 1.009-.2-1.615-.3-2.22v-1.413c0-.202.1-.303.2-.404h.4c.2 0 .3.101.5.303.9.807 2.8 3.633 2.5 3.027-.3-.605.7.909.9 1.211l.1.101c.1-.605 0-1.312 0-2.422.3.808.1-2.523.2-4.137 0-.202.2-.303.3-.303.2 0 .3.202.3.303-.3 1.413-.2 3.128-.3 4.137 0 1.312 0 2.321-.2 3.129v.202h-.5s-.1 0-.2-.101-.2-.303-.3-.404c-.3-.303-.6-.807-.9-1.312-.7-1.01-1.5-2.12-2.4-2.927 0 0-.1.101 0 .202.2 2.422 0 .908.2.505.2-.404.2 1.514.3 2.422.2 1.715.4 3.835.2 5.752v.202c0 .1-.1.202-.3.202H70s-.1 0-.2-.101c-.2-.202-.7-.606-1.1-1.413-1.6-3.128-5-7.367-3.9-5.853 1.2 1.816-1.5-2.725-2.1-3.129-.2-.1-.2-.302-.3-.403 0-.101-.2-.303-.3-.404-.2-.202-.3-.303-.4-.303v.202c0 .202-.3.202-.4.202-.2 0-.2-.303-.2-.404v-.201h.1Z"
    fill="#9D9D9B" />
  <path
    d="M32.6 46.927v-.303c0-.202-.1-.404-.2-.807-.2-.606-.4-1.11-.7-1.716v-.202c-.2 0-.3-.202-.3-.303V42.79c0-.202.3-.303.5-.303h.2v.202c.1.202.3.505.5 1.01.1.201.2.504.3.807l.4.908c.1.404.2.706.2.908v.505c0 .202-.2.403-.5.303-.2 0-.4-.202-.3-.404l-.1.202Zm-8.8 3.128 1.3.505c.4.202.8.302 1.1.504.6.303 1.1.505 1.3.707.3.202.4.303.6.403.2.101.2.404.1.606-.1.202-.3.202-.5.202l-.2-.202c-.1 0-.2-.101-.3-.202-.3-.202-.6-.404-1.3-.605-.4-.202-.7-.303-1.1-.505l-1.3-.505c-.2-.201-.2-.403-.1-.605 0-.101.2-.202.4-.202v-.1Zm.4-6.761h.1c.1.202.4.403.7.807.4.404.8.807 1.3 1.413 1 1.11 2.3 2.422 3.6 3.734.2.202.1.404 0 .605-.2.101-.4.101-.6 0-1.2-1.21-2.4-2.523-3.6-3.734-.4-.403-.8-.807-1.1-1.21-.1 0-.3 0-.4-.102-.2-.201-.3-.403-.5-.706V43.495c.1-.1.3-.201.4-.1l.1-.101Z"
    fill="#D9D9D9" />
  <path d="M39.2 42.587c.2.202.3.505.9 1.01.2.1.3.2.4.2" stroke="#D9D9D9" stroke-width=".3" stroke-linecap="round" />
  <path d="M39.2 43.899c.2-.202.6-.605 1.1-1.211m9.2 2.12c.2.201.3.504.9 1.008.2.101.3.202.4.202" stroke="#D9D9D9"
    stroke-width=".3" stroke-linecap="round" />
  <path d="M49.6 46.12c.2-.203.6-.606 1.1-1.212M43.9 46.019c.2.302.4.605 1.2 1.312.2.201.4.201.6.302" stroke="#D9D9D9"
    stroke-width=".3" stroke-linecap="round" />
  <path d="M44 47.734c.3-.202.8-.808 1.5-1.615" stroke="#D9D9D9" stroke-width=".3" stroke-linecap="round" />
  <path
    d="M92.1 41.88c.552 0 1-.451 1-1.009 0-.557-.448-1.009-1-1.009s-1 .452-1 1.01c0 .557.448 1.009 1 1.009ZM25.9 81.743c.552 0 1-.452 1-1.01 0-.557-.448-1.008-1-1.008s-1 .451-1 1.009c0 .557.448 1.009 1 1.009Z"
    fill="#D9D9D9" />
</svg>