<svg width="111" height="110" fill="none" xmlns="http://www.w3.org/2000/svg">
  <path d="M45.105 45.816c-.201.303-.504.707-1.311 1.514l-.606.303" stroke="#D9D9D9" stroke-width=".4"
    stroke-linecap="round" />
  <path d="M45.005 47.734c-.303-.202-.908-.908-1.615-1.817m54.597 26.844c-.202.303-.505.707-1.313 1.514l-.605.303"
    stroke="#D9D9D9" stroke-width=".4" stroke-linecap="round" />
  <path
    d="M97.885 74.68c-.302-.203-.908-.91-1.614-1.817M58.326 18.367c-.303.404-.606.807-1.615 1.817a3.02 3.02 0 0 1-.807.403"
    stroke="#D9D9D9" stroke-width=".4" stroke-linecap="round" />
  <path d="M58.225 20.688c-.404-.303-1.11-1.11-2.019-2.22" stroke="#D9D9D9" stroke-width=".4" stroke-linecap="round" />
  <path
    d="M79.115 14.835h-.303c0 .202-.202.404-.303.605v.303c-.1.303-.302.707-.504 1.11-.606 1.11-1.11 2.321-1.716 3.431 0 .202 0 .303.101.404.101 0 .303 0 .404-.1l1.715-3.432c.202-.505.505-.908.606-1.21.202-.304.303-.607.303-.707 0-.101 0-.202-.202-.303l-.101-.101Zm-4.541 1.514c0-.101 0-.202-.202-.202s-.303 0-.404.202V18.367c0 .505 0 .807-.1 1.01v.504c0 .1 0 .303.201.303.202 0 .303 0 .404-.202 0-.202 0-.303.1-.505 0-.202 0-.605.102-1.11V16.45l-.101-.1Zm6.66 3.532c0-.202-.1-.303-.303-.303h-.201s-.202 0-.202.101c0 0-.202.202-.101.303l-.101.1c-.303.203-.606.606-1.01.909-.201.202-.403.303-.504.303h-.202c-.201 0-.302.201-.201.302 0 .202.201.303.403.202.101 0 .202 0 .404-.202.202-.1.404-.201.605-.403l.606-.505c.202-.1.303-.303.504-.403l.606-.606v-.202l-.303.404ZM44.904 23.01c-1.716.605-4.642 3.027-2.927 7.77 2.12 5.853-7.266 19.275-18.67 27.45-.807 0-2.522-.303-4.339-1.414-1.917-.908-3.129-2.119-3.633-2.724.202-13.927 5.954-29.367 12.01-30.881 4.843-1.211 5.146-5.046 4.641-6.862-.403-1.817.707-1.413.707-1.413l2.926 1.513 9.991 5.248s1.01.707-.706 1.312Z"
    fill="#D9D9D9" />
  <path
    d="m32.49 14.734 13.322 6.963c.605.303.807 1.01.504 1.514-.302.605-1.009.807-1.513.505l-13.321-6.964c-.606-.303-.808-1.009-.505-1.514.303-.605 1.01-.807 1.514-.504Z"
    fill="#BEBEBE" />
  <path
    d="m28.959 58.633 39.862-7.468c9.486-1.816 18.67 4.44 20.385 13.927 1.817 9.486-4.44 18.67-13.926 20.385l-39.863 7.468c-9.486 1.817-18.67-4.44-20.385-13.926-1.816-9.487 4.44-18.67 13.927-20.386Z"
    fill="#D9D9D9" />
  <path
    d="m28.858 60.45 41.275-7.771 5.651 30.275-41.275 7.77-5.651-30.275ZM27.041 84.972a3.532 3.532 0 1 0 0-7.064 3.532 3.532 0 0 0 0 7.064ZM28.206 87.872c1.15-.215 2.017-.745 1.935-1.183-.082-.439-1.081-.62-2.232-.404-1.15.215-2.016.745-1.934 1.183.082.439 1.08.62 2.231.404ZM77.82 79.21c1.15-.215 2.016-.745 1.934-1.183-.082-.439-1.082-.62-2.232-.404-1.15.215-2.017.745-1.934 1.183.082.439 1.08.62 2.231.404ZM82.715 78.316c1.15-.215 2.016-.745 1.934-1.184-.082-.438-1.081-.619-2.231-.403-1.15.215-2.017.745-1.935 1.183.082.438 1.081.62 2.232.404ZM79.014 75.284a3.532 3.532 0 1 0 0-7.064 3.532 3.532 0 0 0 0 7.064ZM74.27 63.174a1.413 1.413 0 1 0 0-2.825 1.413 1.413 0 0 0 0 2.825ZM79.821 62.165a1.413 1.413 0 1 0 0-2.826 1.413 1.413 0 0 0 0 2.826ZM76.491 59.945a1.413 1.413 0 1 0 0-2.826 1.413 1.413 0 0 0 0 2.826ZM77.5 65.394a1.413 1.413 0 1 0 0-2.825 1.413 1.413 0 0 0 0 2.825ZM22.298 72.963a1.413 1.413 0 1 0 0-2.825 1.413 1.413 0 0 0 0 2.825ZM27.848 71.853a1.413 1.413 0 1 0 0-2.826 1.413 1.413 0 0 0 0 2.826ZM24.518 69.633a1.413 1.413 0 1 0 0-2.826 1.413 1.413 0 0 0 0 2.826ZM25.629 75.184a1.413 1.413 0 1 0 0-2.826 1.413 1.413 0 0 0 0 2.826Z"
    fill="#BEBEBE" />
  <path
    d="M46.014 61.257c.1 0 .403 0 .807-.1.404 0 .908-.102 1.514-.203 1.11-.202 7.972-1.413 9.385-1.715.101 0 .303 0 .303.202 0 .201-.1.302-.303.403-1.413.202-8.275 1.514-9.385 1.716l-1.211.202s-.202.202-.303.202H46.014c-.101 0-.202-.101-.202-.202v-.202s0-.101.1-.101l.102-.202Z"
    fill="#fff" />
  <path
    d="M87.793 64.284c.505.707 1.817 1.817 3.432.303 2.119-1.917.302-6.257 2.825-7.468 2.624-1.21 6.964 2.12 6.964 2.12"
    stroke="#D9D9D9" />
  <path
    d="M63.472 29.77s-4.34-1.917-7.367-2.22c-3.734-.302-6.156.101-7.972.505-1.01.202-1.514 1.211-1.01 2.12l9.689 17.155c.303.707 1.11 1.01 1.816.808 5.147-1.716 9.588-4.844 14.936-2.624L63.371 29.67l.101.1Z"
    fill="#BEBEBE" />
  <path
    d="M64.38 31.486s.203-3.128 3.533-4.945c4.44-2.32 5.954-3.835 6.963-3.633.303 0 .505.303.707.505l8.679 13.22c.504.706.302 1.615-.404 2.12-4.44 2.623-8.78 1.311-10.193 6.862l-9.284-14.129Z"
    fill="#BEBEBE" />
  <path
    d="M64.684 29.468s-4.037-1.817-6.863-2.018c-3.532-.303-6.358 0-8.073.403-.908.202-1.413 1.211-.908 2.019l8.678 16.348c.303.606 1.11.909 1.716.707 4.743-1.615 9.083-4.037 14.128-2.019l-8.678-15.44Z"
    fill="#D9D9D9" />
  <path
    d="M64.582 29.367s0-3.027 3.129-4.642c4.138-2.22 6.761-2.12 7.67-1.817.302 0 .504.303.706.606l8.073 12.413c.404.605.303 1.514-.403 1.917-4.138 2.422-8.982 1.817-10.294 7.064l-8.78-15.54h-.1Z"
    fill="#D9D9D9" />
  <path opacity=".5"
    d="M73.665 26.44s-.1 0-.202.101c-1.21.808-2.724 1.11-3.935 1.918-.606.403-1.01 1.21-1.615 1.514h-.201s-.102 0-.203.1v.101H68.014c.706-.403 1.21-1.11 1.816-1.412 1.211-.808 2.523-1.312 3.734-2.12 0 0 0-.1.101-.1v-.102Zm1.413 2.12s-.1 0-.202.1c-1.21.808-2.725 1.11-3.936 1.918-.605.404-1.009 1.211-1.614 1.514h-.202s-.101 0-.202.1v.102h.202c.1 0 .202 0 .303-.202.706-.404 1.21-1.11 1.816-1.413 1.211-.807 2.523-1.312 3.734-2.12l.101-.1v.1Zm-10.294 1.413v-.101c.101 0 .101 0 .101.1v.101s0 .101.101.202c1.211 2.22 2.321 4.34 3.532 6.56.606 1.11 1.11 2.12 1.716 3.128l.1.202s0 .101.102.202c0 .101.1.202.202.303v.302h-.202c-.202 0-.202-.201-.303-.302 0 0 0-.101-.1-.202 0-.101-.102-.202-.203-.303-.706-1.11-1.21-2.12-1.816-3.23-1.211-2.22-2.22-4.44-3.431-6.66 0-.201 0-.302-.101-.302h.302Zm5.854 13.32c-3.734-.908-9.285 1.212-11.707 2.524l-4.34-8.175c4.038-3.532 9.588-2.22 12.01-1.11l4.037 6.762Z"
    fill="#BEBEBE" />
  <path
    d="M90.821 45.816c0 .606-.505 1.211-1.211 1.211-.606 0-1.211-.504-1.211-1.21 0-.606.504-1.212 1.211-1.212.606 0 1.211.505 1.211 1.211ZM23.711 18.57a.796.796 0 0 1-.807.807c-.404 0-.808-.404-.808-.807 0-.404.404-.808.808-.808.403 0 .807.404.807.808ZM15.84 92.541a.908.908 0 1 0 0-1.816.908.908 0 0 0 0 1.816Z"
    fill="#D9D9D9" />
</svg>