<svg viewBox="0 0 110 110" width="110" height="110" fill="none" xmlns="http://www.w3.org/2000/svg">
  <path
    d="M77.975 31.961c0 .348-.26.696-.696.696a.686.686 0 0 1-.695-.696c0-.348.347-.695.695-.695s.609.26.696.695ZM31.797 75.01c0 .348-.261.696-.696.696a.686.686 0 0 1-.696-.696c0-.348.348-.696.696-.696s.609.261.696.696Z"
    fill="#D9D9D9" />
  <path
    d="m35.71 33.263 16.262-3.305c.174 0 .348-.087.61-.087h.086c.435 0 .957 0 1.392.348l27.654 15.045c1.305.696 1.74 2.348 1.044 3.652l-11.045 20.35c-.695 1.305-2.348 1.74-3.652 1.044L40.406 55.265c-.609-.348-1.044-.87-1.217-1.479 0-.174-.087-.348-.174-.521"
    stroke="#D9D9D9" stroke-width=".892" stroke-dasharray="1.68 1.68" />
  <path
    d="M32.231 36.569c-.347-2.348 1.566-4.349 3.914-4.262l17.567.696h.695c.522.087.957.348 1.305.696l24.61 22.437c1.132 1.043 1.218 2.87.175 4L63.974 78.225c-1.044 1.13-2.87 1.217-4 .174L35.361 55.962c-.522-.522-.87-1.13-.87-1.826v-.61l-2.26-17.044v.087Zm6.87 2.87a3.682 3.682 0 0 0 .261 5.13 3.683 3.683 0 0 0 5.131-.26 3.683 3.683 0 0 0-.26-5.131 3.682 3.682 0 0 0-5.131.26Z"
    fill="#BEBEBE" />
  <path
    d="M32.144 35.353c.435-2.26 2.87-3.652 5.044-2.783l16.35 6.436c.174 0 .347.087.608.26h.087c.435.262.783.61 1.044 1.044L71.19 69.53c.783 1.392.261 3.044-1.13 3.827L48.58 85.01c-1.392.783-3.044.261-3.827-1.13L28.84 54.66c-.348-.696-.435-1.392-.261-2.088 0-.174.087-.348.174-.522l3.391-16.784v.087Zm5.566 4.957c-1.74.957-2.435 3.13-1.478 4.87.956 1.74 3.13 2.435 4.87 1.479 1.739-.957 2.435-3.131 1.478-4.87-.957-1.74-3.13-2.435-4.87-1.479ZM30.144 32.044h-.174l-.348-.348c-.26-.26-.521-.522-.87-.695-.434-.348-.956-.696-1.565-1.131H27.1c-.087-.174-.174-.348 0-.435 0-.087.261-.174.348 0h.087c.609.435 1.13.87 1.566 1.218.348.26.608.521.87.782.173.087.26.261.347.348a.264.264 0 0 1 0 .348h-.174v-.087Zm1.479-1.13c-.087 0-.174 0-.261-.174-.696-1.218-1.479-2.435-2.087-3.392l-.522-.87c0-.087-.087-.174-.174-.26-.087 0-.174 0-.261-.174-.435-.87-.435-.957-.174-1.044.087 0 .348 0 .435.087.087.087.348.522.695 1.13l.522.783c.61.957 1.305 2.174 2.088 3.392 0 .087 0 .26-.087.348h-.174v.174Zm1.826-.522h-.087c-.174 0-.174-.174-.174-.348v-.87c-.087-.782-.26-1.478-.26-1.826h-.175c0-.435 0-.522.174-.609h.348v.174c.087.348.26 1.392.435 2.261v1.13c0 .088-.174.175-.261.175v-.087Z"
    fill="#D9D9D9" />
  <path
    d="M39.972 71.617s0-.174.087-.087c.174 0 .087.087.087.087v.087c1.13 2.175 2.26 4.262 3.391 6.349.522 1.043 1.13 2.087 1.653 2.957 0 0 .087.173.174.173 0 .087.087.174.174.174 0 .087.087.261.174.348v.261h-.175c-.173-.087-.26-.174-.26-.26l-.174-.175c0-.087-.174-.174-.174-.26a126.467 126.467 0 0 1-1.74-3.044c-1.13-2.174-2.174-4.262-3.304-6.436 0-.174 0-.26-.087-.347v-.175l.174.348Z"
    fill="#fff" />
</svg>