<svg xmlns="http://www.w3.org/2000/svg" width="110" height="110" fill="none">
  <rect width="59.26" height="68.348" x="22.461" y="18.559" fill="#AFE47C" rx="5.394" />
  <rect width="60.933" height="70.278" x="32.637" y="15.41" fill="#32CC86" rx="5.394"
    transform="rotate(9.682 32.637 15.41)" />
  <g clip-path="url(#empty-theme-a)">
    <rect width="60.416" height="70.126" x="44.226" y="19.332" fill="#AFE47C" rx="4.315"
      transform="rotate(20.444 44.226 19.332)" />
    <g clip-path="url(#empty-theme-b)">
      <rect width="36.353" height="19.387" x="58.144" y="38.949" fill="#32CC86" rx="1.079"
        transform="rotate(20.444 58.144 38.95)" />
      <path fill="#AFE47C" d="m68.111 48.518 5.933 17.048-21.577-8.043 15.644-9.005Z" />
      <path fill="#AFE47C" d="m79.862 57.392 4.439 12.755-16.144-6.018 11.705-6.737Z" />
      <circle cx="76.395" cy="52.02" r="3.49" fill="#AFE47C" transform="rotate(20.444 76.395 52.02)" />
    </g>
    <rect width="13.078" height="9.902" x="43.411" y="33.457" fill="#32CC86" rx="1.079"
      transform="rotate(20.444 43.41 33.457)" />
    <rect width="13.078" height="2.352" x="38.633" y="46.277" fill="#32CC86" rx="1.176"
      transform="rotate(20.444 38.633 46.277)" />
    <rect width="8.005" height="2.352" x="37.46" y="49.418" fill="#32CC86" rx="1.176"
      transform="rotate(20.444 37.46 49.418)" />
    <rect width="34.217" height="19.387" x="34.193" y="58.184" fill="#32CC86" rx="1.079"
      transform="rotate(20.444 34.193 58.184)" />
    <rect width="13.078" height="9.902" x="67.424" y="80.695" fill="#32CC86" rx="1.079"
      transform="rotate(20.444 67.424 80.695)" />
    <rect width="13.078" height="2.352" x="70.737" y="71.809" fill="#32CC86" rx="1.176"
      transform="rotate(20.444 70.737 71.809)" />
    <rect width="9.319" height="2.352" x="69.565" y="74.953" fill="#32CC86" rx="1.176"
      transform="rotate(20.444 69.565 74.953)" />
    <rect width="7.312" height="3.715" x="46.788" y="24.395" fill="#32CC86" rx="1.857"
      transform="rotate(20.444 46.788 24.395)" />
    <rect width="7.312" height="3.715" x="69.409" y="32.828" fill="#32CC86" rx="1.857"
      transform="rotate(20.444 69.41 32.828)" />
    <rect width="7.312" height="3.715" x="79.072" y="36.43" fill="#32CC86" rx="1.857"
      transform="rotate(20.444 79.072 36.43)" />
    <rect width="7.312" height="3.715" x="88.734" y="40.031" fill="#32CC86" rx="1.857"
      transform="rotate(20.444 88.734 40.031)" />
  </g>
  <path stroke="#000" stroke-linecap="round" stroke-width=".863"
    d="M22.054 14.866c.038-.175.026-.544-.155-1.406-.416-1.46-.81-2.66-.973-2.973-.046-.014-.014.266.018.554M17.834 17.823c-.155-.125-.31-.249-.59-.447a14.811 14.811 0 0 0-1.332-.836 84.237 84.237 0 0 0-2.485-1.317M19.605 15.995a467.46 467.46 0 0 1-2.028-2.494c-.586-.729-1.015-1.276-1.133-1.4-.118-.123.087.195.298.521" />
  <circle cx="103.581" cy="36.848" r=".887" fill="#000" />
  <path fill="#000"
    d="M103.793 30.76s-.17.29-.21.28c-.06-.02.01-.4.24-1.01.22-.61.68-1.39 1.19-2.27.33-.58.52-1.08.44-1.46-.07-.38-.31-.54-.53-.64a5.44 5.44 0 0 1-1.5-.97 7.642 7.642 0 0 1-1.44-1.76c-.3-.52-.43-.9-.47-.89-.06.02.17.67.14.69-.02.01-.14-.17-.28-.54-.12-.37-.35-.95-.18-1.73.17-.82.9-1.45 1.7-1.87.42-.21.87-.37 1.37-.48.25-.05.51-.09.78-.1.14 0 .28 0 .43.02.14.02.35.06.5.15.42.17.67.57.72.97.06.4 0 .74-.12 1.03-.24.55-.61.67-.47.65-.4.19-.77.18-1.06.15-.27-.04-.39-.09-.51-.12l-.27-.09c-1.14-.41-2.08-1.11-2.73-2.03-.66-.89-.89-2.12-.52-3.03.04-.11.16-.37.28-.58.12-.21.25-.38.23-.39-.03-.02-.26.32-.31.31-.12-.02.25-1.21 1.38-2.17.09-.13.29-.14.49-.01.18.11.33.3.4.48-.8.62-1.35 1.46-1.52 2.27-.18.82.02 1.58.29 2.13.42.89 1.13 1.55 1.69 1.92.57.37.98.47.99.43 0 0-.55-.3-.51-.36.02-.03.29.08.57.14.3.08.41.03.47.02a.3.3 0 0 0 .08-.04c.31-.3.23-.84-.13-.9-.48-.11-1.37-.07-2.38.38-.56.26-1.5.93-1.02 2.2.21.61.65 1.28 1.3 1.92.32.32.69.64 1.12.93.21.14.43.27.67.39.12.06.26.12.44.24.18.1.45.35.58.6.11.2.25.57.2 1-.03.42-.19.82-.37 1.18-.37.72-.86 1.42-1.26 2.25-.69 1.34-.76 2.73-.84 2.73-.08 0-.05-.86-.05-.86s-.03.14-.04.46c0 .31 0 .8.11 1.48-.07.03-.19.08-.3.07-.45-.02-.54-.87-.35-1.67.09-.4.24-.77.37-1.04s.23-.44.22-.44l-.02-.02Z" />
  <defs>
    <clipPath id="empty-theme-a">
      <rect width="60.416" height="70.126" x="44.226" y="19.332" fill="#fff" rx="4.315"
        transform="rotate(20.444 44.226 19.332)" />
    </clipPath>
    <clipPath id="empty-theme-b">
      <path fill="#fff" d="m58.144 38.95 34.064 12.697-6.772 18.166-34.063-12.698z" />
    </clipPath>
  </defs>
</svg>