<svg viewBox="0 0 62 62" fill="none" xmlns="http://www.w3.org/2000/svg">
  <path d="m46.91 23.735.146-13.388-2.337-.028-33.697-.367-.152 13.926-.023 2.338 2.337.024 33.693.366.032-2.87Z"
    fill="#000" />
  <path d="m47.41 9.892-36.032-.39-.176 16.263 36.033.39.176-16.263Z" fill="#AFE47C" />
  <path d="m45.784 11.496-32.91-.356-.144 13.235 32.911.357.143-13.236Z" fill="#32CC86" />
  <path
    d="M13.69 14.2a2.338 2.338 0 1 0 0-4.675 2.338 2.338 0 0 0 0 4.676Zm-.128 11.589a2.337 2.337 0 1 0 0-4.674 2.337 2.337 0 0 0 0 4.674ZM45.05 14.543a2.338 2.338 0 1 0 0-4.676 2.338 2.338 0 0 0 0 4.676Zm-.12 11.055a2.337 2.337 0 1 0 0-4.675 2.337 2.337 0 0 0 0 4.675ZM34.76 18.437a5.527 5.527 0 1 0-11.009-1.003 5.527 5.527 0 0 0 11.01 1.003Z"
    fill="#AFE47C" />
  <path
    d="M34.525 16.474s-.024-.108-.076-.268a3.767 3.767 0 0 0-.231-.565 7.101 7.101 0 0 0-.29-.538 4.171 4.171 0 0 1-.144-.239s.024.025.06.08c.036.052.091.132.159.235.127.211.31.526.474.956.159.426.294.968.29 1.593a5.395 5.395 0 0 1-.406 1.999 5.795 5.795 0 0 1-.995 1.625c-.243.279-.514.53-.809.752-.473.343-.832.581-1.74.852a5.47 5.47 0 0 1-2.485.088 5.281 5.281 0 0 1-1.796-.729c-.915-.593-1.294-1.127-1.334-1.09-.023.015.147.258.343.485.1.107.203.223.286.3.08.078.136.13.132.134 0 0-.064-.048-.167-.143a4.913 4.913 0 0 1-.41-.427 6.031 6.031 0 0 1-.98-1.529 5.32 5.32 0 0 1-.442-2.33c.024-.732.175-1.39.485-2.018.216-.446.538-.912.825-1.238.287-.331.522-.538.505-.558-.015-.02-.214.111-.397.267-.188.15-.359.327-.375.31-.044-.023.772-1.003 1.931-1.44a5.668 5.668 0 0 1 1.625-.388c.458-.043.77-.028.781-.087.008-.032-.108-.1-.399-.163-.286-.064-.752-.128-1.429-.052a5.129 5.129 0 0 0-2.242 1.262c-.992.988-1.274 1.816-1.454 2.31-.183.546-.302 1.246-.274 2.074.031.829.247 1.797.828 2.753.28.48.634.914 1.047 1.286.462.422.868.657 1.072.772a5.867 5.867 0 0 0 3.846.68c.104-.015.184-.035.235-.046.052-.013.08-.025.08-.029 0-.011-.287.036-.573.057-.287.02-.574.01-.574 0 0-.013.163-.009.458-.036.422-.037.839-.121 1.242-.251a5.39 5.39 0 0 0 1.7-.889 5.65 5.65 0 0 0 1.518-1.84 5.69 5.69 0 0 0 .633-2.46 5.065 5.065 0 0 0-.048-.825c-.023-.199-.047-.306-.04-.306.017-.004.072.227.116.462.032.239.052.477.052.477s.011-.091 0-.255a4.255 4.255 0 0 0-.096-.672c-.115-.55-.406-1.239-.824-1.828a6.097 6.097 0 0 0-1.366-1.398c-.43-.315-.748-.462-.764-.438-.032.048.848.637 1.47 1.47.318.406.576.856.732 1.206.079.175.135.327.175.43.04.104.056.168.06.168v-.008Z"
    fill="#000" />
  <path
    d="M29.608 15.118a.287.287 0 0 0 .096-.03.226.226 0 0 1 .089-.029h.06a.244.244 0 0 0 .063-.01c.02-.005.046.002.076.017.032.019.053.027.063.025a.287.287 0 0 1 .084.031.026.026 0 0 0 .002.02c.021.016.037.022.048.02a.058.058 0 0 1 .04.005c.034.02.042.051.025.092-.017.043-.019.075-.007.098a.143.143 0 0 1-.034.104c-.034.048-.058.073-.074.076a.102.102 0 0 0-.04.024.26.26 0 0 1-.124.025.235.235 0 0 0-.12.03.134.134 0 0 0-.09.028c-.032.022-.059.024-.082.007a.475.475 0 0 1-.153.095 2.256 2.256 0 0 0-.553.357.297.297 0 0 0-.074.103.475.475 0 0 1-.025.06l-.031.068a.556.556 0 0 1-.034.06c-.005.055-.008.11-.008.164a.973.973 0 0 0 .01.172c.01.03.026.057.046.08a.217.217 0 0 0 .082.072.32.32 0 0 0 .102.104l.123.076a1.45 1.45 0 0 1 .21.097c.045.028.09.045.134.048.025.01.05.022.072.033.024.01.047.022.068.035a.37.37 0 0 0 .14.05.806.806 0 0 0 .103.06.394.394 0 0 1 .102.079c.05.032.115.058.193.08a.32.32 0 0 1 .176.131c.013.016.028.033.042.052l.048.045a.32.32 0 0 1 .077.12c.02.083.04.147.062.194a.82.82 0 0 1 .05.173l.01.056c.005.015.009.03.01.046.006.017.01.034.013.051.009.062.022.123.04.183a.192.192 0 0 1-.008.124.45.45 0 0 1-.003.054.44.44 0 0 1-.004.054.886.886 0 0 0-.005.059.823.823 0 0 0-.005.058c-.01.08-.028.157-.05.229a.929.929 0 0 1-.104.221c-.05.08-.107.155-.17.224l-.096.1-.05.053-.052.051-.053.066a.206.206 0 0 1-.077.052.522.522 0 0 1-.113.075l-.064.032-.058.021a.76.76 0 0 1-.011.17 1.448 1.448 0 0 0-.014.162.155.155 0 0 0-.044.109.438.438 0 0 1-.016.113l-.021.165a.814.814 0 0 1-.031.128c.006.037 0 .065-.019.083-.02.019-.047.02-.083.003a.694.694 0 0 1-.095-.077.246.246 0 0 1-.07-.099c-.009-.1-.011-.199-.006-.299.005-.08.004-.15-.004-.206a.255.255 0 0 1 0-.086c.005-.014.002-.033-.01-.056a.835.835 0 0 1-.717-.208.273.273 0 0 1-.098-.062.181.181 0 0 0-.096-.056c-.015-.023-.03-.038-.046-.04a.21.21 0 0 1-.053-.04c-.065.008-.113-.02-.143-.082-.012-.058-.026-.095-.043-.113a.081.081 0 0 1-.026-.06.268.268 0 0 0 .053-.126.418.418 0 0 1 .019-.11.157.157 0 0 1-.03-.079.097.097 0 0 1 .073-.033l.08-.002c.15.05.27.108.36.177.09.067.195.107.316.122.028.022.06.035.095.037a.52.52 0 0 1 .106.025c.02.007.044.014.07.02a.11.11 0 0 0 .08-.01l.048.011a.249.249 0 0 0 .053-.006.128.128 0 0 1 .051 0c.017 0 .034.003.05.006a.811.811 0 0 0 .28-.228.65.65 0 0 0 .102-.121.814.814 0 0 0 .02-.08.27.27 0 0 1 .025-.073c.025-.075.049-.153.073-.23.024-.08.038-.16.042-.243a.756.756 0 0 0-.138-.384 3.735 3.735 0 0 0-.267-.353 2.518 2.518 0 0 0-.118-.031l-.116-.029a.841.841 0 0 1-.23-.086.666.666 0 0 1-.09-.024 2.377 2.377 0 0 1-.317-.107.845.845 0 0 0-.126-.032.202.202 0 0 1-.113-.055.262.262 0 0 1-.058-.066.259.259 0 0 0-.058-.066 3.231 3.231 0 0 1-.083-.108.428.428 0 0 1-.06-.113.524.524 0 0 1-.041-.109.292.292 0 0 0-.058-.109.387.387 0 0 1-.067-.239c.008-.082.014-.158.016-.228l.007-.072.002-.075c0-.048.01-.095.028-.14a.094.094 0 0 0 .031-.05.22.22 0 0 1 .02-.054c.023-.01.036-.024.037-.04 0-.014.013-.027.036-.04a.956.956 0 0 1 .096-.125.325.325 0 0 0 .057-.082l.046-.036a.093.093 0 0 0 .029-.036.095.095 0 0 0 .048-.024l.034-.035a.472.472 0 0 1 .102-.07l.116-.058a1.4 1.4 0 0 0 .123-.088.681.681 0 0 1 .134-.084 2.233 2.233 0 0 0-.014-.296.955.955 0 0 1 .01-.282.13.13 0 0 1-.001-.081.279.279 0 0 0 .005-.085c-.001-.066.009-.114.03-.146.003-.053.016-.08.04-.084a.48.48 0 0 1 .07-.005.232.232 0 0 1 .12.08c.036.044.07.085.102.128.041.067.064.13.066.186.001.054 0 .111-.005.172a.557.557 0 0 0 .037.205Z"
    fill="#000" />
  <path
    d="M17.974 17.68a.53.53 0 1 0 0-1.058.53.53 0 0 0 0 1.059Zm.889 2.477a.279.279 0 1 0 0-.557.279.279 0 0 0 0 .557Z"
    fill="#AFE47C" />
  <path
    d="m52.796 34.324-7.06-13.893a1.962 1.962 0 0 0-2.644-.861L15.355 33.655a1.79 1.79 0 0 0-.31.2c-.008.003-.016.011-.024.016-.338.272-.575.649-.676 1.07-.117.456-.065.938.146 1.359l7.06 13.893a1.962 1.962 0 0 0 2.641.86L51.928 36.96a1.965 1.965 0 0 0 .86-2.644l.008.008Z"
    fill="#000" />
  <path
    d="m42.948 20.119-27.74 14.09a1.963 1.963 0 0 0-.86 2.64l7.06 13.9a1.963 1.963 0 0 0 2.64.861l27.739-14.09a1.962 1.962 0 0 0 .861-2.64l-7.061-13.9a1.963 1.963 0 0 0-2.64-.861Z"
    fill="#32CC86" />
  <path
    d="m47.645 25.02-2.055-4.042a1.962 1.962 0 0 0-2.644-.86L15.21 34.207a1.959 1.959 0 0 0-.86 2.64l2.055 4.041 31.24-15.872v.004Z"
    fill="#AFE47C" />
  <path d="M42.5 39.307a2.652 2.652 0 1 0 0-5.304 2.652 2.652 0 0 0 0 5.304Z" fill="#fff" />
  <path
    d="M46.398 37.324a2.652 2.652 0 1 0 0-5.304 2.652 2.652 0 0 0 0 5.304ZM28.505 44.57 23.718 47a.825.825 0 0 0 .747 1.47l4.785-2.43a.825.825 0 0 0-.746-1.47Zm7.6-3.86-4.786 2.43a.826.826 0 0 0 .437 1.557.824.824 0 0 0 .31-.087l4.785-2.43a.825.825 0 0 0-.746-1.47Z"
    fill="#AFE47C" />
  <path
    d="M12.831 32.988c0-.093-.047-.28-.233-.701-.373-.7-.705-1.27-.823-1.412-.025-.002.022.138.07.281m-.846 3.805a5.515 5.515 0 0 0-.35-.164 7.728 7.728 0 0 0-.772-.281c-.47-.142-.94-.275-1.414-.4m3.24-.282c-.465-.372-.93-.744-1.308-1.053-.38-.307-.659-.54-.733-.59-.073-.05.066.09.21.233"
    stroke="#000" stroke-width=".319" stroke-linecap="round" />
  <path
    d="M23.542 32.94c-1.42.783-2.84 1.565-4.01 2.198-1.167.632-2.039 1.09-2.245 1.225m3.07-.31c-.615.308-1.23.617-1.737.867-.507.25-.889.431-.974.484"
    stroke="#000" stroke-width=".279" stroke-linecap="round" />
  <path
    d="M51.77 23.566a.5.5 0 1 0 0-1 .5.5 0 0 0 0 1ZM51.89 19.637s-.096.163-.119.157c-.034-.01.006-.225.135-.569.124-.344.384-.783.671-1.28.186-.326.293-.608.248-.822-.04-.214-.175-.305-.299-.36a3.064 3.064 0 0 1-.845-.548 4.31 4.31 0 0 1-.812-.992c-.169-.293-.242-.507-.265-.501-.033.011.096.377.08.389-.012.005-.08-.096-.158-.305-.068-.208-.198-.535-.102-.975.096-.462.507-.817.958-1.054.237-.118.49-.208.772-.27.141-.028.288-.051.44-.057.079 0 .158 0 .242.012a.802.802 0 0 1 .282.084.677.677 0 0 1 .406.547c.034.225 0 .417-.068.58-.135.31-.343.378-.265.367a1.075 1.075 0 0 1-.597.084c-.152-.022-.22-.05-.287-.067l-.153-.051a3.172 3.172 0 0 1-1.538-1.144c-.372-.502-.502-1.195-.293-1.708.022-.062.09-.209.157-.327.068-.118.141-.214.13-.22-.017-.011-.146.18-.175.175-.067-.011.141-.682.778-1.223.05-.073.164-.08.276-.006a.58.58 0 0 1 .226.27c-.451.35-.761.824-.857 1.28-.101.462.011.89.164 1.2.236.502.636.874.952 1.083.321.209.552.265.558.242 0 0-.31-.169-.287-.203.01-.017.163.045.32.08.17.044.232.016.266.01a.172.172 0 0 0 .045-.022c.175-.17.13-.473-.073-.507-.27-.062-.773-.04-1.342.214-.316.147-.845.524-.575 1.24.119.344.367.721.733 1.082.18.18.389.36.631.524.119.08.243.152.378.22.068.034.146.068.248.135a.944.944 0 0 1 .327.339.97.97 0 0 1 .112.563 1.802 1.802 0 0 1-.208.665c-.209.406-.485.8-.71 1.268-.39.756-.429 1.54-.474 1.54-.045 0-.028-.485-.028-.485s-.017.078-.022.259c0 .174 0 .45.062.834a.375.375 0 0 1-.17.04c-.253-.012-.304-.491-.197-.942.051-.225.136-.434.209-.586.073-.152.13-.248.124-.248l-.012-.011Z"
    fill="#000" />
</svg>