<svg width="394" height="395" fill="none" xmlns="http://www.w3.org/2000/svg">
  <path fill="#fff" d="M.166.666h393.668v393.668H.166z" />
  <path
    d="M271.822 309.808c1.93-21.155 20.645-36.74 41.801-34.811 21.157 1.929 36.745 20.641 34.816 41.796-1.929 21.155-20.645 36.74-41.802 34.811-21.157-1.929-36.744-20.642-34.815-41.796Z"
    fill="#52D283" stroke="#406951" stroke-width=".963" />
  <g style="mix-blend-mode:soft-light">
    <mask id="a" style="mask-type:alpha" maskUnits="userSpaceOnUse" x="272" y="275" width="77" height="77">
      <path
        d="M347.959 316.728c1.905-20.89-13.487-39.368-34.379-41.273-20.892-1.905-39.373 13.485-41.278 34.375-1.905 20.89 13.487 39.368 34.379 41.273 20.893 1.905 39.373-13.485 41.278-34.375Z"
        fill="#71D881" />
    </mask>
    <g mask="url(#a)" fill="#fff" fill-opacity=".5">
      <path
        d="m263.534 315.02 54.533-44.692 3.743 4.566-54.533 44.692zM266.078 324.137l63.874-52.347 9.488 11.575-63.874 52.347z" />
    </g>
  </g>
  <g filter="url(#b)">
    <path
      d="M339.652 315.988c1.487-16.302-10.525-30.723-26.83-32.209-16.304-1.487-30.726 10.524-32.213 26.826-1.487 16.302 10.525 30.723 26.83 32.21 16.304 1.486 30.726-10.525 32.213-26.827Z"
      fill="#AFE47C" />
  </g>
  <path
    d="M303.798 301.235a1.53 1.53 0 0 0 .343-.408c.106-.173.213-.298.322-.373l.269-.167c.077-.048.162-.122.255-.224.08-.078.211-.124.394-.137.196-.006.313-.029.352-.068.305-.081.46-.113.464-.094a.14.14 0 0 0 .066.089c.139.007.229-.01.268-.049a.312.312 0 0 1 .199-.091c.207.001.328.116.365.346.047.236.129.39.245.462.125.189.171.376.137.563-.013.31-.052.492-.117.547a.549.549 0 0 0-.109.219 1.366 1.366 0 0 1-.493.458 1.248 1.248 0 0 0-.458.479.719.719 0 0 0-.322.373c-.082.188-.198.275-.349.261-.057.251-.198.537-.425.858a12.25 12.25 0 0 0-.515.849c-.271.5-.473.924-.604 1.272s-.254.694-.366 1.038c-.066.293-.081.514-.045.664.023.094.041.209.055.344l.05.39c.012.086.017.209.016.368.116.23.256.485.422.763.167.278.344.523.534.737.079.08.221.161.427.241.207.08.396.11.568.09.246.12.496.18.752.18l.766-.002c.272-.054.509-.09.711-.108.209-.029.377-.044.505-.044.286.002.533-.051.743-.16.141-.023.28-.041.414-.053.142-.023.277-.035.404-.035.256-.001.513-.056.771-.166.2.012.41.007.63-.015.203-.018.429.004.679.064.316.005.68-.056 1.091-.182.368-.107.754-.074 1.16.099.107.034.219.072.337.114l.341.068c.228.046.456.156.685.33.322.311.595.544.82.699.236.163.474.374.715.635l.201.22c.062.055.121.115.177.181.062.055.127.119.194.193.056.066.117.136.184.209.079.081.163.165.253.253.079.08.163.165.253.252.181.176.287.369.319.58.048.078.093.161.135.251.048.077.093.161.134.25.042.09.089.183.142.279.042.09.089.183.142.279.175.395.314.784.417 1.166.103.382.153.811.152 1.287a8.296 8.296 0 0 1-.038.812 9.076 9.076 0 0 1-.101.677l-.149.719-.085.377-.085.377-.054.444c-.024.144-.09.294-.2.448a2.736 2.736 0 0 1-.299.65l-.199.33-.203.255c.184.274.327.538.428.792a7.6 7.6 0 0 0 .394.769.821.821 0 0 0 .106.615c.122.219.202.403.238.553.157.32.281.588.373.804.092.217.166.437.221.662.134.147.183.289.148.426-.036.137-.158.221-.367.25a3.739 3.739 0 0 1-.64-.087c-.27-.056-.467-.139-.592-.248-.411-.557-.701-1-.869-1.327a5.278 5.278 0 0 0-.592-.916c-.143-.185-.224-.314-.242-.389-.018-.075-.085-.149-.201-.22-1.049.94-2.318 1.298-3.808 1.073a1.44 1.44 0 0 1-.62-.003c-.239-.053-.434-.047-.585.019-.135-.068-.243-.087-.324-.058-.056.013-.171.005-.345-.023-.272.213-.565.222-.878.028-.212-.228-.381-.356-.507-.386-.137-.038-.232-.105-.285-.201.013-.31-.025-.549-.115-.716a2.241 2.241 0 0 1-.221-.543.835.835 0 0 1-.361-.272.514.514 0 0 1 .238-.353l.356-.233c.807-.199 1.512-.271 2.115-.214a3.399 3.399 0 0 0 1.761-.34.88.88 0 0 0 .536-.096c.159-.077.34-.139.545-.187.111-.027.235-.061.373-.103a.59.59 0 0 0 .332-.271l.244-.087c.077-.048.151-.105.223-.172a.686.686 0 0 1 .231-.143c.077-.048.156-.086.237-.116.196-.323.339-.624.429-.903.089-.279.153-.581.191-.907.08-.316.121-.594.122-.832a4.206 4.206 0 0 0-.131-.415 1.411 1.411 0 0 1-.096-.394 63.747 63.747 0 0 0-.319-1.248 5.354 5.354 0 0 0-.487-1.208c-.392-.562-.958-1.009-1.698-1.341a20.107 20.107 0 0 0-2.194-.837c-.212.06-.418.123-.617.19l-.6.201a4.508 4.508 0 0 1-1.28.256 3.396 3.396 0 0 1-.467.139c-.274.085-.551.159-.83.225-.279.066-.579.126-.899.182a4.515 4.515 0 0 0-.656.213 1.065 1.065 0 0 1-.662.067 1.39 1.39 0 0 1-.445-.134 1.421 1.421 0 0 0-.446-.133 16.017 16.017 0 0 1-.681-.256 2.254 2.254 0 0 1-.584-.338 2.79 2.79 0 0 1-.49-.376 1.545 1.545 0 0 0-.566-.327c-.445-.213-.768-.509-.969-.888-.193-.39-.383-.747-.57-1.07l-.173-.346a9.012 9.012 0 0 0-.201-.339 2.035 2.035 0 0 1-.262-.711.497.497 0 0 0-.002-.312 1.184 1.184 0 0 1-.058-.299c.07-.115.087-.208.05-.279-.037-.071-.02-.164.05-.279.013-.39.038-.668.076-.836.038-.167.049-.343.033-.528l.106-.292a.492.492 0 0 0 .029-.245.502.502 0 0 0 .147-.243l.057-.251c.059-.202.148-.401.267-.598l.357-.589c.117-.246.219-.493.306-.741.073-.226.194-.477.362-.754a11.667 11.667 0 0 0-.89-1.293 5.024 5.024 0 0 1-.744-1.297.689.689 0 0 1-.235-.36 1.48 1.48 0 0 0-.215-.396c-.189-.292-.279-.539-.269-.74-.138-.245-.158-.408-.06-.491.097-.082.197-.155.3-.219a1.22 1.22 0 0 1 .773.026c.278.094.547.189.807.286.38.189.654.407.823.654.157.241.309.502.457.785.143.264.391.537.745.821Z"
    fill="#406951" />
  <path
    d="M63.44 64.518c1.239-13.59 13.261-23.604 26.852-22.365 13.591 1.24 23.604 13.262 22.365 26.853-1.239 13.591-13.261 23.604-26.853 22.365-13.59-1.24-23.604-13.262-22.364-26.853Z"
    fill="#52D283" stroke="#406951" stroke-width=".963" />
  <g style="mix-blend-mode:soft-light">
    <mask id="c" style="mask-type:alpha" maskUnits="userSpaceOnUse" x="63" y="42" width="50" height="49">
      <path
        d="M112.179 68.955c1.215-13.327-8.603-25.115-21.93-26.33-13.326-1.215-25.114 8.603-26.33 21.93-1.214 13.325 8.604 25.114 21.93 26.329 13.326 1.215 25.115-8.603 26.33-21.93Z"
        fill="#71D881" />
    </mask>
    <g mask="url(#c)" fill="#fff" fill-opacity=".5">
      <path
        d="m58.326 67.856 34.784-28.51 2.387 2.912-34.783 28.51zM59.95 73.68l40.742-33.395 6.053 7.385-40.743 33.394z" />
    </g>
  </g>
  <g filter="url(#d)">
    <path
      d="M106.878 68.47c.949-10.4-6.713-19.599-17.113-20.547-10.4-.948-19.6 6.714-20.548 17.114-.948 10.4 6.714 19.599 17.114 20.547 10.4.948 19.599-6.713 20.547-17.113Z"
      fill="#AFE47C" />
  </g>
  <path
    d="M98.69 60.02c-.734-1.845-3.19-2.6-5.487-1.686.778 2.738 1.357 4.195 2.658 6.68 2.296-.914 3.563-3.15 2.83-4.995ZM81.599 66.214a1.436 1.436 0 0 1 2.713-.94l3.88 11.184a1.436 1.436 0 0 1-2.712.942l-3.881-11.186ZM77.28 69.168c.324.902 1.496 1.306 2.618.902-.33-1.332-.586-2.044-1.173-3.264-1.122.403-1.77 1.461-1.445 2.362Z"
    fill="#406951" />
  <path
    d="M79.031 69.611c1.06 1.527 2.89 1.692 3.141 1.713 1.372.104 2.13-.527 3.466-1.107 3.942-1.71 7.966-.805 9.22-.52.436.098.964.237 1.563.442.93.319 1.969-.61 1.607-1.524-.417-1.053-.834-2.016-2.849-6.834-1.651-4.232-1.961-5.104-2.324-5.976-.383-.922-1.962-.868-2.495-.023-.372.588-.732 1.078-.962 1.45-.532.861-2.933 4.751-7.191 5.997-1.263.368-1.848.26-2.566.917-1.268 1.156-1.847 3.683-.61 5.465Z"
    fill="#406951" />
  <path
    d="M34.128 278.044c1.681-18.432 17.985-32.012 36.417-30.331 18.431 1.681 32.01 17.985 30.33 36.417-1.68 18.432-17.985 32.012-36.416 30.331-18.432-1.68-32.011-17.985-30.33-36.417Z"
    fill="#52D283" stroke="#406951" stroke-width=".963" />
  <g style="mix-blend-mode:soft-light">
    <mask id="e" style="mask-type:alpha" maskUnits="userSpaceOnUse" x="34" y="248" width="67" height="67">
      <path
        d="M100.396 284.079c1.657-18.167-11.727-34.238-29.894-35.894-18.167-1.657-34.237 11.728-35.893 29.895-1.657 18.167 11.727 34.238 29.894 35.894 18.167 1.657 34.237-11.728 35.893-29.895Z"
        fill="#71D881" />
    </mask>
    <g mask="url(#e)" fill="#fff" fill-opacity=".5">
      <path
        d="m26.98 282.59 47.418-38.867 3.255 3.971-47.418 38.867zM29.195 290.518l55.542-45.525 8.25 10.067-55.54 45.525z" />
    </g>
  </g>
  <g filter="url(#f)">
    <path
      d="M93.17 283.407c1.292-14.178-9.153-26.719-23.33-28.012-14.177-1.292-26.718 9.153-28.011 23.331-1.293 14.177 9.152 26.718 23.33 28.011 14.177 1.293 26.718-9.152 28.01-23.33Z"
      fill="#AFE47C" />
  </g>
  <path
    d="M70.33 293.316c5.413-.963 6.045-1.179 7.437-3.234 1.38-2.036 1.036-4.403.96-4.933-.662-4.574-5.428-7.61-5.643-7.741-1.731-1.074-3.685-1.682-4.151-3.45-.076-.278-.24-.904-.031-1.615.418-1.443 1.884-1.617 1.996-2.771.06-.64-.317-1.368-.861-1.567-.685-.252-1.738.288-2.293 1.499-.088-.08-.9-.801-2.049-.583-1.154.218-1.648 1.205-1.696 1.305-1.154-.985-2.426-1.137-3.007-.612-.308.276-.466.783-.368 1.234.215.987 1.495.968 2.466 2.216.546.698.729 1.456.781 1.799.272 1.824-1.51 3.01-3.044 5.125-.654.902-3.377 4.654-2.513 8.406.716 3.122 3.567 4.714 3.836 4.857 2.267 1.221 2.614 1.055 8.18.065Z"
    fill="#406951" />
  <path
    d="M279.982 74.085c1.429-15.672 15.294-27.218 30.968-25.79 15.674 1.43 27.221 15.293 25.792 30.965-1.429 15.671-15.294 27.218-30.968 25.789-15.674-1.43-27.222-15.293-25.792-30.964Z"
    fill="#52D283" stroke="#406951" stroke-width=".963" />
  <g style="mix-blend-mode:soft-light">
    <mask id="g" style="mask-type:alpha" maskUnits="userSpaceOnUse" x="280" y="48" width="57" height="57">
      <path
        d="M336.263 79.208c1.405-15.407-9.947-29.035-25.357-30.44-15.409-1.405-29.04 9.946-30.445 25.353-1.405 15.407 9.948 29.035 25.357 30.44 15.409 1.405 29.04-9.946 30.445-25.353Z"
        fill="#71D881" />
    </mask>
    <g mask="url(#g)" fill="#fff" fill-opacity=".5">
      <path
        d="m273.995 77.947 40.221-32.961 2.761 3.368-40.221 32.961zM275.874 84.656l47.111-38.608 6.998 8.537-47.11 38.608z" />
    </g>
  </g>
  <g filter="url(#h)">
    <path
      d="M330.138 78.655c1.096-12.024-7.763-22.66-19.789-23.756-12.025-1.096-22.663 7.762-23.759 19.785-1.097 12.024 7.763 22.66 19.788 23.756 12.026 1.097 22.663-7.762 23.76-19.785Z"
      fill="#AFE47C" />
  </g>
  <path
    d="M306.55 64.86c.222-.911 1.48-1.006 1.836-.138l2.672 6.503c.159.388.55.63.968.598l7.013-.53c.936-.07 1.415 1.098.699 1.705l-5.361 4.546a.97.97 0 0 0-.27 1.107l2.671 6.501c.356.868-.606 1.685-1.404 1.192l-5.986-3.692a.969.969 0 0 0-1.135.085l-5.364 4.549c-.715.606-1.789-.057-1.567-.968l1.664-6.828a.969.969 0 0 0-.432-1.054l-5.984-3.69c-.799-.493-.5-1.72.435-1.79l7.013-.53a.968.968 0 0 0 .868-.736l1.664-6.83Z"
    fill="#406951" />
  <path
    d="M123.352 126.074c0-.057-.015-.257-.151-.713-.131-.441-.362-1.071-.746-1.975a123.83 123.83 0 0 0-2.152-4.026c-.093-.167-.188-.322-.273-.47a.997.997 0 0 1-.884-.693c-.098-.31-.207-.655-.276-.92a2.809 2.809 0 0 1-.086-.438 1.207 1.207 0 0 1 .033-.432 1.02 1.02 0 0 1 1.091-.758l.417.043.261.324c.319.395.848 1.272 1.461 2.362.316.561.665 1.201 1.036 1.896l1.17 2.233.017.032.014.032c.408.957.671 1.673.833 2.218.159.533.24.959.234 1.315a1 1 0 0 1-1.999-.03ZM102.391 136.038l3.379.987c1.07.318 2.061.619 2.9.896 1.692.559 2.749 1.002 3.501 1.338.75.335 1.18.558 1.596.774a1.002 1.002 0 0 1-.734 1.85l-.187-.076-.635-.323a26.275 26.275 0 0 0-.856-.401c-.695-.311-1.69-.726-3.312-1.262-.818-.27-1.786-.567-2.841-.881l-3.368-.981-.187-.076a1.001 1.001 0 0 1 .544-1.882l.2.037ZM101.656 119.399c.159.039.28.113.313.132.056.032.111.067.157.1.328.229 1.044.822 1.985 1.613.97.814 2.208 1.865 3.653 3.076 2.881 2.413 6.417 5.329 9.956 8.25a1 1 0 0 1-1.274 1.543 1860.18 1860.18 0 0 1-9.965-8.262c-1.177-.986-2.237-1.88-3.106-2.611a.997.997 0 0 1-.955-.271 72.75 72.75 0 0 1-1.435-1.504 7.835 7.835 0 0 1-.233-.268 2.058 2.058 0 0 1-.211-.289 1.145 1.145 0 0 1-.078-.167c-.019-.052-.085-.232-.061-.467a1 1 0 0 1 .66-.845c.288-.104.532-.045.594-.03Z"
    fill="#52D283" />
  <g filter="url(#i)">
    <path
      d="M274.852 193.011c4.04-44.304-28.601-83.495-72.905-87.535-44.304-4.04-83.495 28.601-87.535 72.906-4.039 44.304 28.601 83.494 72.906 87.534 44.304 4.04 83.495-28.601 87.534-72.905Z"
      fill="#52D283" />
    <path
      d="M113.213 178.272c4.1-44.966 43.877-78.095 88.843-73.995 44.967 4.1 78.096 43.877 73.995 88.843-4.1 44.967-43.876 78.096-88.843 73.995-44.966-4.1-78.095-43.876-73.995-88.843Z"
      stroke="#406951" stroke-width="2.408" />
  </g>
  <g style="mix-blend-mode:soft-light">
    <mask id="j" style="mask-type:alpha" maskUnits="userSpaceOnUse" x="114" y="105" width="162" height="162">
      <path
        d="M274.851 193.007c4.04-44.304-28.601-83.495-72.905-87.535-44.304-4.04-83.495 28.601-87.535 72.906-4.039 44.304 28.601 83.495 72.906 87.534 44.304 4.04 83.495-28.601 87.534-72.905Z"
        fill="#71D881" />
    </mask>
    <g mask="url(#j)" fill="#fff" fill-opacity=".5">
      <path
        d="m95.814 189.367 115.642-94.785 7.938 9.684-115.642 94.786zM101.215 208.674 236.667 97.652 256.79 122.2 121.337 233.223z" />
    </g>
  </g>
  <g filter="url(#k)">
    <path
      d="M257.238 191.389c3.153-34.575-22.32-65.159-56.895-68.312-34.575-3.153-65.16 22.32-68.312 56.895-3.153 34.576 22.32 65.16 56.895 68.313 34.575 3.152 65.159-22.321 68.312-56.896Z"
      fill="#AFE47C" />
  </g>
  <path
    d="M178.134 162.693c11.568-2.918 11.972 10.798 15.905 17.509 1.73 1.271-.772-1.406 5.784-17.509 9.934-17.062 15.906 1.459 15.906 10.214 0 14.664-17.346 46.697-24.581 42.313-7.23-4.377-26.305-49.174-13.014-52.527Z"
    fill="#52D283" />
  <path
    d="m247.67 107.984 4.273-.873-4.273-.872-.872-4.272-.872 4.272-4.273.872 4.273.873.872 4.272.872-4.272ZM262.133 104.24l7.92-1.617-7.92-1.617-1.617-7.92-1.616 7.92-7.921 1.617 7.921 1.617 1.616 7.92 1.617-7.92Z"
    fill="#fff" />
  <path d="M243.405 172.282c1.375-.352 2.932-.711 7.077-.792a7.83 7.83 0 0 1 2.482.662" stroke="#fff"
    stroke-width="1.806" stroke-linecap="round" />
  <path d="M248.204 167.445c.327 1.388.209 4.634.216 8.775" stroke="#fff" stroke-width="1.806" stroke-linecap="round" />
  <path d="M248.269 159.529c2.228-.716 4.754-1.462 11.549-2.011 1.878.094 2.998.429 4.123.841" stroke="#fff"
    stroke-width="2.408" stroke-linecap="round" />
  <path d="M255.765 151.069c.647 2.249.711 7.598 1.049 14.406" stroke="#fff" stroke-width="2.408"
    stroke-linecap="round" />
  <defs>
    <filter id="b" x="280.484" y="283.654" width="59.292" height="59.285" filterUnits="userSpaceOnUse"
      color-interpolation-filters="sRGB">
      <feFlood flood-opacity="0" result="BackgroundImageFix" />
      <feBlend in="SourceGraphic" in2="BackgroundImageFix" result="shape" />
      <feColorMatrix in="SourceAlpha" values="0 0 0 0 0 0 0 0 0 0 0 0 0 0 0 0 0 0 127 0" result="hardAlpha" />
      <feOffset dx="3.643" dy="3.643" />
      <feComposite in2="hardAlpha" operator="arithmetic" k2="-1" k3="1" />
      <feColorMatrix values="0 0 0 0 1 0 0 0 0 1 0 0 0 0 1 0 0 0 0.5 0" />
      <feBlend mode="soft-light" in2="shape" result="effect1_innerShadow_7893_82131" />
      <feColorMatrix in="SourceAlpha" values="0 0 0 0 0 0 0 0 0 0 0 0 0 0 0 0 0 0 127 0" result="hardAlpha" />
      <feOffset dx=".993" dy="1.656" />
      <feComposite in2="hardAlpha" operator="arithmetic" k2="-1" k3="1" />
      <feColorMatrix values="0 0 0 0 0.239216 0 0 0 0 0.396078 0 0 0 0 0.309804 0 0 0 1 0" />
      <feBlend in2="effect1_innerShadow_7893_82131" result="effect2_innerShadow_7893_82131" />
    </filter>
    <filter id="d" x="69.138" y="47.844" width="37.82" height="37.82" filterUnits="userSpaceOnUse"
      color-interpolation-filters="sRGB">
      <feFlood flood-opacity="0" result="BackgroundImageFix" />
      <feBlend in="SourceGraphic" in2="BackgroundImageFix" result="shape" />
      <feColorMatrix in="SourceAlpha" values="0 0 0 0 0 0 0 0 0 0 0 0 0 0 0 0 0 0 127 0" result="hardAlpha" />
      <feOffset dx="3.643" dy="3.643" />
      <feComposite in2="hardAlpha" operator="arithmetic" k2="-1" k3="1" />
      <feColorMatrix values="0 0 0 0 1 0 0 0 0 1 0 0 0 0 1 0 0 0 0.5 0" />
      <feBlend mode="soft-light" in2="shape" result="effect1_innerShadow_7893_82131" />
      <feColorMatrix in="SourceAlpha" values="0 0 0 0 0 0 0 0 0 0 0 0 0 0 0 0 0 0 127 0" result="hardAlpha" />
      <feOffset dx=".993" dy="1.656" />
      <feComposite in2="hardAlpha" operator="arithmetic" k2="-1" k3="1" />
      <feColorMatrix values="0 0 0 0 0.239216 0 0 0 0 0.396078 0 0 0 0 0.309804 0 0 0 1 0" />
      <feBlend in2="effect1_innerShadow_7893_82131" result="effect2_innerShadow_7893_82131" />
    </filter>
    <filter id="f" x="41.721" y="255.287" width="51.557" height="51.559" filterUnits="userSpaceOnUse"
      color-interpolation-filters="sRGB">
      <feFlood flood-opacity="0" result="BackgroundImageFix" />
      <feBlend in="SourceGraphic" in2="BackgroundImageFix" result="shape" />
      <feColorMatrix in="SourceAlpha" values="0 0 0 0 0 0 0 0 0 0 0 0 0 0 0 0 0 0 127 0" result="hardAlpha" />
      <feOffset dx="3.643" dy="3.643" />
      <feComposite in2="hardAlpha" operator="arithmetic" k2="-1" k3="1" />
      <feColorMatrix values="0 0 0 0 1 0 0 0 0 1 0 0 0 0 1 0 0 0 0.5 0" />
      <feBlend mode="soft-light" in2="shape" result="effect1_innerShadow_7893_82131" />
      <feColorMatrix in="SourceAlpha" values="0 0 0 0 0 0 0 0 0 0 0 0 0 0 0 0 0 0 127 0" result="hardAlpha" />
      <feOffset dx=".993" dy="1.656" />
      <feComposite in2="hardAlpha" operator="arithmetic" k2="-1" k3="1" />
      <feColorMatrix values="0 0 0 0 0.239216 0 0 0 0 0.396078 0 0 0 0 0.309804 0 0 0 1 0" />
      <feBlend in2="effect1_innerShadow_7893_82131" result="effect2_innerShadow_7893_82131" />
    </filter>
    <filter id="h" x="286.498" y="54.807" width="43.731" height="43.725" filterUnits="userSpaceOnUse"
      color-interpolation-filters="sRGB">
      <feFlood flood-opacity="0" result="BackgroundImageFix" />
      <feBlend in="SourceGraphic" in2="BackgroundImageFix" result="shape" />
      <feColorMatrix in="SourceAlpha" values="0 0 0 0 0 0 0 0 0 0 0 0 0 0 0 0 0 0 127 0" result="hardAlpha" />
      <feOffset dx="3.643" dy="3.643" />
      <feComposite in2="hardAlpha" operator="arithmetic" k2="-1" k3="1" />
      <feColorMatrix values="0 0 0 0 1 0 0 0 0 1 0 0 0 0 1 0 0 0 0.5 0" />
      <feBlend mode="soft-light" in2="shape" result="effect1_innerShadow_7893_82131" />
      <feColorMatrix in="SourceAlpha" values="0 0 0 0 0 0 0 0 0 0 0 0 0 0 0 0 0 0 127 0" result="hardAlpha" />
      <feOffset dx=".993" dy="1.656" />
      <feComposite in2="hardAlpha" operator="arithmetic" k2="-1" k3="1" />
      <feColorMatrix values="0 0 0 0 0.239216 0 0 0 0 0.396078 0 0 0 0 0.309804 0 0 0 1 0" />
      <feBlend in2="effect1_innerShadow_7893_82131" result="effect2_innerShadow_7893_82131" />
    </filter>
    <filter id="i" x="111.666" y="102.73" width="165.933" height="175.563" filterUnits="userSpaceOnUse"
      color-interpolation-filters="sRGB">
      <feFlood flood-opacity="0" result="BackgroundImageFix" />
      <feColorMatrix in="SourceAlpha" values="0 0 0 0 0 0 0 0 0 0 0 0 0 0 0 0 0 0 127 0" result="hardAlpha" />
      <feOffset dy="9.631" />
      <feComposite in2="hardAlpha" operator="out" />
      <feColorMatrix values="0 0 0 0 0.25098 0 0 0 0 0.411765 0 0 0 0 0.317647 0 0 0 1 0" />
      <feBlend in2="BackgroundImageFix" result="effect1_dropShadow_7893_82131" />
      <feBlend in="SourceGraphic" in2="effect1_dropShadow_7893_82131" result="shape" />
    </filter>
    <filter id="k" x="131.767" y="122.812" width="125.735" height="125.736" filterUnits="userSpaceOnUse"
      color-interpolation-filters="sRGB">
      <feFlood flood-opacity="0" result="BackgroundImageFix" />
      <feBlend in="SourceGraphic" in2="BackgroundImageFix" result="shape" />
      <feColorMatrix in="SourceAlpha" values="0 0 0 0 0 0 0 0 0 0 0 0 0 0 0 0 0 0 127 0" result="hardAlpha" />
      <feOffset dx="13.243" dy="13.243" />
      <feComposite in2="hardAlpha" operator="arithmetic" k2="-1" k3="1" />
      <feColorMatrix values="0 0 0 0 1 0 0 0 0 1 0 0 0 0 1 0 0 0 0.5 0" />
      <feBlend mode="soft-light" in2="shape" result="effect1_innerShadow_7893_82131" />
      <feColorMatrix in="SourceAlpha" values="0 0 0 0 0 0 0 0 0 0 0 0 0 0 0 0 0 0 127 0" result="hardAlpha" />
      <feOffset dx="3.612" dy="6.019" />
      <feComposite in2="hardAlpha" operator="arithmetic" k2="-1" k3="1" />
      <feColorMatrix values="0 0 0 0 0.239216 0 0 0 0 0.396078 0 0 0 0 0.309804 0 0 0 1 0" />
      <feBlend in2="effect1_innerShadow_7893_82131" result="effect2_innerShadow_7893_82131" />
    </filter>
  </defs>
</svg>