<svg viewBox="0 0 62 62" fill="none" xmlns="http://www.w3.org/2000/svg">
  <path
    d="M50.127 16.68H12.153c-2.996 0-5.424 2.185-5.424 4.882v14.647c0 2.697 2.428 4.883 5.424 4.883H31.14l6.781 3.948c.776.419 1.678-.334 1.274-1.062l-1.726-2.886h12.658c2.996 0 5.425-2.186 5.425-4.883V21.562c0-2.697-2.428-4.882-5.425-4.882Z"
    fill="url(#woo-commerce-1)" />
  <path
    d="M6.729 21.562v4.882h12.658c.75 0 1.356-.545 1.356-1.22 0-.676-.606-1.22-1.356-1.22h-3.168c-.994 0-1.808-.733-1.808-1.628 0-.448.199-.855.533-1.148a1.87 1.87 0 0 1 1.275-.48H23c1.33 0 2.387-1.025 2.252-2.246-.118-1.057-1.194-1.822-2.378-1.822h-10.72c-2.997 0-5.425 2.185-5.425 4.882Z"
    fill="url(#woo-commerce-2)" />
  <path
    d="M55.552 36.21v-4.883h-9.946c-.75 0-1.356.545-1.356 1.22 0 .676.606 1.22 1.356 1.22h2.264c.994 0 1.808.733 1.808 1.628 0 .448-.2.855-.534 1.148a1.87 1.87 0 0 1-1.274.48h-6.781c-1.33 0-2.387 1.025-2.252 2.246.118 1.058 1.194 1.823 2.378 1.823h8.912c2.996 0 5.425-2.186 5.425-4.883Z"
    fill="url(#woo-commerce-3)" />
  <path
    d="M48.13 25.236c.043 0 .137.005.287.035.354.072.578.184.848.638.32.52.475 1.193.475 2.06 0 1.3-.327 2.454-1.005 3.535-.73 1.171-1.263 1.171-1.52 1.171-.042 0-.136-.005-.286-.035-.353-.072-.578-.184-.836-.62-.324-.532-.487-1.238-.487-2.094 0-1.3.325-2.446.996-3.501.751-1.189 1.297-1.189 1.529-1.189Zm0-2.79c-1.725 0-3.126.866-4.222 2.598-.934 1.471-1.402 3.099-1.402 4.882 0 1.334.288 2.476.863 3.429.646 1.09 1.6 1.748 2.876 2.009.34.069.664.103.97.103 1.743 0 3.145-.866 4.223-2.597a9.027 9.027 0 0 0 1.402-4.9c0-1.35-.288-2.475-.863-3.411-.646-1.091-1.6-1.749-2.876-2.01a4.882 4.882 0 0 0-.97-.102Zm-12.4 2.79c.043 0 .137.005.277.033.345.071.59.193.857.64.32.52.475 1.193.475 2.06 0 1.3-.327 2.454-1.005 3.535-.73 1.171-1.263 1.171-1.52 1.171-.042 0-.136-.005-.286-.035-.353-.072-.578-.184-.836-.62-.324-.533-.487-1.239-.487-2.095 0-1.3.325-2.445.996-3.5.753-1.189 1.297-1.189 1.53-1.189Zm0-2.79c-1.725 0-3.126.866-4.223 2.598-.934 1.471-1.401 3.099-1.401 4.882 0 1.334.287 2.476.862 3.429.647 1.09 1.6 1.748 2.877 2.009.34.069.664.103.97.103 1.743 0 3.144-.866 4.223-2.597a9.027 9.027 0 0 0 1.401-4.9c0-1.35-.287-2.475-.862-3.411-.647-1.091-1.618-1.749-2.876-2.01a4.875 4.875 0 0 0-.97-.102Zm-10.273 14.88c-.435 0-.86-.165-1.16-.47-2.27-2.305-3.663-5.332-4.485-7.758-1.181 2.25-2.777 5.129-4.392 7.55-.32.48-.924.737-1.54.665-.616-.077-1.122-.477-1.284-1.016-2.285-7.558-3.107-12.973-3.14-13.2-.114-.763.482-1.465 1.33-1.568.858-.1 1.628.432 1.743 1.196.007.045.59 3.885 2.1 9.485 2.292-3.914 4.214-7.937 4.239-7.989.275-.577.949-.92 1.632-.832.69.084 1.235.572 1.328 1.193.008.048.56 3.557 2.32 6.93.744-6.665 2.969-10.081 3.082-10.25.441-.662 1.395-.875 2.126-.48.735.397.972 1.254.533 1.914-.026.041-2.88 4.507-2.88 13.235 0 .58-.399 1.1-1 1.303a1.718 1.718 0 0 1-.552.092Z"
    fill="#fff" />
  <defs>
    <linearGradient id="woo-commerce-1" x1="31.14" y1="45.16" x2="31.14" y2="-6.153" gradientUnits="userSpaceOnUse">
      <stop stop-color="#685DDB" />
      <stop offset=".399" stop-color="#6B6BDF" />
      <stop offset="1" stop-color="#6E7CE4" />
    </linearGradient>
    <linearGradient id="woo-commerce-2" x1="31.14" y1="113.399" x2="31.14" y2="17.311" gradientUnits="userSpaceOnUse">
      <stop stop-color="#685DDB" />
      <stop offset=".399" stop-color="#6B6BDF" />
      <stop offset="1" stop-color="#6E7CE4" />
    </linearGradient>
    <linearGradient id="woo-commerce-3" x1="31.14" y1="70.22" x2="31.14" y2="18.908" gradientUnits="userSpaceOnUse">
      <stop stop-color="#685DDB" />
      <stop offset=".399" stop-color="#6B6BDF" />
      <stop offset="1" stop-color="#6E7CE4" />
    </linearGradient>
  </defs>
</svg>