<svg viewBox="0 0 32 32" fill="none" xmlns="http://www.w3.org/2000/svg">
  <path
    d="M16.032 0h-.073C7.145 0 0 7.147 0 15.964v.072C0 24.853 7.145 32 15.959 32h.073c8.814 0 15.959-7.147 15.959-15.964v-.072C31.99 7.147 24.846 0 16.03 0Z"
    fill="#5865F2" />
  <path
    d="M24 8.653a19.018 19.018 0 0 0-4.7-1.458.07.07 0 0 0-.076.035c-.203.361-.428.833-.585 1.203a17.595 17.595 0 0 0-5.281 0 12.217 12.217 0 0 0-.595-1.203.074.074 0 0 0-.075-.035c-1.65.284-3.23.782-4.702 1.458a.073.073 0 0 0-.031.027c-2.995 4.476-3.816 8.841-3.413 13.153a.077.077 0 0 0 .03.054 19.15 19.15 0 0 0 5.769 2.917.075.075 0 0 0 .08-.027c.444-.607.841-1.247 1.18-1.92.02-.04 0-.087-.04-.102a12.717 12.717 0 0 1-1.802-.86.075.075 0 0 1-.008-.122c.121-.091.242-.186.358-.28a.07.07 0 0 1 .075-.01c3.78 1.726 7.873 1.726 11.609 0a.07.07 0 0 1 .075.008c.115.095.236.19.359.282a.074.074 0 0 1-.007.123 11.83 11.83 0 0 1-1.803.859.074.074 0 0 0-.04.103c.348.671.743 1.311 1.18 1.92.017.025.05.036.08.027a19.088 19.088 0 0 0 5.778-2.917.078.078 0 0 0 .03-.053c.482-4.984-.807-9.314-3.415-13.153a.061.061 0 0 0-.03-.028ZM12.165 19.207c-1.139 0-2.075-1.044-2.075-2.328 0-1.284.92-2.329 2.075-2.329 1.156 0 2.095 1.055 2.076 2.329 0 1.284-.92 2.328-2.076 2.328Zm7.676 0c-1.138 0-2.075-1.044-2.075-2.328 0-1.284.92-2.329 2.075-2.329 1.156 0 2.095 1.055 2.076 2.329 0 1.284-.91 2.328-2.076 2.328Z"
    fill="#fff" />
</svg>