<svg viewBox="0 0 33 32" fill="none" xmlns="http://www.w3.org/2000/svg">
  <path
    d="M32.118 16c0 8.082-5.988 14.762-13.767 15.846a16.21 16.21 0 0 1-4.79-.05C5.946 30.57.129 23.964.129 16.001.128 7.164 7.29 0 16.123 0c8.833 0 15.995 7.164 15.995 16Z"
    fill="#1877F2" />
  <path
    d="M18.35 12.846v3.486h4.311l-.683 4.695H18.35v10.818a16.21 16.21 0 0 1-4.789-.05V21.026H9.586v-4.695h3.975v-4.265a4.79 4.79 0 0 1 4.79-4.792v.003c.008 0 .015-.003.023-.003h4.288v4.061H19.86a1.51 1.51 0 0 0-1.508 1.51h-.002Z"
    fill="#fff" />
</svg>