<svg viewBox="0 0 32 32" fill="none" xmlns="http://www.w3.org/2000/svg">
  <path
    d="M16.032 0h-.073C7.145 0 0 7.147 0 15.964v.072C0 24.853 7.145 32 15.959 32h.073c8.814 0 15.959-7.147 15.959-15.964v-.072C31.99 7.147 24.846 0 16.03 0Z"
    fill="url(#instagram)" />
  <path
    d="M20.945 6.51h-9.899a4.966 4.966 0 0 0-4.96 4.96v9.06a4.966 4.966 0 0 0 4.96 4.96h9.9a4.966 4.966 0 0 0 4.959-4.96v-9.06a4.966 4.966 0 0 0-4.96-4.96ZM7.836 11.47c0-1.77 1.44-3.21 3.21-3.21h9.9c1.769 0 3.21 1.44 3.21 3.21v9.06c0 1.77-1.441 3.21-3.21 3.21h-9.9c-1.77 0-3.21-1.44-3.21-3.21v-9.06Z"
    fill="#fff" />
  <path
    d="M15.996 20.614a4.62 4.62 0 0 0 4.613-4.615 4.618 4.618 0 0 0-4.613-4.614 4.618 4.618 0 0 0-4.613 4.614 4.618 4.618 0 0 0 4.613 4.615Zm0-7.478A2.867 2.867 0 0 1 18.86 16a2.867 2.867 0 0 1-2.864 2.865A2.867 2.867 0 0 1 13.132 16a2.867 2.867 0 0 1 2.864-2.864ZM21.036 12.13a1.244 1.244 0 1 0-.002-2.486 1.244 1.244 0 0 0 .002 2.486Z"
    fill="#fff" />
  <defs>
    <linearGradient id="instagram" x1="4.674" y1="27.325" x2="27.324" y2="4.683" gradientUnits="userSpaceOnUse">
      <stop stop-color="#FAAD4F" />
      <stop offset=".35" stop-color="#DD2A7B" />
      <stop offset=".62" stop-color="#9537B0" />
      <stop offset="1" stop-color="#515BD4" />
    </linearGradient>
  </defs>
</svg>