<svg xmlns="http://www.w3.org/2000/svg" viewBox="0 0 32 32">
  <path style="stroke:none;fill-rule:nonzero;fill:#007ebb;fill-opacity:1"
    d="M16.063.027h-.075C7.195.027.066 7.16.066 15.957v.074c0 8.797 7.13 15.926 15.922 15.926h.075c8.792 0 15.921-7.129 15.921-15.926v-.074c0-8.797-7.129-15.93-15.922-15.93Zm0 0" />
  <path style="stroke:none;fill-rule:nonzero;fill:#fefffc;fill-opacity:1"
    d="M7.676 10.645a1.908 1.908 0 0 1-.63-1.45c0-.578.212-1.082.63-1.472.422-.391.965-.586 1.625-.586.664 0 1.183.195 1.605.586.418.39.63.882.63 1.472s-.212 1.059-.63 1.45c-.422.386-.957.585-1.605.585-.649 0-1.203-.199-1.625-.585Zm3.504 2.238v11.969H7.398v-11.97ZM23.77 14.066c.824.895 1.234 2.121 1.234 3.684v6.89h-3.59v-6.402c0-.789-.207-1.402-.613-1.84-.41-.433-.961-.656-1.649-.656-.687 0-1.238.219-1.648.656-.406.438-.613 1.051-.613 1.84v6.403h-3.61V12.848h3.61v1.566c.367-.523.859-.934 1.48-1.238.621-.301 1.317-.453 2.09-.453 1.383 0 2.484.445 3.309 1.343Zm0 0" />
</svg>