<svg viewBox="0 0 32 32" fill="none" xmlns="http://www.w3.org/2000/svg">
  <path
    d="M16.032 0h-.073C7.145 0 0 7.147 0 15.964v.072C0 24.853 7.145 32 15.959 32h.073c8.814 0 15.959-7.147 15.959-15.964v-.072C31.99 7.147 24.846 0 16.03 0Z"
    fill="#00B0F2" />
  <path
    d="m6.059 15.454.133-.063c.76-.352 1.53-.682 2.299-1.012.041 0 .11-.048.15-.064l.178-.076.342-.147.685-.292c.456-.195.912-.39 1.368-.587l2.739-1.171 2.738-1.172L19.429 9.7l2.738-1.172c.203-.087.422-.217.64-.256.182-.032.36-.095.544-.13.349-.066.733-.093 1.067.052.116.05.222.121.31.21.424.419.365 1.107.275 1.697L23.13 22.431c-.086.564-.202 1.183-.647 1.54-.377.301-.913.335-1.378.207-.465-.13-.875-.4-1.277-.665-1.67-1.105-3.34-2.21-5.008-3.316-.397-.263-.838-.606-.834-1.082.002-.287.174-.543.349-.77 1.45-1.893 3.543-3.193 5.1-4.998.219-.255.392-.714.09-.861-.18-.088-.385.031-.55.144l-6.171 4.29c-.672.466-1.376.946-2.185 1.06-.724.104-1.452-.098-2.153-.305-.587-.172-1.173-.35-1.757-.532-.31-.097-.631-.2-.871-.42-.24-.218-.378-.586-.233-.877.09-.183.267-.299.452-.393l.002.002Z"
    fill="#FEFFFC" />
</svg>