<svg viewBox="0 0 32 32" fill="none" xmlns="http://www.w3.org/2000/svg">
  <path
    d="M16.032 0h-.073C7.145 0 0 7.147 0 15.964v.072C0 24.853 7.145 32 15.959 32h.073c8.814 0 15.959-7.147 15.959-15.964v-.072C31.99 7.147 24.846 0 16.03 0Z"
    fill="#000" />
  <path
    d="M24.105 12.708v3.022a7.94 7.94 0 0 1-4.184-1.694v6.106l-.012-.018a5.507 5.507 0 0 1-5.487 5.87 5.507 5.507 0 0 1-5.5-5.502 5.508 5.508 0 0 1 6.373-5.433v2.978a2.608 2.608 0 0 0-3.478 2.455 2.608 2.608 0 0 0 2.605 2.606 2.609 2.609 0 0 0 2.6-2.767V8.464h3.018c.011.255.021.513.033.769.02.503.2.986.512 1.382a5.727 5.727 0 0 0 1.668 1.438c.711.403 1.38.576 1.852.658v-.003Z"
    fill="#FF004F" />
  <path
    d="M23.068 10.256v3.021a7.943 7.943 0 0 1-4.184-1.694v6.107l-.012-.02a5.507 5.507 0 0 1-5.487 5.87 5.507 5.507 0 0 1-5.5-5.5 5.508 5.508 0 0 1 6.373-5.433v2.977a2.608 2.608 0 0 0-3.478 2.455 2.608 2.608 0 0 0 2.604 2.606 2.609 2.609 0 0 0 2.6-2.767V6.008h3.019l.032.77c.02.503.2.986.513 1.382a5.726 5.726 0 0 0 1.667 1.437 5.75 5.75 0 0 0 1.853.659Z"
    fill="#00F7EF" />
  <path
    d="M23.728 11.577v3.021a7.942 7.942 0 0 1-4.184-1.694v6.107l-.012-.02a5.507 5.507 0 0 1-5.487 5.87 5.507 5.507 0 0 1-5.5-5.5 5.508 5.508 0 0 1 6.373-5.433v2.977a2.608 2.608 0 0 0-3.478 2.455 2.608 2.608 0 0 0 2.605 2.606 2.609 2.609 0 0 0 2.6-2.767V7.332h3.018c.011.256.021.514.033.77.02.502.2.986.512 1.381a5.727 5.727 0 0 0 1.668 1.438c.711.402 1.38.576 1.852.658v-.002Z"
    fill="#fff" />
</svg>