<svg viewBox="0 0 32 32" fill="none" xmlns="http://www.w3.org/2000/svg">
  <path
    d="M16.032 0h-.073C7.145 0 0 7.147 0 15.964v.072C0 24.853 7.145 32 15.959 32h.073c8.814 0 15.959-7.147 15.959-15.964v-.072C31.99 7.147 24.846 0 16.03 0Z"
    fill="#00E510" />
  <path
    d="M19.113 20.68c-4.094 0-7.425-3.333-7.426-7.428a1.886 1.886 0 0 1 2.194-1.856c.222.037.433.112.627.225a.105.105 0 0 1 .051.075l.433 2.728a.103.103 0 0 1-.026.088 1.869 1.869 0 0 1-.883.55l-.164.046.062.158a5.54 5.54 0 0 0 3.117 3.118l.158.063.046-.164a1.87 1.87 0 0 1 .55-.883.103.103 0 0 1 .07-.027h.018l2.727.434c.033.005.06.023.077.051a1.889 1.889 0 0 1 .25.94 1.885 1.885 0 0 1-1.881 1.882Z"
    fill="#FDFDFD" />
  <path
    d="M26.374 15.1a10.05 10.05 0 0 0-3.22-6.517 10.043 10.043 0 0 0-6.818-2.664C10.779 5.919 6.258 10.441 6.258 16c0 1.866.514 3.683 1.488 5.266l-2.172 4.81 6.955-.742c1.209.496 2.489.747 3.806.747.346 0 .701-.018 1.058-.055.314-.034.63-.083.942-.146 4.654-.94 8.051-5.072 8.078-9.826V16c0-.303-.014-.605-.04-.9Zm-13.577 8.123-3.848.41 1.149-2.545-.23-.309a7.979 7.979 0 0 1-1.577-4.778c0-4.437 3.609-8.047 8.045-8.047 4.156 0 7.679 3.243 8.018 7.383a8.3 8.3 0 0 1 .028.665l-.002.19A8.026 8.026 0 0 1 17.233 24a7.959 7.959 0 0 1-4.29-.703l-.145-.07-.001-.003Z"
    fill="#FDFDFD" />
</svg>