<svg xmlns="http://www.w3.org/2000/svg" viewBox="0 0 303 58" fill="none"><g fill="#fff" clip-path="url(#brand-white-a)"><path d="M104.042 21.174c-.879.961-1.562 2.346-2.058 4.145l-.196-5.547h-8.012v30.346h8.456V32.432c0-1.551.249-2.781.735-3.68.526-.91 1.291-1.562 2.315-1.986 1.013-.413 2.316-.62 3.887-.62h2.761v-7.02h-2.761c-2.181 0-3.887.683-5.127 2.037v.01ZM135.589 21.13c-2.295-1.324-4.983-1.985-8.064-1.985-3.081 0-5.769.661-8.064 1.985-2.295 1.323-4.083 3.173-5.355 5.551-1.282 2.336-1.912 5.117-1.912 8.322 0 3.205.641 6.007 1.912 8.384 1.282 2.378 3.071 4.229 5.355 5.552 2.295 1.282 4.983 1.923 8.064 1.923 3.081 0 5.769-.64 8.064-1.923 2.295-1.323 4.083-3.174 5.355-5.552 1.282-2.377 1.912-5.169 1.912-8.384 0-3.215-.641-5.986-1.912-8.322-1.282-2.378-3.071-4.228-5.355-5.551Zm-3.153 20.78c-1.168 1.622-2.802 2.439-4.911 2.439-2.109 0-3.742-.806-4.9-2.44-1.168-1.664-1.747-3.96-1.747-6.906 0-2.946.579-5.23 1.747-6.854 1.168-1.664 2.801-2.491 4.9-2.491s3.743.827 4.911 2.491c1.168 1.623 1.747 3.908 1.747 6.854 0 2.947-.579 5.252-1.747 6.906ZM71.511 35.562h9.139c-.155 1.581-.6 2.998-1.355 4.248-.713 1.251-1.726 2.233-3.039 2.947-1.281.724-2.802 1.075-4.569 1.075-2.409 0-4.383-.579-5.924-1.757-1.499-1.169-2.636-2.781-3.38-4.818-.714-2.078-1.076-4.497-1.076-7.133s.362-5.004 1.075-7.082c.755-2.078 1.882-3.722 3.381-4.92 1.54-1.21 3.463-1.81 5.748-1.81 2.636 0 4.611.662 5.924 1.985 1.354 1.282 2.233 3.04 2.647 5.262l8.849-.393c-.569-2.863-1.561-5.365-2.988-7.474-1.427-2.11-3.35-3.732-5.748-4.87-2.367-1.168-5.283-1.757-8.735-1.757-3.981 0-7.402.92-10.266 2.77-2.823 1.81-4.983 4.301-6.483 7.475-1.498 3.174-2.253 6.7-2.253 10.814s.734 7.764 2.202 10.927c1.499 3.133 3.629 5.583 6.369 7.36 2.749 1.78 6.047 2.658 9.924 2.658 2.254 0 4.3-.383 6.151-1.138 1.882-.796 3.463-1.87 4.734-3.225a9.701 9.701 0 0 0 1.614-2.274c0 2.212.052 3.473.052 5.686h5.602l-.051-20.852H71.52v6.285l-.01.01ZM229.787 36.988c0 2.378-.486 4.177-1.468 5.376-.941 1.168-2.275 1.757-4.001 1.757-1.54 0-2.667-.527-3.38-1.581-.713-1.096-1.075-2.812-1.075-5.149V19.837h-8.457v19.54c0 3.618.868 6.45 2.595 8.497 1.767 2.006 4.207 2.998 7.329 2.998 2.854 0 5.128-.775 6.823-2.326.941-.858 1.686-1.964 2.244-3.277l.124 4.92h7.722V19.838h-8.456V37v-.01ZM265.206 20.561c-1.499-.94-3.349-1.416-5.53-1.416-1.655 0-3.174.3-4.57.91-1.396.61-2.553 1.581-3.494 2.946a9.438 9.438 0 0 0-.889 1.706l-.186-4.88h-7.609V50.18h8.456V33.473c0-2.45.466-4.321 1.406-5.603.941-1.323 2.295-1.985 4.064-1.985 1.198 0 2.139.3 2.822.91.672.568 1.147 1.416 1.405 2.553.259 1.137.394 2.512.394 4.136V50.19h8.456V30.65c0-2.336-.413-4.363-1.24-6.058-.786-1.737-1.954-3.08-3.494-4.022l.009-.01ZM294.044 9.12v15.008c-.786-1.551-1.975-2.75-3.557-3.619-1.54-.91-3.381-1.364-5.531-1.364-2.522 0-4.714.661-6.596 1.985-1.84 1.281-3.266 3.111-4.289 5.489-1.013 2.336-1.521 5.138-1.521 8.384 0 3.246.486 6.058 1.468 8.436 1.014 2.347 2.441 4.177 4.291 5.49 1.882 1.282 4.094 1.923 6.657 1.923 2.11 0 3.97-.455 5.583-1.365 1.654-.91 2.895-2.171 3.722-3.794l.165 4.476h8.064V9.12h-8.456Zm-.735 31.031c-.486 1.365-1.198 2.399-2.139 3.112-.941.724-2.089 1.075-3.443 1.075-1.954 0-3.536-.847-4.735-2.553-1.168-1.695-1.747-3.929-1.747-6.792 0-2.864.579-5.138 1.747-6.792 1.168-1.696 2.739-2.554 4.735-2.554 1.354 0 2.502.362 3.443 1.075.941.683 1.653 1.716 2.139 3.112.486 1.354.735 3.112.735 5.149 0 2.036-.249 3.752-.735 5.148v.02ZM174.228 40.38l-5.582-20.553h-6.885l-5.583 20.552-5.19-20.552h-8.508l8.964 30.353h8.177l5.582-18.97 5.583 18.97h8.229l8.973-30.353h-8.518l-5.242 20.552ZM196.077 11.546c-1.613 1.623-2.43 3.95-2.43 6.968l-.036 1.312h-4.394l.036 6.555h4.394v23.737h8.457V26.38h7.505l-.036-6.555h-7.505l.036-.92c0-1.167.268-2.036.785-2.604.528-.6 1.375-.91 2.543-.91h4.621V9.055h-6.43c-3.422 0-5.934.827-7.557 2.491h.011ZM1.105 49.926c-1.682-2.154-1.44-5.262.703-6.956 2.14-1.691 4.851-1.203 6.825.877 2.725 2.873 5.407 4.246 9.01 4.246 3.601 0 6.283-1.373 9.009-4.246 1.973-2.08 4.685-2.568 6.825-.877 2.142 1.694 2.385 4.802.703 6.956-3.918 5.015-9.794 8.07-16.538 8.07-6.743 0-12.62-3.055-16.537-8.07ZM19.967 2.85c2.705.424 3.514.55 5.457.355 1.886-.242 3.54-.894 5.502-2.167 2.404-1.56 5.155-1.4 6.84.744 1.688 2.149 1.108 4.98-1.056 6.962-2.164 1.983-4.839 3.082-7.57 3.626-3.038.605-5.187.728-9.042.12-4.113-.647-6.635.727-8.058 2.18a7.825 7.825 0 0 0-2.242 5.494c0 4.334 3.511 7.847 7.842 7.847 4.33 0 7.84-3.513 7.84-7.847a7.82 7.82 0 0 0-1.906-5.13c2.798.085 4.895-.214 6.877-.725a22.06 22.06 0 0 0 3.335-1.167 17.717 17.717 0 0 1 1.446 7.022c0 9.74-7.877 17.64-17.592 17.64S.047 29.904.047 20.164c0-4.491 1.676-8.59 4.432-11.7a17.621 17.621 0 0 1 8.133-5.2c1.829-.544 4.296-.894 7.333-.417l.022.004Z"/></g><defs><clipPath id="brand-white-a"><path fill="#fff" d="M0 0h302.5v58H0z"/></clipPath></defs></svg>