<svg viewBox="0 0 16 16" fill="none" xmlns="http://www.w3.org/2000/svg">
  <path
    d="M7.043 1.384c-.262.126-.503.331-.84.618l-.052.044c-.29.262-.663.417-1.054.437l-.068.005c-.44.036-.756.06-1.03.158a2.22 2.22 0 0 0-1.354 1.352c-.097.275-.122.59-.157 1.032l-.005.068c-.02.39-.175.762-.437 1.053l-.044.052c-.287.337-.493.578-.619.84a2.22 2.22 0 0 0 0 1.914c.126.263.332.503.62.84l.043.053c.273.32.403.626.437 1.053l.005.068c.035.441.06.757.157 1.031a2.22 2.22 0 0 0 1.353 1.354c.275.096.59.121 1.031.156l.068.006c.42.033.727.158 1.054.436l.052.044c.337.288.578.494.84.619a2.22 2.22 0 0 0 1.914 0c.262-.126.503-.331.84-.619l.052-.044c.32-.273.627-.402 1.054-.436l.068-.006c.441-.035.756-.06 1.031-.157a2.22 2.22 0 0 0 1.353-1.353c.097-.274.122-.59.157-1.031l.005-.068c.034-.42.16-.727.437-1.053l.044-.053c.288-.337.494-.577.619-.84a2.22 2.22 0 0 0 0-1.913c-.126-.263-.332-.504-.619-.84l-.044-.053a1.706 1.706 0 0 1-.437-1.053l-.005-.068c-.035-.442-.06-.757-.157-1.032a2.22 2.22 0 0 0-1.353-1.353c-.275-.097-.59-.121-1.031-.157l-.068-.005a1.707 1.707 0 0 1-1.054-.437l-.052-.044c-.337-.287-.578-.493-.84-.618a2.22 2.22 0 0 0-1.914 0Zm3.472 4.411a.5.5 0 0 1 .112.698L8.23 9.813a1.166 1.166 0 0 1-1.824.086L5.401 8.752a.5.5 0 0 1 .754-.659L7.158 9.24a.167.167 0 0 0 .26-.012l2.399-3.32a.5.5 0 0 1 .698-.113Z"
    fill="currentColor" />
</svg>