<svg width="110" height="110" fill="none" xmlns="http://www.w3.org/2000/svg">
  <path
    d="m57.91 28.067-36.45 5.318a.465.465 0 0 0-.393.528l6.706 45.966c.037.254.273.43.527.393l36.45-5.318a.465.465 0 0 0 .394-.527L58.438 28.46a.465.465 0 0 0-.527-.394Z"
    stroke="#D9D9D9" stroke-width=".9" stroke-dasharray="1.7 1.7" />
  <path
    d="M28.355 38.876h.853v-.078l1.164-.155c.155 0 .232.155.232.233v.775c.078 0 .31.853.31.853.078 0 .156.233 0 .31l-.077.078h-.155l-1.008.233-.853.232c-.155 0-.233 0-.31-.155v-.155l-.156-1.008v-.62c-.155 0-.232-.155-.155-.31 0-.078.078-.156.233-.156 0 0 .078 0 .155-.077h-.233Zm.31 1.086.156.852.62-.155.853-.155-.155-.775v-.62c-.078 0-.93.077-.93.077h-.62v.698l.077.078Zm.621 3.722h.853v-.078l1.163-.155c.155 0 .233.155.233.233v.775c.078 0 .31.853.31.853.078 0 .155.233 0 .31l-.155.078h-.155l-1.008.233-.853.233c-.155 0-.233 0-.31-.156v-.155l-.155-1.008v-.62c-.156 0-.233-.155-.156-.31 0-.078.078-.156.233-.156 0 0 .078 0 .155-.077h-.155Zm.31 1.163.155.853.62-.155.854-.155-.155-.776v-.62c-.078 0-.93.078-.93.078h-.621v.698l.077.077Zm16.44-7.29s.078-.077 0-.155h-.542c-2.56.31-5.04.62-7.6.93-1.24.156-2.481.311-3.567.389h-.931c-.077 0-.232.077-.232.155v.155c.155.077.31.077.387.077h.621c1.318-.077 2.481-.232 3.722-.387 2.56-.31 5.04-.698 7.6-1.086h.465l.078-.078Zm.621 4.653s.078-.077 0-.155H46.192c-2.56.31-5.04.62-7.6.93-1.24.156-2.481.311-3.567.389h-.931c-.077 0-.233.077-.233.155v.155c.156.078.31.077.388.077h.621c1.318-.077 2.481-.232 3.722-.387 2.56-.31 5.04-.698 7.6-1.086h.465v-.078Z"
    fill="#D9D9D9" />
  <path
    d="M63.02 71.372c-4.187 0-7.677-1.474-10.623-4.343-2.947-2.87-4.343-6.437-4.343-10.624 0-4.188 1.473-7.678 4.343-10.625 2.869-2.869 6.436-4.343 10.624-4.343 4.188 0 7.677 1.474 10.624 4.343 2.947 2.87 4.343 6.437 4.343 10.625 0 1.706-.233 3.257-.775 4.808-.543 1.473-1.241 2.792-2.172 3.955L87.915 78.04c.387.388.62.93.62 1.629 0 .698-.233 1.163-.62 1.628-.388.466-.931.62-1.63.62-.697 0-1.162-.232-1.628-.62L71.784 68.425c-1.163.93-2.482 1.629-3.955 2.171-1.473.543-3.102.776-4.808.776Zm0-4.653c2.87 0 5.352-1.008 7.368-3.025 2.016-2.016 3.025-4.42 3.025-7.367 0-2.87-1.009-5.35-3.025-7.367-2.016-2.016-4.42-3.025-7.367-3.025-2.87 0-5.351 1.009-7.367 3.025-2.017 2.016-3.025 4.498-3.025 7.367 0 2.87 1.008 5.351 3.025 7.367 2.016 2.017 4.497 3.025 7.367 3.025Z"
    fill="#B6B6B6" />
  <path
    d="m83.028 74.783 3.335 3.257.853.931-.232.233-4.266-4.11.233-.233.078-.078Zm-1.24-1.163.775.776.155.232-.232.233-1.008-.93.232-.233.078-.078Z"
    fill="#fff" />
  <path d="M39.988 56.79c-.31-.543-.698-1.086-2.016-2.25a2.402 2.402 0 0 0-1.008-.465" stroke="#fff" stroke-width=".8"
    stroke-linecap="round" />
  <path
    d="M39.91 53.612c-.542.388-1.472 1.551-2.79 2.947M47.82 72.922c-.388-.62-.853-1.24-2.404-2.636a4.108 4.108 0 0 0-1.163-.62"
    stroke="#fff" stroke-width=".8" stroke-linecap="round" />
  <path d="M47.82 69.197c-.62.466-1.783 1.784-3.257 3.49" stroke="#fff" stroke-width=".8" stroke-linecap="round" />
  <path
    d="M72.25 36.319c0 .388-.31.698-.698.698a.695.695 0 0 1-.699-.698c0-.388.31-.698.699-.698.387 0 .697.31.697.698ZM24.167 75.482c0 .388-.31.698-.698.698a.695.695 0 0 1-.697-.698c0-.388.31-.698.697-.698.388 0 .698.31.698.698Z"
    fill="#D9D9D9" />
</svg>