<svg width="16" height="16" fill="none" xmlns="http://www.w3.org/2000/svg">
  <path fill-rule="evenodd" clip-rule="evenodd"
    d="m10.366 2.162-.058.064c-.267.292-.432.458-.568.566a50.39 50.39 0 0 1-.385-.509c-.231-.299-.423-.516-.62-.681-.24-.204-.478-.32-.735-.32a.893.893 0 0 0-.393.095c-.31.15-.569.433-.916.918l-.219.312-.05.072-.085.118-.013-.01c-.143-.11-.315-.277-.6-.573l-.054-.058c-.427-.448-.543-.566-.721-.711a1.051 1.051 0 0 0-.408-.228.504.504 0 0 0-.614.328A5.52 5.52 0 0 0 3.6 3.43C3.6 6.38 5.213 8.4 8 8.4c2.787 0 4.4-2.02 4.4-4.97a5.52 5.52 0 0 0-.328-1.885.504.504 0 0 0-.613-.327c-.136.034-.259.112-.4.232-.173.146-.28.26-.693.712M4.4 3.43c0-.432.057-.855.167-1.257.107.099.244.241.523.535l.056.058c.313.328.504.512.69.656.365.279.7.377.98.057.075-.085.152-.188.258-.338.008-.01.03-.04.058-.082l.21-.298c.27-.376.468-.593.614-.664A.16.16 0 0 1 8 2.08c.031 0 .11.04.22.132.143.12.303.302.502.56-.026-.034.436.584.544.706.28.322.616.221.97-.059.18-.143.365-.33.662-.654l.06-.064c.25-.275.381-.416.48-.514.108.405.162.823.162 1.243 0 2.542-1.3 4.17-3.6 4.17S4.4 5.972 4.4 3.43Z"
    fill="currentColor" />
  <path d="M7.6 8.8a.4.4 0 0 1 .8 0V14a.4.4 0 1 1-.8 0V8.8Z" fill="currentColor" />
  <path fill-rule="evenodd" clip-rule="evenodd"
    d="M9.671 10.718c-1.58 1.326-2.63 3.03-1.901 3.897.743.886 3.087.33 4.472-.832 1.348-1.131 1.945-2.721 1.196-3.614-.75-.894-2.42-.582-3.767.55Zm2.056 2.452c-1.09.915-2.982 1.363-3.344.93-.291-.346.56-1.727 1.802-2.769 1.054-.885 2.253-1.109 2.64-.648.386.461-.043 1.602-1.098 2.487Z"
    fill="currentColor" />
  <path fill-rule="evenodd" clip-rule="evenodd"
    d="M6.088 10.718c1.58 1.326 2.63 3.03 1.902 3.897-.743.886-3.088.33-4.472-.832-1.348-1.131-1.945-2.721-1.196-3.614.75-.894 2.418-.582 3.766.55ZM4.033 13.17c1.09.915 2.982 1.363 3.345.93.29-.346-.56-1.727-1.803-2.769-1.054-.885-2.253-1.109-2.64-.648-.385.46.043 1.602 1.098 2.487Z"
    fill="currentColor" />
</svg>