<svg width="88" height="88" fill="none" xmlns="http://www.w3.org/2000/svg">
  <path d="M58.724 29.148v35.225a5.535 5.535 0 0 1-5.535 5.535H18.752a5.535 5.535 0 0 1-5.535-5.535V29.148h45.507Z"
    fill="#AFE47C" />
  <path
    d="M40.867 31.737c-2.083.045-5.638.149-9.923.152-3.59.011-3.117-.054-9.362-.087-3.719-.022-6.717-.005-8.29-.01l-.012.527c2.366.137 4.584.232 4.585.201 0-.023-1.635-.128-1.634-.174.01-.068 3.107.108 6.482.176 6.058.127 10.755-.103 10.762-.027 0 .046-2.047.122-2.048.168 0 .046 1.804.01 4.553-.013.435-.013.87-.034 1.305-.047a7.789 7.789 0 0 1 2.497-.334c.24.006.471.011.693.039.13-.035.251-.07.382-.106.018 0 .046 0 .065-.014.158-.035.325-.054.483-.088.13-.036.27-.055.41-.083-.418.037-.752.067-.956.078-.167.012-.26.017-.26.01 0-.008.103-.021.26-.04.594-.071 2.023-.215 2.024-.291-.008-.061-.73-.054-2.016-.037Z"
    fill="#000" />
  <path
    d="M47.534 31.794c4.457-.005 8.156-.117 10.323-.165 1.34-.019 1.633-.065 1.641 0l-.773.165v.4l-1.276.04c2.05 0-.908.319-1.158.313-.972-.021-1.394-.241-2.16 0-.453.015-.906.037-1.359.05-2.86.026-4.737.065-4.736.016 0-.048 2.13-.13 2.131-.178-.008-.081-4.894.165-11.196.032-3.512-.07-6.732-.255-6.744-.182 0 .048 1.7.159 1.7.183 0 .032-2.309-.068-4.77-.212l.013-.557c1.636.005 4.755-.015 8.625.007 6.497.032 6.003.102 9.74.088ZM22.901 39.55c-.072.008.046 4.42.046 9.24 0 8.616-.408 15.302-.326 15.311.054 0 .2-2.908.262-2.908.055 0-.036 2.564-.145 6.478-.027.625-.054 1.25-.09 1.866a4.453 4.453 0 0 0-.09.371h-.852c.1-2.645.2-5.852.271-9.43.11-5.101.018-4.44.136-13.337.118-7.909.263-13.526.218-13.535-.037 0-.172 4.711-.2 4.711-.018 0 .064-6.08.21-9.169.053-1.06.116-1.766.18-1.766.063 0 .127.688.19 1.766.227 3.86.417 12.73.363 12.73-.028 0-.118-2.328-.173-2.328Z"
    fill="#000" />
  <path
    d="M51.087 29.148c-.11 3.072-.308 7.882-.417 13.617-.108 5.173-.018 4.503-.145 13.526-.1 7.366-.235 12.766-.217 13.617h-.562c-.136-3.959-.208-8.271-.172-8.28.027 0 .109 2.364.163 2.364.073 0-.045-4.484-.036-9.367 0-8.743.399-15.529.317-15.538-.054 0-.2 2.953-.254 2.953-.054-.009.028-2.6.136-6.577.028-.634.055-1.26.09-1.894.29-1.05.463-2.237.463-3.578 0-.29-.01-.57-.027-.843v-.172c.063-.208.118-.417.163-.643.045-.217.072-.453.118-.68.045-.199.072-.398.1-.588-.091 1.069-.155 1.74-.128 1.74.037 0 .336-3.28.453-3.28.082.009.046 1.331-.036 3.623h-.01Z"
    fill="#000" />
  <path d="M11.414 24.619h48.788a3.634 3.634 0 0 1 0 7.266H11.414a3.634 3.634 0 0 1 0-7.266Z" fill="#32CC86" />
  <path
    d="M28.392 53.157a.68.68 0 1 0 0-1.36.68.68 0 0 0 0 1.36Zm-1.132-9.513a.453.453 0 1 0 0-.906.453.453 0 0 0 0 .906Zm9.965 17.214a.453.453 0 1 0 0-.906.453.453 0 0 0 0 .906ZM34.54 18.42s.093.187.233.444c.14.268.316.619.48.992.162.362.314.735.407 1.003.105.28.164.467.152.467-.012 0-.105-.21-.28-.607-.175-.396-.443-.98-.828-1.68-.782-1.377-2.1-3.396-4.54-4.668-1.33-.711-2.66-.851-3.524-.361a2.054 2.054 0 0 0-1.143 1.878c.046 1.214.595 1.972 1.75 3.245 2.345 2.497 5.018 3.885 6.826 4.842 1.856.934 2.976 1.389 3.023 1.284.058-.14-1.879-1.272-1.844-1.33.012-.024.397.221 1.027.583-.105-.082-.222-.163-.327-.257-.117-.116-.257-.198-.373-.315a4.458 4.458 0 0 1-.327-.338 8.21 8.21 0 0 1-.642-.21 4.363 4.363 0 0 1-1.902-1.517l-1.027-.677a18.984 18.984 0 0 1-2.45-1.82c-.537-.479-.817-.77-.84-.747-.094.081 1.26 1.412 1.236 1.447-.023.023-.233-.152-.606-.479-.362-.35-.887-.84-1.436-1.528-.572-.689-1.167-1.552-1.003-2.346.093-.688 1.05-1.12 2.217-.723 1.354.42 2.544 1.271 3.314 2.007.77.735 1.19 1.318 1.155 1.342-.047.023-1.062-1.016-1.097-.969 0 0 .094.105.257.292.163.175.397.443.665.77.537.654 1.18 1.599 1.75 2.637 1.132 2.066 2.054 4.341 2.253 4.271.14-.058-.304-1.844-.934-3.57a18.803 18.803 0 0 0-1.015-2.323c-.327-.618-.584-1.003-.584-1.003l-.023-.036Z"
    fill="#000" />
  <path
    d="M39.438 19.434s-.105.163-.233.42c-.14.257-.304.595-.467.945-.164.35-.315.7-.444.957-.116.268-.198.443-.21.432 0 0 .059-.222.21-.619.152-.396.397-.968.724-1.668.338-.7.758-1.54 1.307-2.45.56-.9 1.132-1.985 2.112-2.732 1.12-.816 2.264-.676 2.789-.245.56.444.735 1.004.817 1.447.116.91-.035 1.634-.876 2.976-1.715 2.626-4.072 4.096-5.706 5.018-1.67.91-2.72 1.307-2.672 1.424.035.07.548-.036 1.062-.187.513-.14 1.015-.315 1.027-.292 0 .023-.385.175-1.04.397l.386-.07c.152-.012.292-.07.455-.082.152-.023.304-.023.456-.035.163-.14.338-.257.525-.385.723-.467 1.458-.712 2.229-.863.35-.222.688-.456 1.026-.712a16.373 16.373 0 0 0 2.3-2.218c.49-.595.734-.98.7-.991-.036-.024-.35.373-.7.723-.35.362-.713.689-.736.665-.058-.046.817-.782 1.82-2.38.467-.794 1.086-1.996.736-3.524-.175-.724-.595-1.517-1.424-2.008-.83-.478-1.844-.466-2.672-.163-.957.338-1.657 1.039-2.124 1.669-.48.642-.794 1.237-1.062 1.739-.537 1.003-.828 1.68-.875 1.657-.035-.012.093-.386.245-.747.14-.374.303-.724.28-.735 0 0-.082.128-.21.361-.117.234-.292.584-.48 1.004a25.61 25.61 0 0 0-1.142 3.139c-.7 2.334-.922 4.75-.735 4.773.163.023.607-1.704 1.237-3.373.303-.828.64-1.657.91-2.252.268-.607.443-1.015.443-1.015h.012Z"
    fill="#000" />
  <path
    d="M36.71 24.619c.072 0 .153.009.226.026a.591.591 0 0 1 .435.32l.036.097.027.15c.036.347-.09.675-.235.959-.082.168-.182.336-.272.496-.09.168-.181.328-.263.497-.28.585-2.147 3.68-2.102 3.618 1.73-2.253-2.41 4.025-3.86 6.615-.344.612-.969 1.427-.679 1.312 2.21-.878 6.569-3.511 5.01-2.713-.987.505 1.486-.967 2.057-1.33.28-.178.525-.337.743-.453.199-.115.39-.212.552-.257l.11-.027a.531.531 0 0 1 .597.408 1.05 1.05 0 0 1-.036.586c-.408 1.294-2.283 4.46-1.83 3.901.425-.523-.607 1.091-.807 1.481a3.845 3.845 0 0 1-.081.178c.634-.178 1.386-.541 2.392-1.082h.009l.009-.01c-.625.666 2.59-1.072 4.222-1.702.19-.07.398.018.47.204.073.187-.008.408-.208.461-1.495.382-3.216 1.242-4.176 1.676-1.287.692-2.283 1.18-3.207 1.268l-.281.027-.1-.257a.478.478 0 0 1-.018-.293.961.961 0 0 1 .063-.23c.055-.151.145-.337.245-.541.208-.408.498-.931.815-1.508.644-1.153 1.377-2.527 1.758-3.742-.045.027-.172-.044-.227-.009-2.264 1.33-.905.444-.453.444.453 0-1.45.913-2.237 1.419-1.595 1.01-3.588 2.19-5.572 2.952a1.012 1.012 0 0 1-.236.054.483.483 0 0 1-.353-.142.473.473 0 0 1-.118-.328c0-.09.018-.178.037-.266.09-.328.244-.967.87-1.81 2.282-3.059 4.928-8.397 3.868-6.632-1.25 2.092 1.92-2.785 2.065-3.556.037-.204.19-.373.281-.532.1-.169.181-.32.254-.47.118-.24.163-.4.163-.523h-.208l-.073-.01a.361.361 0 0 1-.29-.345.36.36 0 0 1 .363-.355h.199l.046-.026Z"
    fill="#000" />
  <path d="M76.85 48.002V71.34c0 2.02-1.64 3.66-3.67 3.66H50.367a3.664 3.664 0 0 1-3.669-3.66V48.002H76.85Z"
    fill="#32CC86" />
  <path d="M46.67 47.812h30.153v2.536H46.67v-2.536Z" fill="#000" />
  <path
    d="M53.303 55.231c-.072 0 .046 2.845.046 5.944-.01 5.544-.408 9.848-.326 9.848.054 0 .199-1.867.262-1.867.055 0-.036 1.65-.145 4.168-.027.398-.054.797-.09 1.205a4.059 4.059 0 0 0-.172.47h-.79c.1-1.748.21-3.895.29-6.305.1-3.28.01-2.854.137-8.58.118-5.091.263-8.706.218-8.706-.037 0-.172 3.026-.2 3.026-.018 0 .082-4.738.263-6.432.036-.372.082-.598.127-.598s.09.217.136.598c.244 2.047.48 8.724.416 8.724-.027 0-.117-1.495-.172-1.495Zm18.736-7.229c-.11 2.038-.326 5.517-.444 9.712-.11 3.515-.018 3.053-.145 9.168-.073 3.642-.172 6.578-.21 8.118h-.624c-.1-2.32-.154-4.494-.117-4.494.027 0 .108 1.604.163 1.604.08-.01-.046-3.044-.037-6.35.01-5.935.408-10.528.317-10.538-.054 0-.2 2.003-.253 2.003-.054 0 .036-1.767.136-4.458.027-.425.063-.851.09-1.277.29-.716.462-1.522.462-2.437 0-.236 0-.462-.027-.68l.136-.371c0-.018 0-.045.018-.064.045-.154.073-.317.118-.47.045-.128.073-.263.109-.4-.055.408-.1.735-.118.934-.018.163-.027.254-.018.254.009 0 .027-.1.054-.254.1-.58.308-1.975.399-1.975.072.009.046.716-.01 1.975Z"
    fill="#000" />
  <path
    d="M74.162 49.694c-2.05.056-5.548.175-9.766.216-3.534.041-3.07-.018-9.217.01-3.661.014-6.613.055-8.161.065l-.005.44c2.33.094 4.516.154 4.517.129 0-.02-1.612-.093-1.611-.131.01-.058 3.06.062 6.384.089 5.965.053 10.585-.182 10.593-.118 0 .039-2.014.12-2.014.159 0 .038 1.776-.008 4.48-.051.43-.015.858-.036 1.286-.051a8.91 8.91 0 0 1 2.453-.301c.237.002.465.004.683.026.128-.031.247-.062.374-.092.019 0 .046 0 .064-.013.155-.03.32-.047.475-.078.127-.03.264-.048.4-.072-.41.034-.737.063-.938.073a1.53 1.53 0 0 1-.255.01c0-.006.1-.018.256-.035.583-.065 1.987-.198 1.988-.261-.01-.052-.72-.04-1.986-.014Z"
    fill="#000" />
  <path d="M77.81 44.994H45.483a2.41 2.41 0 0 0 0 4.82h32.325a2.41 2.41 0 1 0 0-4.82h.002Z" fill="#32CC86" />
  <path
    d="M60.55 40.484s.072.146.18.347c.11.21.248.483.375.774.128.283.246.575.32.784.08.22.127.365.118.365-.01 0-.082-.164-.22-.474a16.478 16.478 0 0 0-.646-1.313c-.61-1.075-1.64-2.652-3.546-3.645-1.04-.556-2.078-.666-2.753-.283a1.604 1.604 0 0 0-.893 1.467c.037.948.465 1.54 1.367 2.534 1.833 1.95 3.92 3.036 5.333 3.783 1.449.73 2.324 1.085 2.36 1.003.046-.11-1.467-.994-1.44-1.04.01-.018.31.174.802.456-.082-.063-.173-.127-.255-.2-.091-.091-.2-.155-.292-.246a3.486 3.486 0 0 1-.255-.265 6.343 6.343 0 0 1-.501-.164 3.41 3.41 0 0 1-1.486-1.185l-.802-.528a14.844 14.844 0 0 1-1.914-1.422c-.42-.374-.638-.602-.656-.584-.073.064.984 1.103.966 1.13-.018.019-.183-.118-.474-.373-.283-.273-.693-.656-1.121-1.194-.447-.538-.912-1.212-.784-1.832.073-.538.82-.875 1.732-.565 1.057.328 1.987.993 2.588 1.568.602.574.93 1.03.903 1.048-.037.018-.83-.793-.857-.757l.2.228c.128.137.31.346.52.602.42.51.92 1.248 1.367 2.06.884 1.613 1.604 3.39 1.76 3.335.109-.045-.238-1.44-.73-2.789a14.657 14.657 0 0 0-.793-1.813 9.749 9.749 0 0 0-.456-.784l-.017-.028Z"
    fill="#000" />
  <path
    d="M64.89 41.241s-.11.105-.254.275c-.154.169-.341.395-.53.63-.19.235-.37.472-.516.643-.14.182-.233.299-.24.288 0 0 .086-.157.275-.43a22.18 22.18 0 0 1 2.31-2.744c.593-.577 1.23-1.293 2.112-1.676 1.002-.41 1.844-.09 2.16.335.343.441.37.899.35 1.25-.082.712-.332 1.233-1.22 2.093-1.791 1.67-3.854 2.345-5.265 2.74-1.436.378-2.307.482-2.293.58.013.06.422.075.84.056.416-.01.829-.049.834-.029-.005.018-.325.06-.862.107l.305.019c.117.02.234.001.36.023.12.01.235.039.352.058.15-.075.305-.131.47-.194.636-.218 1.24-.267 1.852-.238.307-.103.607-.216.912-.348A12.787 12.787 0 0 0 69 43.427c.483-.36.74-.606.716-.621-.022-.024-.335.218-.666.418-.333.209-.67.389-.682.367-.036-.047.766-.44 1.826-1.465.502-.515 1.195-1.31 1.216-2.536.002-.581-.168-1.261-.705-1.788-.54-.518-1.31-.699-1.996-.623-.79.078-1.45.478-1.923.868-.482.398-.833.79-1.13 1.12-.595.661-.942 1.12-.973 1.094-.025-.016.142-.275.325-.521.176-.257.365-.492.35-.505 0 0-.086.082-.227.235-.132.155-.33.388-.55.672-.44.567-.98 1.345-1.455 2.166-.967 1.64-1.586 3.43-1.45 3.483.12.048.78-1.179 1.57-2.327.384-.571.796-1.136 1.11-1.538.318-.41.527-.687.527-.687l.008.002Z"
    fill="#000" />
  <path
    d="M62.254 44.994c.055 0 .109.009.172.026a.491.491 0 0 1 .354.274l.027.078.018.102c.027.25-.063.48-.145.661-.054.111-.11.223-.163.326-.054.111-.11.206-.154.309-.172.386-.634 1.218-1.268 2.342-.644 1.793-1.44 2.6-2.32 4.263-.117.223-.208.404-.28.558.942-.438 3.596-2.17 2.618-1.416.453-.257.86-.48 1.187-.617.154-.06.326-.12.48-.129.163-.008.407.017.543.249a.313.313 0 0 1 .027.283s-.344.283-.525 1.398c-.09.575-.526 1.399-.526 1.399.29-.12.644-.31 1.079-.567h.009l.009-.008c0 .343 1.567-.695 2.546-1.098a.37.37 0 0 1 .48.18.337.337 0 0 1-.19.455c-.98.412-1.921.797-2.492 1.072-.761.446-1.395.772-1.984.84a.363.363 0 0 1-.401-.283.308.308 0 0 1 .02-.171l1.097-2.917c-.254.12-.58.3-.98.524-.896.514-2.092 1.226-3.287 1.715-.046.017-.11.043-.2.043a.42.42 0 0 1-.335-.146.455.455 0 0 1-.1-.274c0-.069.01-.137.027-.189.055-.223.227-.6.535-1.184 2.075-3.963 1.07-1.467 1.703-2.599.643-1.15 1.703-3.62 1.858-3.972.054-.129.117-.24.172-.352.054-.111.108-.206.145-.3.036-.077.054-.146.072-.189a.352.352 0 0 1-.326-.343c0-.189.163-.343.362-.343h.136ZM56.437 62.57a.453.453 0 1 0 0-.906.453.453 0 0 0 0 .906Zm-.453-4.974a.299.299 0 1 0 0-.598.299.299 0 0 0 0 .598Zm8.088 12.06a.298.298 0 0 0 .276-.413.297.297 0 0 0-.276-.185.3.3 0 0 0 0 .598Z"
    fill="#000" />
  <path
    d="M70.96 62.516c-1.304.498-2.274 1.014-4.783 2.319.688-.462-.508.299-1.867 1.033-1.358.734-2.88 1.431-2.7 1.069l-.29.127a1.369 1.369 0 0 1-.208.063c-.063.018-.18.018-.163-.063.027-.064.064-.118.09-.172.1-.173.2-.327.273-.453.163-.263.299-.48.407-.644l.082-.136c.063-.054.118-.117.181-.19 0-.009.01-.018.027-.027.263-.353.616-.761.997-1.477.157-.294.272-.608.344-.933.136-.553.054-1.359-.598-1.721-.19-.118-.607-.227-1.069-.09-.109.026-.29.099-.344.117l-.2.072-.407.163c-.281.11-.571.236-.879.354-.616.253-1.277.543-2.002.879a62.79 62.79 0 0 0-5.01 2.609c-.308.18-.462.516-.327.743.127.235.472.262.789.09 1.06-.616 2.69-1.567 3.94-2.21 1.251-.653 2.112-1.015 1.54-.598-.968.697 2.203-.979 3.009-1.241.108-.037.28-.11.462-.046.172.064.254.263.263.444.018.172-.028.363-.073.526-.1.299-.163.39-.127.054-.108.299-.263.553-.39.78l-.008.026c-.09.074-.17.159-.236.254-.136.163-.28.371-.471.625-.082.118-.163.254-.254.39-.136.208-.28.434-.444.688-.199.317-.416.662-.634 1.024-.132.176-.22.381-.254.598-.009.181-.072.263.028.471.127.19.308.254.48.29.181.036.407.045.67-.018.263-.055.535-.136.816-.236l.344-.136.254-.108c-1.414.779-.127.299.95-.272 1.206-.607 2.791-1.504 3.398-1.821 2.546-1.314 3.407-1.776 4.576-2.21.326-.137.552-.454.507-.716-.055-.263-.362-.381-.689-.254v-.036Z"
    fill="#fff" />
</svg>