<svg width="88" height="88" fill="none" xmlns="http://www.w3.org/2000/svg">
  <path
    d="M49.416 17.309c2.204.012 4.08.707 5.635 1.762 3.098 2.102 4.92 5.626 5.576 8.038 1.005 3.696.95 7.06-.319 9.706-.5 1.044-1.937 2.034-2.81 2.816-.14.125 1.264-.981 1.116-.864-1.259.994-3.657 2.887-5.606 3.308l-3.512 9.17a.32.32 0 0 1-.607-.034c-.33-1.288-.81-3.261-1.165-4.996-.163-.769-.3-1.542-.41-2.32a8.152 8.152 0 0 1-.074-.83 3.314 3.314 0 0 1 0-.141c-1.992-.058-8.67-2.728-5.03-1.684-2.96-1.693-4.692-4.045-5.453-7.34-.152-.657-.399-2.232-.399-2.232-1.196-2.953 1.077-9.454 5.53-12.054 2.82-1.645 5.326-2.317 7.528-2.305Zm.822.637c-2.065-.01-5.286.618-8.028 2.219-4.827 2.818-6.387 8.341-5.268 13.19 1.12 4.845 4.891 8.937 10.667 8.937a.32.32 0 0 1 .287.459c.004-.008-.004.008-.01.07-.007.055-.01.132-.008.23.005.195.028.453.07.762.08.617.224 1.412.401 2.273.272 1.327.617 2.797.912 3.988l3.213-8.389a.32.32 0 0 1 .235-.199c3.56-.727 5.85-2.5 7.024-4.947.976-2.034 1.4-3.373.894-6.228-.106-.6.17-.172 0-.798-.629-2.312-2.998-7.922-5.934-9.914-1.062-.72-3.476-1.806-4.854-2.052-1.378-.245.963.402.4.4v-.001Z"
    fill="#000" />
  <path
    d="M36.757 33.9c.761 3.295 2.493 5.647 5.453 7.34-3.64-1.044 3.038 1.626 5.03 1.684a3.056 3.056 0 0 0 0 .142c.005.228.032.51.074.83.084.64.232 1.452.41 2.319.356 1.735.834 3.708 1.165 4.996a.32.32 0 0 0 .607.035l3.512-9.171c1.95-.421 4.347-2.314 5.606-3.308M36.757 33.9c-.152-.657-.399-2.232-.399-2.232m.4 2.232-.4-2.232m22.256 7.099c.148-.117-1.255.989-1.116.864m1.116-.864-1.116.864m-21.14-7.963c-1.196-2.953 1.077-9.454 5.53-12.054 2.818-1.645 5.326-2.317 7.528-2.305 2.204.012 4.08.707 5.635 1.762 3.098 2.102 4.92 5.626 5.576 8.038 1.005 3.696.95 7.06-.319 9.706-.5 1.043-1.937 2.034-2.81 2.816m3.13-10.118c-.63-2.312-2.999-7.922-5.935-9.914-1.062-.72-3.476-1.806-4.854-2.052-1.378-.245.963.402.4.4-2.066-.012-5.287.617-8.029 2.218-4.827 2.818-6.387 8.341-5.268 13.19 1.12 4.845 4.891 8.937 10.667 8.937a.32.32 0 0 1 .287.459c.004-.008-.004.008-.01.07-.007.055-.01.132-.008.23.005.195.028.453.07.762.08.617.224 1.412.401 2.273.272 1.327.617 2.797.912 3.988l3.213-8.389a.32.32 0 0 1 .235-.199c3.56-.727 5.85-2.5 7.024-4.947.976-2.034 1.4-3.373.894-6.228m0-.798c.17.625-.106.199 0 .798m0-.798v.798"
    stroke="#000" stroke-width=".3" />
  <path
    d="M43.856 24.328c3.191-.798 3.303 2.952 4.388 4.786.217.367-.213-.385 1.595-4.786 2.74-4.664 4.388.399 4.388 2.792 0 4.008-4.785 12.764-6.78 11.567-1.995-1.197-7.257-13.442-3.59-14.359Z"
    fill="#AFE47C" stroke="#000" stroke-width=".8" />
  <path
    d="M19.696 70.1c-2.972-5.102-3.806-8.063-3.633-13.561 4.387-.798 11.146-2.605 17.528-3.802 3.59-.673 5.605 3.403 12.785 5.397 3.169-1.408 6.148-3.262 7.556-4.2 3.942-2.628 5.915-1.776 5.894-.799.494-.207 1.379-.511 2.902-.983 1.797-.557 3.298.561 2.65 1.97.407-.035 1.253-.095 2.934-.375 2.394-.399 2.372 2.818.777 2.979.664 0 2.066-.2 2.813 3.004.558 2.393-17.948 19.145-30.712 15.555-10.21-2.872-17.52-4.387-21.494-5.185Z"
    fill="#32CC86" />
  <path
    d="M33.453 52.525c1.023-.043.935.212 2.53.212.798.798 1.67.494 2.147.97-.452.136 1.088.896 1.862 1.336-.42-.71 1.48.775 2.348 1.158 2.02.524 3.96 1.593 6 2.367.806.55 4.395 2.146 5.477 2.317.115.627 1.38.788 1.853 1.201 0 .48.367 1.476.896 1.373.075.459.015.869-.185 1.219-.198.346-.514.603-.898.79-.756.369-1.843.506-3.073.514-2.475.016-5.725-.491-8.576-.96.924.478-3.75-.85-5.476-1.42l-1.178-.096-.633-.517a.32.32 0 0 1-.143-.377c.049-.146 1.028.477 1.175.495h.779l.817.352c1.49.492 2.32.52 3.988.845.253.049 1.37.59.776.088 2.016.63 8.92 1.58 8.466.951 1.773.508 2.178-.146 2.798-.449.305-.148.507-.328.624-.532.115-.201.165-.459.11-.8.388.343-.263-.625-.687-.995-.42-.366-1.007-.739-1.73-1.117-1.444-.758-4.374-1.933-5.406-2.285-.962-.445-5.75-2.44-5.75-2.44s-1.195-.398-4.686-2.566c-.794-.794-2.262-1.078-4.198-.996-1.914.08-4.183.51-6.474 1.034-1.143.261-2.287.544-3.391.816-1.102.272-2.165.534-3.142.75-.976.216-1.668.367-2.438.46-.667.081.875.174.399.104l-2.393.398v-.502c-.135-.06.106.15.139 0 .783-.146.56-.002.709 0l.349-.295c1.843.278.543-.2 1.196-.279.739-.09 2.62-.421 3.59-.636.968-.214.335-.347 1.438-.619 1.753-.235 2.252-.557 3.402-.82 2.296-.524 4.614-.967 6.59-1.05l-.001.001Z"
    fill="#000" />
  <path
    d="M57.123 52.338c.52-.093 1.367-.43 1.832-.282.41.13.776.37 1.086.727l.13.161.033.055a.32.32 0 0 1-.098.392c-.123.093.046.076-.065-.022l.065.022-.546-.188c-.238-.276-.55-.373-.842-.466-.34-.108-2.302.262-1.14-.11-1.352.317-3.507 1.705-3.507 1.705s-4.127 2.25-3.33 1.995c1.596-1.596-2.655 1.487-3.887 1.898a.32.32 0 0 1-.203-.606c.518-.173 2.096-1.292 1.6-.676s1.373-.737 2.075-1.163c1.612-.251 3.444-2.389 3.893-2.389 0 .455 1.872-.868 2.904-1.053Zm9.762 1.105c.717-.18 1.383-.236 1.94-.093.577.15 1.02.51 1.26 1.106.234.575.27 1.346.117 2.319l-.316-.05-.315-.049c.63-1.855-.084-1.546-.077-1.981.543-.351-.44-.627-.828-.727-.375-.433-1.173.376-1.626.094-.666.168-2.25.633-2.25.857-.277 0-6.071 3.601-8.864 5.795-.138.109-1.737 1.133-1.846.994a.32.32 0 0 1 .054-.447c3.388-2.142 8.174-5.732 10.38-6.917.845-.404.275.112 2.37-.9v-.001Zm3.317 3.332a.32.32 0 0 1-.631-.099l.63.099Z"
    fill="#000" />
  <path
    d="M71.162 59.916c.32-.399-.14-1.475-.365-1.883-.22-.396-.367-.507-.761-.61-.407-.106-.555-.258-1.172-.114-.673-.185-2.966.613-1.37.415-1.501.689-4.407 2.09-6.11 3.137-1.694 1.043-3.401 2.123-4.908 2.927a.32.32 0 0 1-.301-.563c.652-.348 2.228-1.285 2.942-1.713.91-.547-1.434 1.601 1.933-1.194.552-.34 1.107-.474 1.657-.8 1.143-.679 2.393-1.197 3.307-1.986.77-.354 1.207-.65 1.878-.807.669-.155 1.597-.177 2.144-.034.56.146 1.446 1.63 1.319 1.033.446 0 .924 1.395.446 2.192a.32.32 0 0 1-.64 0Zm-7.576-8.461c.468-.056-.48.447 1.278.21.686.407.724 1.359 1.173 1.613-.021.332-.183.642-.45.925-.263.281-.643.55-1.136.81-.156.082-.465.156-.548 0-.082-.156.392-.383.548-.466l.413-.098c.29-.177.486-.756.635-.914.197-.21-.108-.156-.1-.297.018-.277-.203-.634-.86-1.024-.206-.122-.492-.172-.88-.126-.385.046-.846.184-1.374.404-1.054.44-2.317 1.18-3.69 2.055-2.67 1.78-5.877 3.994-8.514 5.258a.319.319 0 1 1-.275-.576c2.132-.51 5.67-3.452 8.446-5.22-.331.722 2.678-1.645 3.788-2.107-.53.59 1.077-.392 1.546-.447Z"
    fill="#000" />
  <path
    d="M60.106 53.391a.32.32 0 0 0 .098-.392l-.034-.055-.129-.16a2.368 2.368 0 0 0-1.086-.728c-.465-.148-1.31.189-1.832.282-1.032.185-2.904 1.508-2.904 1.053-.449 0-2.28 2.138-3.893 2.389-.702.426-2.57 1.779-2.075 1.163.496-.616-1.08.503-1.6.676a.32.32 0 0 0 .203.606c1.232-.41 5.483-3.494 3.887-1.898-.797.255 3.33-1.995 3.33-1.995s2.155-1.388 3.507-1.705c-1.162.372.801.002 1.14.11.293.093.604.19.842.466l.546.188Zm0 0c-.123.093.046.076-.065-.022l.065.022Zm10.096 3.384c.153-.973.117-1.743-.115-2.32a1.784 1.784 0 0 0-1.262-1.105c-.557-.143-1.223-.087-1.94.093-2.096 1.013-1.526.497-2.372.9-2.205 1.186-6.99 4.776-10.38 6.917a.32.32 0 0 0-.053.448c.11.139 1.708-.885 1.846-.994 2.793-2.194 8.587-5.795 8.863-5.795 0-.224 1.585-.69 2.251-.857.453.282 1.25-.527 1.626-.094.39.1 1.371.376.828.727-.007.435.708.126.077 1.981m0 0 .315.049.315.05m-.63-.099a.32.32 0 0 0 .63.099m-.63-.099.63.099m-36.748-4.25c-1.975.082-4.293.525-6.589 1.05-1.15.262-1.65.584-3.402.82-1.103.271-.47.404-1.438.618-.969.215-2.85.547-3.59.636-.653.08.647.557-1.197.279l-.348.295c-.149-.002.074-.146-.709 0-.033.15-.274-.06-.14 0v.502l2.394-.398c.476.07-1.066-.023-.399-.104.77-.093 1.462-.244 2.438-.46.977-.216 2.04-.478 3.142-.75 1.104-.272 2.248-.555 3.391-.816 2.29-.523 4.56-.954 6.474-1.035 1.936-.08 3.404.203 4.198.997 3.49 2.168 4.687 2.566 4.687 2.566s4.787 1.995 5.75 2.44c1.03.352 3.961 1.528 5.405 2.285.723.378 1.31.75 1.73 1.117.424.37 1.075 1.338.686.995.056.341.006.599-.109.8-.117.204-.32.384-.624.532-.62.303-1.025.957-2.798.45.453.629-6.45-.323-8.466-.952.595.502-.523-.04-.776-.088-1.667-.324-2.498-.353-3.988-.845l-.817-.352h-.779c-.147-.018-1.126-.641-1.175-.495a.32.32 0 0 0 .143.377l.633.517 1.178.095c1.727.57 6.4 1.9 5.476 1.42 2.851.47 6.101.977 8.576.96 1.23-.007 2.317-.144 3.073-.513.384-.187.7-.444.898-.79.2-.35.26-.76.185-1.22-.53.104-.896-.891-.896-1.372-.474-.413-1.738-.574-1.853-1.201-1.08-.171-4.67-1.766-5.476-2.317-2.042-.774-3.98-1.843-6-2.367-.869-.383-2.768-1.869-2.35-1.158-.773-.44-2.313-1.2-1.86-1.335-.478-.477-1.35-.173-2.147-.971-1.596 0-1.509-.255-2.53-.212Zm37.71 7.391c.32-.399-.14-1.475-.366-1.883-.22-.396-.367-.507-.76-.61-.408-.106-.556-.258-1.173-.114-.673-.185-2.966.613-1.37.415-1.5.689-4.407 2.09-6.11 3.137-1.694 1.043-3.4 2.123-4.908 2.927a.32.32 0 0 1-.3-.563c.651-.348 2.227-1.285 2.941-1.713.911-.547-1.434 1.601 1.933-1.194.552-.34 1.107-.474 1.657-.8 1.143-.679 2.393-1.197 3.307-1.986.77-.354 1.207-.65 1.878-.807.67-.155 1.597-.177 2.144-.034.56.146 1.446 1.63 1.32 1.033.445 0 .923 1.395.445 2.192a.32.32 0 0 1-.638 0Zm-7.577-8.461c.468-.056-.48.447 1.278.21.686.407.724 1.359 1.173 1.613-.02.332-.183.642-.449.925-.264.281-.644.55-1.137.81-.156.082-.465.156-.548 0-.082-.156.392-.383.548-.466l.413-.098c.29-.177.486-.756.635-.914.197-.21-.108-.156-.1-.297.018-.277-.203-.634-.86-1.024-.206-.122-.492-.172-.879-.126-.386.046-.847.184-1.375.404-1.054.44-2.317 1.18-3.69 2.055-2.669 1.78-5.877 3.994-8.514 5.258a.318.318 0 0 1-.456-.271.32.32 0 0 1 .181-.305c2.132-.51 5.671-3.452 8.446-5.22-.33.722 2.678-1.645 3.788-2.107-.53.59 1.077-.392 1.546-.447Z"
    stroke="#000" stroke-width=".2" stroke-linecap="round" />
  <path
    d="M60.537 19.816a.892.892 0 0 0 .226-.054 6.4 6.4 0 0 0 .623-.255c.485-.266.924-.517 1.265-.721l.148-.092a.318.318 0 0 1 .213-.287 6.19 6.19 0 0 1 .29-.097.918.918 0 0 1 .14-.031.39.39 0 0 1 .138.007.326.326 0 0 1 .25.341l-.01.134-.1.086c-.123.105-.398.281-.74.486-.177.106-.378.223-.596.347l-.702.393-.01.005-.01.005a6.896 6.896 0 0 1-.7.285c-.134.05-.275.078-.417.086a.32.32 0 0 1-.008-.638Zm-1.357-5.763-.285 1.086c-.093.344-.18.662-.261.933-.163.544-.295.885-.396 1.128-.1.242-.168.38-.233.515a.32.32 0 0 1-.597-.218l.023-.06.097-.205c.194-.436.36-.885.494-1.344.08-.263.166-.574.257-.914l.283-1.082.023-.06a.319.319 0 0 1 .605.157l-.01.064Zm4.458-.541a.322.322 0 0 1-.04.101.745.745 0 0 1-.03.052c-.07.106-.253.34-.497.647-.251.316-.576.72-.95 1.191-.744.94-1.643 2.093-2.544 3.247a.32.32 0 0 1-.503-.393c.9-1.153 1.802-2.308 2.548-3.25l.806-1.013a.317.317 0 0 1 .078-.307c.173-.177.35-.357.467-.47.03-.03.059-.055.084-.077.02-.017.053-.048.09-.07a.327.327 0 0 1 .358.005.323.323 0 0 1 .133.337Zm-31.4 15.152c.017-.175-.074-.59.1-.572a.32.32 0 0 1 .287.348c-.086.876.028 2.985.087 3.38.212 1.483.359 3.51 1.127 4.702l-.25-.656.753 1.014a.32.32 0 0 1-.553.314c-1.998-4.18-1.6-7.793-1.472-5.315-.02-2.82-.24-2.233-.08-3.215Z"
    fill="#000" />
  <path
    d="m32.352 27.973.087.018c.194.06.326.25.305.461-.042.43-.036 1.168-.01 1.854.024.686.068 1.306.096 1.496.108.748.196 1.618.355 2.456a8.3 8.3 0 0 0 .436 1.572l.065-.035.75 1.014.01.01.005.013a.44.44 0 0 1-.76.431l-.005-.008-.005-.01c-1.006-2.103-1.408-4.065-1.543-5.19a8.278 8.278 0 0 1-.057-.682 2.743 2.743 0 0 1 .005-.278.265.265 0 0 1 .017-.066.136.136 0 0 1 .078-.074c-.01-.454-.04-.908-.09-1.36-.018-.161-.032-.277-.03-.413 0-.135.018-.288.057-.531a1.078 1.078 0 0 0 0-.146c-.004-.061-.01-.134-.01-.2a.563.563 0 0 1 .034-.202.218.218 0 0 1 .075-.096.192.192 0 0 1 .065-.03l.07-.004Zm.005.244a.494.494 0 0 0-.008.09c0 .056.003.12.007.185.003.061.006.129 0 .183v.008c-.04.244-.055.384-.056.502-.002.118.01.217.029.383.038.333.098.896.108 2.31l-.077.002.015.146c.133 1.103.528 3.032 1.515 5.103a.2.2 0 0 0 .35-.063.198.198 0 0 0-.006-.13l-.323-.436-.173.087c-.396-.616-.628-1.44-.788-2.285-.16-.844-.251-1.73-.357-2.466-.03-.206-.074-.837-.1-1.522-.024-.685-.031-1.439.014-1.886a.199.199 0 0 0-.15-.211Z"
    fill="#000" />
</svg>