<svg width="112" height="112" viewBox="0 0 112 112" fill="none" xmlns="http://www.w3.org/2000/svg">
<path d="M45.4167 46.6484C45.2111 46.9567 44.9029 47.3677 44.0809 48.1897C43.8754 48.2925 43.6699 48.3952 43.4644 48.498" stroke="#32CC86" stroke-width="0.4" stroke-linecap="round"/>
<path d="M45.314 48.6034C45.0057 48.3979 44.3892 47.6787 43.6699 46.7539M99.2589 74.086C99.0534 74.3943 98.7452 74.8053 97.9231 75.6273C97.7176 75.7301 97.5121 75.8328 97.3066 75.9356" stroke="#32CC86" stroke-width="0.4" stroke-linecap="round"/>
<path d="M99.1561 76.035C98.8478 75.8295 98.2313 75.1102 97.512 74.1855M58.8772 18.6992C58.5689 19.1102 58.2607 19.5212 57.2332 20.5488C56.9249 20.7543 56.7194 20.857 56.4111 20.9598" stroke="#32CC86" stroke-width="0.4" stroke-linecap="round"/>
<path d="M58.7743 21.0652C58.3633 20.757 57.644 19.935 56.7192 18.8047" stroke="#32CC86" stroke-width="0.4" stroke-linecap="round"/>
<path d="M80.0438 15.1055C79.9411 15.1055 79.8383 15.1055 79.7355 15.1055C79.7355 15.311 79.53 15.5165 79.4273 15.722C79.4273 15.722 79.4273 15.9275 79.4273 16.0302C79.3245 16.3385 79.119 16.7495 78.9135 17.1605C78.297 18.2908 77.7833 19.5238 77.1667 20.6541C77.1667 20.8596 77.1667 20.9623 77.2695 21.0651C77.3722 21.0651 77.5777 21.0651 77.6805 20.9623C78.297 19.7293 78.9135 18.4963 79.4273 17.4688C79.6328 16.955 79.9411 16.544 80.0438 16.2357C80.2493 15.9275 80.3521 15.6192 80.3521 15.5165C80.3521 15.4137 80.3521 15.311 80.1466 15.2082L80.0438 15.1055ZM75.42 16.6468C75.42 16.544 75.4199 16.4412 75.2144 16.4412C75.0089 16.4412 74.9062 16.4412 74.8034 16.6468V17.777C74.8034 18.0853 74.8034 18.3935 74.8034 18.7018C74.8034 19.2156 74.8034 19.5238 74.7007 19.7293C74.7007 19.8321 74.7007 19.9348 74.7007 20.0376V20.2431C74.7007 20.3458 74.7007 20.5513 74.9062 20.5513C75.1117 20.5513 75.2145 20.5513 75.3172 20.3458C75.3172 20.1403 75.3172 20.0376 75.42 19.8321C75.42 19.6266 75.42 19.2156 75.5227 18.7018C75.5227 18.3935 75.5227 18.0853 75.5227 17.777V16.7495L75.42 16.6468ZM82.2016 20.2431C82.2016 20.0376 82.0988 19.9348 81.8933 19.9348C81.6878 19.9348 81.8933 19.9348 81.7906 19.9348C81.7906 19.9348 81.7906 19.9348 81.6878 19.9348C81.6878 19.9348 81.4823 19.9348 81.4823 20.0376C81.4823 20.0376 81.2768 20.2431 81.3796 20.3458C81.3796 20.3458 81.3796 20.3458 81.2768 20.4486C80.9686 20.6541 80.6603 21.0651 80.2493 21.3734C80.0438 21.5789 79.8383 21.6816 79.7355 21.6816C79.7355 21.6816 79.6328 21.6816 79.53 21.6816C79.3245 21.6816 79.2218 21.8871 79.3245 21.9899C79.3245 22.1954 79.53 22.2981 79.7355 22.1954C79.8383 22.1954 79.9411 22.1954 80.1466 21.9899C80.3521 21.8871 80.5576 21.7844 80.7631 21.5789L81.3796 21.0651C81.5851 20.9623 81.6878 20.7568 81.8933 20.6541C82.0988 20.4486 82.3044 20.2431 82.5099 20.0376V19.8321L82.2016 20.2431Z" fill="black"/>
<path d="M45.2109 23.4271C43.4641 24.0436 40.4843 26.5096 42.2311 31.339C44.3889 37.2986 34.8329 50.9647 23.2219 59.2876C22.3999 59.2876 20.6531 58.9794 18.8036 57.8491C16.8513 56.9243 15.6183 55.6913 15.1045 55.0748C15.31 40.895 21.1669 25.1739 27.332 23.6326C32.2641 22.3995 32.5724 18.495 32.0586 16.6454C31.6476 14.7959 32.7779 15.2069 32.7779 15.2069L35.7577 16.7482L45.9302 22.0913C45.9302 22.0913 46.9577 22.8105 45.2109 23.4271Z" fill="#32CC86"/>
<path d="M32.5726 15.001L46.1359 22.0909C46.7524 22.3992 46.9579 23.1184 46.6496 23.6322C46.3414 24.2487 45.6221 24.4542 45.1083 24.146L31.545 17.056C30.9285 16.7478 30.723 16.0285 31.0313 15.5148C31.3395 14.8982 32.0588 14.6927 32.5726 15.001Z" fill="#AFE47C"/>
<mask id="path-8-outside-1_11572_93727" maskUnits="userSpaceOnUse" x="13.4771" y="50.7773" width="79" height="46" fill="black">
<rect fill="white" x="13.4771" y="50.7773" width="79" height="46"/>
<path d="M28.9764 59.7005L69.5635 52.0969C79.2223 50.2473 88.5727 56.618 90.3195 66.2767C92.169 75.9354 85.7984 85.2858 76.1397 87.0326L35.5525 94.6363C25.8938 96.4858 16.5434 90.1152 14.7966 80.4565C12.947 70.7978 19.3177 61.4473 28.9764 59.7005Z"/>
</mask>
<path d="M28.9764 59.7005L69.5635 52.0969C79.2223 50.2473 88.5727 56.618 90.3195 66.2767C92.169 75.9354 85.7984 85.2858 76.1397 87.0326L35.5525 94.6363C25.8938 96.4858 16.5434 90.1152 14.7966 80.4565C12.947 70.7978 19.3177 61.4473 28.9764 59.7005Z" fill="#32CC86"/>
<path d="M28.9764 59.7005C32.1734 59.1694 35.3698 58.635 38.5655 58.0974C48.9458 56.351 59.3195 54.5701 69.6868 52.7546C78.6275 50.9411 88.0884 57.5527 89.4169 66.4399C91.2615 75.2418 84.7981 84.6678 75.9617 86.0486C75.9555 86.0497 75.9555 86.0497 75.9555 86.0497C62.4265 88.5843 48.9085 91.178 35.4016 93.8308C26.5935 95.8279 16.8536 89.462 15.2812 80.3688C14.0229 74.5665 16.0497 68.1557 20.4851 64.0636C22.8243 61.8698 25.7949 60.337 28.9764 59.7005C25.772 60.2052 22.7027 61.6292 20.2308 63.7812C15.5475 67.7845 13.1642 74.3806 14.3129 80.5491C15.6706 90.2096 25.9882 97.4586 35.7067 95.4412C49.2546 93.0255 62.7948 90.5501 76.3238 88.0155H76.3238C86.2399 86.4664 93.3914 75.8349 91.2204 66.1042C89.6195 56.242 79.0229 49.2388 69.4377 51.4396C59.1189 53.4995 48.804 55.5944 38.4956 57.7239C35.3219 58.3795 32.1488 59.0384 28.9764 59.7005Z" fill="black" mask="url(#path-8-outside-1_11572_93727)"/>
<path d="M76.6538 84.4629L34.6274 92.374L28.8735 61.5488L70.8989 53.6367L76.6538 84.4629Z" fill="#AFE47C"/>
<path d="M76.6538 84.4629L34.6274 92.374L28.8735 61.5488L70.8989 53.6367L76.6538 84.4629Z" stroke="black"/>
<path d="M27.0241 86.5169C29.0103 86.5169 30.6204 84.9067 30.6204 82.9205C30.6204 80.9344 29.0103 79.3242 27.0241 79.3242C25.0379 79.3242 23.4277 80.9344 23.4277 82.9205C23.4277 84.9067 25.0379 86.5169 27.0241 86.5169Z" fill="#AFE47C"/>
<path d="M28.21 89.4691C29.3814 89.2498 30.2633 88.7104 30.1798 88.2641C30.0963 87.8179 29.079 87.6339 27.9076 87.8531C26.7362 88.0723 25.8543 88.6118 25.9378 89.058C26.0213 89.5042 27.0386 89.6883 28.21 89.4691Z" fill="#AFE47C"/>
<path d="M78.7252 80.6487C79.8965 80.4295 80.7784 79.8901 80.6949 79.4438C80.6114 78.9976 79.5941 78.8135 78.4227 79.0328C77.2513 79.252 76.3695 79.7914 76.453 80.2377C76.5365 80.6839 77.5538 80.868 78.7252 80.6487Z" fill="#AFE47C"/>
<path d="M83.7095 79.7386C84.8809 79.5194 85.7628 78.9799 85.6793 78.5337C85.5958 78.0874 84.5785 77.9034 83.4071 78.1226C82.2357 78.3418 81.3538 78.8813 81.4373 79.3275C81.5209 79.7738 82.5381 79.9578 83.7095 79.7386Z" fill="#AFE47C"/>
<path d="M79.9411 76.6536C81.9273 76.6536 83.5374 75.0435 83.5374 73.0573C83.5374 71.0711 81.9273 69.4609 79.9411 69.4609C77.9549 69.4609 76.3447 71.0711 76.3447 73.0573C76.3447 75.0435 77.9549 76.6536 79.9411 76.6536Z" fill="#AFE47C"/>
<path d="M75.1119 64.3224C75.9064 64.3224 76.5504 63.6783 76.5504 62.8838C76.5504 62.0894 75.9064 61.4453 75.1119 61.4453C74.3174 61.4453 73.6733 62.0894 73.6733 62.8838C73.6733 63.6783 74.3174 64.3224 75.1119 64.3224Z" fill="#AFE47C"/>
<path d="M80.7632 63.295C81.5577 63.295 82.2018 62.651 82.2018 61.8565C82.2018 61.062 81.5577 60.418 80.7632 60.418C79.9688 60.418 79.3247 61.062 79.3247 61.8565C79.3247 62.651 79.9688 63.295 80.7632 63.295Z" fill="#AFE47C"/>
<path d="M77.3726 61.0333C78.1671 61.0333 78.8111 60.3893 78.8111 59.5948C78.8111 58.8003 78.1671 58.1562 77.3726 58.1562C76.5781 58.1562 75.9341 58.8003 75.9341 59.5948C75.9341 60.3893 76.5781 61.0333 77.3726 61.0333Z" fill="#AFE47C"/>
<path d="M78.4 66.5841C79.1944 66.5841 79.8385 65.94 79.8385 65.1456C79.8385 64.3511 79.1944 63.707 78.4 63.707C77.6055 63.707 76.9614 64.3511 76.9614 65.1456C76.9614 65.94 77.6055 66.5841 78.4 66.5841Z" fill="#AFE47C"/>
<path d="M22.1944 74.2911C22.9889 74.2911 23.6329 73.6471 23.6329 72.8526C23.6329 72.0581 22.9889 71.4141 22.1944 71.4141C21.3999 71.4141 20.7559 72.0581 20.7559 72.8526C20.7559 73.6471 21.3999 74.2911 22.1944 74.2911Z" fill="#AFE47C"/>
<path d="M27.8458 73.1583C28.6402 73.1583 29.2843 72.5143 29.2843 71.7198C29.2843 70.9253 28.6402 70.2812 27.8458 70.2812C27.0513 70.2812 26.4072 70.9253 26.4072 71.7198C26.4072 72.5143 27.0513 73.1583 27.8458 73.1583Z" fill="#AFE47C"/>
<path d="M24.4551 70.9005C25.2496 70.9005 25.8937 70.2565 25.8937 69.462C25.8937 68.6675 25.2496 68.0234 24.4551 68.0234C23.6607 68.0234 23.0166 68.6675 23.0166 69.462C23.0166 70.2565 23.6607 70.9005 24.4551 70.9005Z" fill="#AFE47C"/>
<path d="M25.5855 76.5489C26.38 76.5489 27.024 75.9049 27.024 75.1104C27.024 74.3159 26.38 73.6719 25.5855 73.6719C24.791 73.6719 24.147 74.3159 24.147 75.1104C24.147 75.9049 24.791 76.5489 25.5855 76.5489Z" fill="#AFE47C"/>
<path d="M46.3412 62.3715C46.444 62.3715 46.7523 62.3714 47.1633 62.2687C47.5743 62.2687 48.088 62.1659 48.7045 62.0632C49.8348 61.8577 56.822 60.6247 58.2605 60.3164C58.3633 60.3164 58.5688 60.3164 58.5688 60.5219C58.5688 60.7274 58.466 60.8302 58.2605 60.9329C56.822 61.1384 49.8348 62.4742 48.7045 62.6797L47.4715 62.8852C47.4715 62.8852 47.266 63.0907 47.1633 63.0907C46.9578 63.0907 46.6495 63.0907 46.5467 63.0907H46.444C46.444 63.0907 46.444 63.0907 46.3412 63.0907C46.2385 63.0907 46.1357 62.988 46.1357 62.8852C46.1357 62.8852 46.1357 62.7825 46.1357 62.6797C46.1357 62.6797 46.1357 62.577 46.2385 62.577L46.3412 62.3715Z" fill="white"/>
<path d="M88.8809 65.4521C89.3946 66.1714 90.7304 67.3016 92.3744 65.7603C94.5322 63.808 92.6827 59.3897 95.2515 58.1567C97.9231 56.9236 102.341 60.3145 102.341 60.3145" stroke="#32CC86"/>
<path d="M64.1174 30.3135C64.1174 30.3135 59.6991 28.3612 56.6165 28.0529C52.8147 27.7447 50.3486 28.1557 48.4991 28.5667C47.4716 28.7722 46.9578 29.7997 47.4716 30.7245L57.3358 48.1924C57.644 48.9117 58.4661 49.2199 59.1853 49.0144C64.4257 47.2676 68.9468 44.0823 74.3927 46.3428L64.0147 30.2107L64.1174 30.3135Z" fill="#AFE47C"/>
<path d="M65.042 32.057C65.042 32.057 65.2475 28.8716 68.6383 27.0221C73.1594 24.6588 74.7007 23.1175 75.7282 23.323C76.0365 23.323 76.242 23.6313 76.4475 23.8368L85.2842 37.2973C85.798 38.0166 85.5924 38.9414 84.8732 39.4551C80.3521 42.1267 75.9337 40.7909 74.4952 46.4423L65.042 32.057Z" fill="#AFE47C"/>
<path d="M65.3503 30.0045C65.3503 30.0045 61.2402 28.155 58.3632 27.9494C54.7668 27.6412 51.8898 27.9494 50.143 28.3605C49.2182 28.566 48.7045 29.5935 49.2182 30.4155L58.0549 47.0614C58.3632 47.6779 59.1852 47.9861 59.8017 47.7806C64.6311 46.1366 69.0494 43.6705 74.187 45.7256L65.3503 30.0045Z" fill="#32CC86"/>
<path d="M65.2476 29.9001C65.2476 29.9001 65.2476 26.8175 68.4329 25.1735C72.6457 22.9129 75.3173 23.0157 76.2421 23.3239C76.5503 23.3239 76.7558 23.6322 76.9613 23.9404L85.1815 36.579C85.5925 37.1955 85.4898 38.1202 84.7705 38.5313C80.5577 40.9973 75.6255 40.3808 74.2898 45.7239L65.3503 29.9001H65.2476Z" fill="#32CC86"/>
<path opacity="0.5" d="M74.4954 26.9219C74.4954 26.9219 74.3926 26.9219 74.2899 27.0246C73.0569 27.8466 71.5156 28.1549 70.2825 28.9769C69.666 29.3879 69.255 30.2099 68.6385 30.5182C68.6385 30.5182 68.6385 30.5182 68.5357 30.5182C68.5357 30.5182 68.5357 30.5182 68.433 30.5182C68.433 30.5182 68.3302 30.5182 68.2275 30.621V30.7237C68.3302 30.7237 68.433 30.7237 68.433 30.7237C68.433 30.7237 68.433 30.7237 68.5357 30.7237C68.5357 30.7237 68.6385 30.7237 68.7413 30.7237C69.4605 30.3127 69.9743 29.5934 70.5908 29.2852C71.8238 28.4632 73.1596 27.9494 74.3926 27.1274C74.3926 27.1274 74.3926 27.0246 74.4954 27.0246V26.9219ZM75.9339 29.0797C75.9339 29.0797 75.8312 29.0797 75.7284 29.1824C74.4954 30.0044 72.9541 30.3127 71.7211 31.1347C71.1046 31.5457 70.6935 32.3677 70.077 32.676C70.077 32.676 70.077 32.676 69.9743 32.676C69.9743 32.676 69.9743 32.676 69.8715 32.676C69.8715 32.676 69.7688 32.676 69.666 32.7788V32.8815C69.7688 32.8815 69.8715 32.8815 69.8715 32.8815C69.9743 32.8815 70.077 32.8815 70.1798 32.676C70.8991 32.265 71.4128 31.5457 72.0293 31.2375C73.2624 30.4155 74.5981 29.9017 75.8312 29.0797C75.8312 29.0797 75.8312 29.0797 75.9339 28.9769V29.0797ZM65.4532 30.5182V30.4155C65.5559 30.4155 65.5559 30.4155 65.5559 30.5182V30.621C65.5559 30.621 65.5559 30.7237 65.6587 30.8265C66.8917 33.087 68.022 35.2448 69.255 37.5054C69.8715 38.6356 70.3853 39.6632 71.0018 40.6907L71.1046 40.8962C71.1046 40.8962 71.1046 40.9989 71.2073 41.1017C71.2073 41.2044 71.3101 41.3072 71.4128 41.4099C71.4128 41.5127 71.4128 41.6155 71.4128 41.7182C71.4128 41.7182 71.4128 41.7182 71.2073 41.7182C71.0018 41.7182 71.0018 41.5127 70.899 41.4099C70.899 41.4099 70.8991 41.3072 70.7963 41.2044C70.7963 41.1017 70.6935 40.9989 70.5908 40.8962C69.8715 39.7659 69.3578 38.7384 68.7413 37.6081C67.5082 35.3476 66.4807 33.087 65.2477 30.8265C65.2477 30.621 65.2477 30.5182 65.1449 30.5182H65.4532ZM71.4128 44.0815C67.611 43.1567 61.9596 45.3145 59.4935 46.6503L55.0752 38.3274C59.1853 34.731 64.8367 36.0668 67.3027 37.1971L71.4128 44.0815Z" fill="#AFE47C"/>
<path d="M91.9631 46.6511C91.9631 47.2676 91.4493 47.8841 90.7301 47.8841C90.1135 47.8841 89.497 47.3703 89.497 46.6511C89.497 46.0346 90.0108 45.418 90.7301 45.418C91.3466 45.418 91.9631 45.9318 91.9631 46.6511ZM23.6328 18.908C23.6328 19.4217 23.2218 19.73 22.8108 19.73C22.3998 19.73 21.9888 19.319 21.9888 18.908C21.9888 18.4969 22.3998 18.0859 22.8108 18.0859C23.2218 18.0859 23.6328 18.4969 23.6328 18.908Z" fill="#32CC86"/>
<path d="M15.6181 94.2245C16.1289 94.2245 16.5429 93.8105 16.5429 93.2998C16.5429 92.789 16.1289 92.375 15.6181 92.375C15.1074 92.375 14.6934 92.789 14.6934 93.2998C14.6934 93.8105 15.1074 94.2245 15.6181 94.2245Z" fill="#32CC86"/>
</svg>
