<svg width="16" height="16" viewBox="0 0 16 16" fill="none" xmlns="http://www.w3.org/2000/svg">
<path d="M2 8.66663C2 10.2579 2.63214 11.784 3.75736 12.9093C4.88258 14.0345 6.4087 14.6666 8 14.6666C8 11.3333 5.31333 8.66663 2 8.66663ZM8 3.66663C8.44203 3.66663 8.86595 3.84222 9.17851 4.15478C9.49107 4.46734 9.66667 4.89127 9.66667 5.33329C9.66667 5.77532 9.49107 6.19924 9.17851 6.5118C8.86595 6.82436 8.44203 6.99996 8 6.99996C7.55797 6.99996 7.13405 6.82436 6.82149 6.5118C6.50893 6.19924 6.33333 5.77532 6.33333 5.33329C6.33333 4.89127 6.50893 4.46734 6.82149 4.15478C7.13405 3.84222 7.55797 3.66663 8 3.66663ZM3.73333 6.83329C3.73333 7.27532 3.90893 7.69924 4.22149 8.0118C4.53405 8.32436 4.95797 8.49996 5.4 8.49996C5.75333 8.49996 6.08 8.38663 6.33333 8.20663V8.33329C6.33333 8.77532 6.50893 9.19924 6.82149 9.5118C7.13405 9.82436 7.55797 9.99996 8 9.99996C8.44203 9.99996 8.86595 9.82436 9.17851 9.5118C9.49107 9.19924 9.66667 8.77532 9.66667 8.33329V8.20663C9.92 8.38663 10.2467 8.49996 10.6 8.49996C11.042 8.49996 11.466 8.32436 11.7785 8.0118C12.0911 7.69924 12.2667 7.27532 12.2667 6.83329C12.2667 6.16663 11.8733 5.59996 11.3133 5.33329C11.8733 5.06663 12.2667 4.49329 12.2667 3.83329C12.2667 3.39127 12.0911 2.96734 11.7785 2.65478C11.466 2.34222 11.042 2.16663 10.6 2.16663C10.2467 2.16663 9.92 2.27329 9.66667 2.45996V2.33329C9.66667 1.89127 9.49107 1.46734 9.17851 1.15478C8.86595 0.842221 8.44203 0.666626 8 0.666626C7.55797 0.666626 7.13405 0.842221 6.82149 1.15478C6.50893 1.46734 6.33333 1.89127 6.33333 2.33329V2.45996C6.08 2.27329 5.75333 2.16663 5.4 2.16663C4.95797 2.16663 4.53405 2.34222 4.22149 2.65478C3.90893 2.96734 3.73333 3.39127 3.73333 3.83329C3.73333 4.49329 4.12667 5.06663 4.68667 5.33329C4.12667 5.59996 3.73333 6.16663 3.73333 6.83329ZM8 14.6666C9.5913 14.6666 11.1174 14.0345 12.2426 12.9093C13.3679 11.784 14 10.2579 14 8.66663C10.6667 8.66663 8 11.3333 8 14.6666Z" fill="currentColor"/>
</svg>
