<svg viewBox="0 0 20 20" fill="none" xmlns="http://www.w3.org/2000/svg">
  <g clip-path="url(#a)">
    <rect x=".833" y=".833" width="18.333" height="18.333" rx="2.5" fill="#333E48" />
    <path
      d="m6.224 5.833-.114.019c-.36.043-.706.173-.994.383-.065.037-.122.087-.186.137a.084.084 0 0 1-.013-.038c-.013-.068-.02-.142-.032-.21-.02-.111-.083-.168-.199-.168h-.301c-.186 0-.218.038-.218.212v5.369c.007.08.057.123.128.13h.558c.077 0 .121-.05.127-.13.007-.025.007-.05.007-.075V9.597c.026.025.045.037.058.05.468.377 1.007.5 1.597.39.538-.106.91-.421 1.147-.885.186-.353.262-.712.268-1.101.013-.427-.025-.838-.211-1.24-.218-.495-.59-.823-1.147-.934-.084-.02-.173-.026-.257-.038-.077-.006-.147-.006-.218-.006Zm4.27 0c-.025.006-.05.012-.075.012a3.911 3.911 0 0 0-.757.105c-.16.037-.314.093-.468.142-.096.03-.142.1-.142.198.007.08 0 .167 0 .247.007.124.059.156.18.125.206-.05.41-.105.616-.142.32-.056.647-.081.974-.038.173.031.333.075.442.217a.693.693 0 0 1 .142.414c.006.21.006.377.006.587 0 .013 0 .025-.006.03h-.032a4.837 4.837 0 0 0-.84-.123c-.295-.012-.59 0-.871.1-.34.111-.616.309-.776.63a1.288 1.288 0 0 0-.103.774c.058.36.238.631.564.804.315.167.648.185.994.136.398-.056.75-.217 1.057-.464.013-.013.026-.018.039-.03.02.099.032.192.052.278.012.08.064.13.141.136h.43a.125.125 0 0 0 .122-.123c.006-.019.006-.044.006-.069V7.14a1.997 1.997 0 0 0-.028-.322c-.05-.328-.192-.6-.5-.774a1.604 1.604 0 0 0-.57-.179c-.096-.013-.186-.019-.282-.031h-.314Zm2.223.001c-.064 0-.096.055-.083.117.012.05.032.106.051.155.513 1.225 1.032 2.45 1.55 3.68a.324.324 0 0 1 0 .298c-.082.185-.153.377-.243.562a.585.585 0 0 1-.397.34 1.094 1.094 0 0 1-.403.026c-.065-.007-.13-.019-.194-.025-.09-.007-.133.03-.14.123v.249c.006.142.051.204.198.229.142.024.289.042.443.048.448.006.801-.166 1.032-.543a3.22 3.22 0 0 0 .244-.464c.621-1.516 1.237-3.025 1.852-4.547a.488.488 0 0 0 .038-.137c.012-.074-.026-.111-.096-.11h-.518a.207.207 0 0 0-.205.13l-.039.104-.916 2.53c-.065.18-.136.365-.2.563-.013-.031-.02-.044-.026-.062-.34-.903-.672-1.806-1.012-2.709a8.53 8.53 0 0 0-.166-.434.172.172 0 0 0-.168-.117c-.199-.006-.397-.006-.602-.006Zm-6.5.642c.392.031.712.217.879.656.103.272.129.534.129.82 0 .265-.02.5-.102.754-.18.538-.59.749-1.117.724-.372-.018-.685-.155-.98-.353-.032-.019-.052-.048-.046-.08v-2.1c-.006-.037.014-.068.046-.086a1.86 1.86 0 0 1 1.192-.335Zm4.16 1.67c.11-.008.22-.006.33.006.217.019.436.055.654.086.045.006.057.025.057.062-.007.124 0 .242 0 .366 0 .123-.007.235-.007.36.007.03-.013.054-.038.073-.295.204-.616.34-.981.378a.95.95 0 0 1-.436-.044.517.517 0 0 1-.326-.34.851.851 0 0 1-.007-.49c.07-.21.224-.327.43-.395.105-.031.214-.052.324-.061Z"
      fill="#fff" />
    <path
      d="M16.882 12.083c-.492.006-1.074.106-1.515.385-.136.086-.112.204.04.188.495-.054 1.6-.174 1.797.053.198.228-.219 1.167-.403 1.587-.057.126.064.178.19.082.826-.624 1.04-1.932.872-2.12-.085-.094-.488-.18-.98-.175Zm-14.685.477c-.115.014-.165.146-.044.25 2.067 1.75 4.799 2.606 7.832 2.606 2.163 0 4.675-.637 6.409-1.837.286-.2.042-.498-.252-.38a16.47 16.47 0 0 1-5.977 1.147c-2.848 0-5.605-.537-7.835-1.756a.222.222 0 0 0-.133-.03Z"
      fill="#F8981C" />
  </g>
  <defs>
    <clipPath id="a">
      <rect width="20" height="20" rx="2.5" fill="#fff" />
    </clipPath>
  </defs>
</svg>