<svg width="25" height="24" fill="none" xmlns="http://www.w3.org/2000/svg">
  <mask id="a" fill="#fff">
    <path fill-rule="evenodd" clip-rule="evenodd"
      d="m16.05 3.244-.088.095c-.4.438-.648.687-.852.85a75.96 75.96 0 0 1-.577-.764c-.347-.449-.635-.774-.93-1.022-.36-.305-.717-.48-1.103-.48-.203.001-.4.049-.589.142-.464.226-.853.65-1.374 1.378-.066.091-.23.326-.329.468l-.075.108-.127.176-.02-.014c-.214-.164-.472-.415-.898-.86l-.083-.087c-.64-.672-.814-.848-1.081-1.067-.219-.177-.407-.291-.612-.342a.756.756 0 0 0-.92.492A8.28 8.28 0 0 0 5.9 5.146c0 4.423 2.42 7.454 6.6 7.454 4.181 0 6.6-3.031 6.6-7.454a8.277 8.277 0 0 0-.492-2.829.756.756 0 0 0-.919-.49c-.204.051-.389.168-.6.348-.259.22-.42.39-1.039 1.068M7.1 5.146c0-.648.086-1.283.251-1.887.16.15.366.363.785.803l.084.088c.47.49.756.768 1.036.984.546.417 1.048.565 1.468.085.113-.128.228-.282.388-.508l.086-.122.315-.448c.404-.564.702-.889.921-.996a.241.241 0 0 1 .066-.025c.047 0 .165.06.33.198.215.18.455.453.753.84-.039-.05.654.876.816 1.06.42.482.924.331 1.454-.089.271-.215.549-.494.995-.982l.089-.096c.375-.412.572-.624.72-.77.162.608.244 1.234.243 1.864 0 3.813-1.948 6.255-5.4 6.255-3.45 0-5.4-2.442-5.4-6.254Z" />
  </mask>
  <path
    d="M15.962 3.339 14.493 1.98l-.006.007 1.475 1.35Zm-.852.85-1.587 1.216L14.76 7.02l1.593-1.266-1.244-1.566Zm-.577-.764 1.603-1.196-.01-.014-.01-.013-1.583 1.223Zm-.93-1.022-1.292 1.526.005.004 1.287-1.53Zm-1.103-.48v-2h-.015l.015 2Zm-.589.142.874 1.8.011-.006-.885-1.794Zm-1.374 1.378 1.62 1.173.007-.01-1.627-1.163Zm-.329.468 1.639 1.147.004-.006-1.643-1.141Zm-.075.108 1.622 1.17.008-.012.008-.011-1.638-1.147Zm-.127.176-1.2 1.6 1.63 1.223 1.192-1.653-1.622-1.17Zm-.02-.014L8.771 5.769l.008.006.007.006 1.2-1.6Zm-.898-.86 1.445-1.383-.001-.001L9.088 3.32Zm-.083-.087-1.449 1.38.005.004 1.444-1.384ZM7.924 2.167 9.188.618 9.185.616 7.924 2.167Zm-.612-.342-.536 1.927.03.009.029.007.477-1.943Zm-.92.492 1.88.679.01-.027.009-.026-1.9-.626ZM5.9 5.146h2V5.14l-2 .005Zm13.2 0-2-.004v.004h2Zm-.492-2.829-1.898.63.008.025.01.025 1.88-.68Zm-.919-.49.49 1.939.022-.006.021-.006-.533-1.927Zm-.6.348L18.382 3.7l.005-.004-1.298-1.522ZM7.351 3.259l1.364-1.462L6.297-.458 5.422 2.73l1.93.53Zm.785.803L6.686 5.44l.006.006 1.444-1.384Zm.084.088 1.446-1.382-.002-.002L8.22 4.15Zm1.036.984L8.033 6.717l.008.005 1.215-1.588Zm1.468.085-1.502-1.32-.003.003 1.505 1.317Zm.388-.508L9.564 3.445l-.044.054-.04.057 1.632 1.155Zm.086-.122-1.636-1.15-.008.012 1.644 1.138Zm.315-.448L9.887 2.976l-.005.008-.006.008 1.637 1.15Zm.921-.996.875 1.799.054-.026.052-.03-.98-1.743Zm.066-.025v-2h-.217l-.213.047.43 1.953Zm.33.198L11.542 4.85l.006.005 1.28-1.537Zm.753.84-1.587 1.218 3.178-2.43-1.591 1.212Zm.816 1.06 1.508-1.313-.008-.01-1.5 1.323Zm1.454-.089 1.242 1.568-1.242-1.568Zm.995-.982L15.38 2.79l-.007.007 1.475 1.351Zm.089-.096 1.468 1.359.006-.007.005-.006-1.48-1.346Zm.72-.77 1.932-.516L18.7-.57l-2.45 2.431 1.408 1.42Zm.243 1.864-2-.002v.002h2Zm-1.85-1.901-1.469-1.358-.088.095 1.47 1.358 1.468 1.357.088-.095-1.469-1.357Zm-.088.095-1.475-1.35c-.406.444-.556.582-.62.633l1.243 1.566 1.244 1.566c.344-.273.689-.633 1.084-1.065l-1.476-1.35Zm-.852.85 1.588-1.217a72.756 72.756 0 0 1-.562-.743l-1.603 1.196-1.603 1.196c.196.263.394.524.593.784l1.587-1.217Zm-.577-.764 1.583-1.223c-.379-.49-.768-.945-1.225-1.33l-1.288 1.53-1.287 1.53c.133.114.32.308.635.716l1.582-1.223Zm-.93-1.022L14.896.876C14.342.407 13.54-.077 12.5-.077v4a.721.721 0 0 1-.257-.05c-.034-.015-.012-.011.068.056l1.292-1.526Zm-1.103-.48-.015-2a3.34 3.34 0 0 0-1.46.35l.886 1.792.886 1.794a.662.662 0 0 1-.28.064l-.017-2Zm-.589.142L11.037.266C10.082.731 9.445 1.532 8.91 2.28l1.627 1.163 1.627 1.163a5.65 5.65 0 0 1 .51-.641c.104-.106.135-.112.111-.1l-.874-1.8Zm-1.374 1.378L8.917 2.27c-.08.11-.255.362-.351.5l1.642 1.141 1.643 1.141c.101-.145.254-.364.306-.436l-1.62-1.173Zm-.329.468L8.57 2.764l-.076.108 1.639 1.147 1.638 1.147.076-.108-1.639-1.147Zm-.075.108L8.51 2.849l-.128.177 1.623 1.17 1.622 1.17.127-.177-1.622-1.17Zm-.127.176 1.2-1.6-.02-.014-1.2 1.6-1.2 1.6.02.014 1.2-1.6Zm-.02-.014 1.216-1.588c-.076-.058-.235-.201-.67-.655L9.089 3.32 7.643 4.703c.417.437.774.795 1.128 1.066l1.215-1.588Zm-.898-.86 1.444-1.384-.083-.087-1.444 1.384L7.56 4.618l.083.086 1.444-1.383Zm-.083-.087 1.448-1.379c-.62-.65-.882-.924-1.265-1.237l-1.264 1.55-1.265 1.549c.152.124.238.203.897.896l1.449-1.379ZM7.924 2.167 9.185.616C8.871.36 8.411.036 7.79-.117l-.477 1.942-.477 1.943a.847.847 0 0 1-.212-.081c-.027-.016-.019-.015.039.032l1.262-1.552Zm-.612-.342.535-1.927A2.756 2.756 0 0 0 5.81.123l.943 1.764.943 1.764c-.282.15-.612.187-.92.101l.536-1.927Zm-.56.062L5.81.123a2.756 2.756 0 0 0-1.318 1.569l1.9.625 1.899.626c-.1.304-.313.557-.595.708l-.943-1.764Zm-.36.43L4.51 1.64a10.28 10.28 0 0 0-.61 3.512l2-.005 2-.005a6.28 6.28 0 0 1 .373-2.145L6.39 2.317ZM5.9 5.146h-2c0 2.56.701 4.928 2.216 6.69C7.663 13.634 9.891 14.6 12.5 14.6v-4c-1.57 0-2.643-.55-3.351-1.372-.74-.86-1.249-2.219-1.249-4.082h-2Zm6.6 7.454v2c2.61 0 4.838-.966 6.384-2.764 1.516-1.762 2.216-4.13 2.216-6.69h-4c0 1.863-.508 3.222-1.248 4.082-.708.823-1.78 1.372-3.352 1.372v2Zm6.6-7.454 2 .004a10.281 10.281 0 0 0-.61-3.512l-1.882.68-1.88.679a6.28 6.28 0 0 1 .372 2.145l2 .004Zm-.492-2.829 1.899-.629A2.756 2.756 0 0 0 19.189.124l-.942 1.764-.942 1.765a1.244 1.244 0 0 1-.595-.706l1.898-.63Zm-.361-.429.942-1.764A2.756 2.756 0 0 0 17.156-.1l.533 1.928.534 1.927a1.244 1.244 0 0 1-.918-.101l.942-1.765Zm-.558-.061-.49-1.94c-.635.161-1.097.501-1.407.765l1.297 1.523 1.298 1.522c.052-.045.056-.043.023-.023a.89.89 0 0 1-.23.092l-.49-1.94Zm-.6.348L15.796.649c-.375.318-.625.59-1.223 1.245l1.477 1.349 1.477 1.348c.64-.7.712-.77.855-.89l-1.293-1.526ZM7.1 5.145h2c0-.472.063-.929.18-1.356l-1.929-.53-1.929-.529A9.132 9.132 0 0 0 5.1 5.146h2Zm.251-1.886L5.987 4.722c.106.1.267.263.7.718l1.449-1.378 1.45-1.378a22.578 22.578 0 0 0-.87-.887L7.35 3.259Zm.785.803L6.692 5.446l.084.088L8.22 4.15l1.444-1.384-.084-.088-1.444 1.384Zm.084.088L6.774 5.532c.475.497.85.87 1.259 1.185l1.223-1.583 1.222-1.583c-.15-.117-.349-.298-.812-.783L8.22 4.15Zm1.036.984L8.04 6.722c.364.28.976.685 1.762.777.967.114 1.828-.28 2.427-.963l-1.506-1.317L9.22 3.902a1.12 1.12 0 0 1 .415-.285c.23-.094.456-.112.638-.09.165.02.262.067.277.074.016.008-.009-.003-.078-.056L9.256 5.134Zm1.468.085 1.503 1.32c.185-.211.35-.436.518-.672L11.112 4.71 9.479 3.556a4.41 4.41 0 0 1-.257.343l1.502 1.32Zm.388-.508 1.548 1.267c.078-.095.181-.248.183-.25l-1.645-1.139-1.644-1.138-.029.041a6.146 6.146 0 0 1-.023.033l.003-.003a.883.883 0 0 1 .06-.077l1.547 1.266Zm.086-.122 1.637 1.15.314-.448-1.636-1.15-1.637-1.15-.314.448 1.636 1.15Zm.315-.448 1.625 1.166c.18-.25.3-.399.375-.479.035-.038.042-.042.023-.026a1.128 1.128 0 0 1-.227.142l-.875-1.799-.874-1.798c-.451.22-.784.55-.987.769-.23.25-.46.546-.686.86l1.626 1.165Zm.921-.996.981 1.744a1.76 1.76 0 0 1-.484.184l-.43-1.953-.431-1.953a2.24 2.24 0 0 0-.616.235l.98 1.743Zm.066-.025v2a1.911 1.911 0 0 1-.671-.122 1.487 1.487 0 0 1-.21-.099c-.069-.04-.094-.064-.076-.049l1.286-1.532 1.286-1.532a3.506 3.506 0 0 0-.494-.35 2.52 2.52 0 0 0-.353-.17 2.135 2.135 0 0 0-.768-.146v2Zm.33.198-1.281 1.537c.04.033.17.16.447.521l1.587-1.218 1.586-1.218c-.318-.414-.667-.831-1.06-1.158l-1.28 1.536Zm.753.84 1.59-1.212-.016-.021-.015-.02c-.001-.001-.023-.029-.052-.062a3.696 3.696 0 0 0-.165-.169c-.52-.34-2.913.242-3.226 2.158.062.153.16.341.185.382a4.019 4.019 0 0 0 .091.134l.022.03.075.1.251.332c.165.217.434.57.576.731l1.5-1.323 1.5-1.323c.007.008-.029-.035-.123-.156a38.15 38.15 0 0 1-.505-.663l-.068-.09c-.008-.01-.01-.015-.01-.015l.004.006c0 .002.004.006.008.011l.01.014.025.037.039.06c.025.04.123.229.184.381-.313 1.917-2.705 2.499-3.225 2.158a3.662 3.662 0 0 1-.165-.169c-.03-.033-.051-.06-.053-.062a1.733 1.733 0 0 1-.014-.018l-.01-.014a.137.137 0 0 1-.004-.005l1.59-1.212Zm.816 1.06L12.89 6.53c.598.687 1.464 1.085 2.438.966.792-.097 1.404-.513 1.767-.8l-1.242-1.568-1.241-1.568c-.063.05-.083.057-.062.046.02-.01.122-.06.291-.08.187-.023.417-.005.648.09.223.091.358.218.418.288L14.4 5.218Zm1.454-.089 1.242 1.568c.408-.323.778-.708 1.228-1.198l-1.475-1.352-1.475-1.35c-.443.483-.627.657-.761.764l1.241 1.568Zm.995-.982 1.468 1.358.089-.095-1.468-1.359-1.468-1.358-.09.096 1.469 1.358Zm.089-.096 1.48 1.346c.38-.418.543-.591.648-.696l-1.408-1.42-1.409-1.42c-.19.188-.42.437-.79.844l1.479 1.346Zm.72-.77-1.932.516a5.2 5.2 0 0 1 .175 1.346l2 .002 2 .001a9.2 9.2 0 0 0-.31-2.38l-1.933.515Zm.243 1.864h-2c0 1.588-.406 2.643-.933 3.267-.49.578-1.248.988-2.467.988v4c2.233 0 4.174-.811 5.522-2.407 1.31-1.55 1.878-3.623 1.878-5.848h-2ZM12.5 11.4v-2c-1.218 0-1.977-.41-2.466-.988-.527-.624-.934-1.678-.934-3.266h-4c0 2.224.568 4.297 1.879 5.848C8.327 12.589 10.267 13.4 12.5 13.4v-2Z"
    fill="#4D4D4D" mask="url(#a)" />
  <path d="M11.9 13.2a.6.6 0 0 1 1.2 0V21a.6.6 0 0 1-1.2 0v-7.8Z" fill="#4D4D4D" />
  <path fill-rule="evenodd" clip-rule="evenodd"
    d="M15.008 16.078c-2.37 1.989-3.945 4.543-2.853 5.845 1.115 1.329 4.631.495 6.708-1.248 2.022-1.697 2.919-4.082 1.794-5.421-1.124-1.34-3.628-.873-5.65.824Zm3.084 3.677c-1.635 1.373-4.474 2.045-5.016 1.397-.437-.52.84-2.592 2.702-4.155 1.582-1.327 3.38-1.663 3.96-.972.58.692-.065 2.403-1.646 3.73Z"
    fill="#4D4D4D" />
  <path fill-rule="evenodd" clip-rule="evenodd"
    d="M9.632 16.078c2.37 1.989 3.946 4.543 2.853 5.845-1.114 1.329-4.631.495-6.708-1.248-2.022-1.697-2.917-4.082-1.793-5.421 1.124-1.34 3.626-.873 5.648.824ZM6.55 19.755c1.635 1.373 4.473 2.045 5.017 1.397.437-.52-.84-2.592-2.704-4.155-1.581-1.327-3.379-1.663-3.96-.972-.578.69.065 2.403 1.647 3.73Z"
    fill="#4D4D4D" />
</svg>