<svg width="110" height="109" fill="none" xmlns="http://www.w3.org/2000/svg">
  <path
    d="M62.357 73.214H46.692a.199.199 0 0 0-.196.17l-1.404 8.947a.2.2 0 0 0 .308.198l4.146-2.725a.2.2 0 0 1 .303.115l4.784 17.855c.053.2.338.196.387-.005l4.372-17.84a.2.2 0 0 1 .305-.119l4.064 2.71a.2.2 0 0 0 .309-.2l-1.52-8.94a.196.196 0 0 0-.193-.166Z"
    fill="#32CC86" />
  <path
    d="M77.25 76.962c.002.002 0 .005-.002.004L65.61 71.512c-1.2-.57-2.52-.86-3.85-.87l-6.12-.02-8.22.02c-1.33.01-2.65.3-3.85.87l-11.272 5.282a.302.302 0 0 1-.424-.246c-1.662-16.273 7.73-22.085 9.227-22.903a.308.308 0 0 0 .155-.332 51.062 51.062 0 0 1-.896-9.501c0-8.75 2.33-16.09 5.11-21.72.06-.139.128-.268.198-.396l.002-.006c.001-.007.012-.012.015-.019a35.67 35.67 0 0 1 1.112-2.106c.008-.015.024-.027.03-.042.003-.007.005-.015.009-.022.258-.456.516-.893.774-1.32.29-.48.58-.94.86-1.38.23-.34.45-.67.66-.99a47.74 47.74 0 0 1 4.21-5.33l.43-.46.19-.19c.17-.18.32-.32.42-.42.037-.036.074-.068.099-.094.015-.016.03-.032.046-.046a.841.841 0 0 0 .06-.055.013.013 0 0 1 .018-.002l.04.033.028.022c.011.01.024.028.034.038l.055.055c.067.057.171.161.295.293.01.011.02.021.032.03.042.038.078.082.123.127l.16.16c.05.06.11.12.17.18.54.55 1.26 1.36 2.09 2.39.18.22.36.45.56.7.12.14.23.29.35.45.23.31.47.63.72.97.06.08.11.16.17.24.18.26.37.53.57.81.24.35.49.72.73 1.1.11.17.22.34.33.52.11.17.22.35.33.53.34.54.68 1.11 1 1.7.11.19.22.39.33.59.25.45.5.91.74 1.39 0 0 .012.024.017.044.002.009.013.017.013.026 0 .024.024.042.033.065a.89.89 0 0 0 .087.165c.03.06.06.13.09.19 3.738 7.575 6.665 18.235 4.213 31.27a.31.31 0 0 0 .155.333c1.51.825 11.052 6.73 9.182 23.325v.002Z"
    fill="#AFE47C" />
  <mask id="a" style="mask-type:alpha" maskUnits="userSpaceOnUse" x="31" y="9" width="47" height="68">
    <path
      d="M77.25 76.962c.002.002 0 .005-.002.004L65.61 71.512c-1.2-.57-2.52-.86-3.85-.87l-6.12-.02-8.22.02c-1.33.01-2.65.3-3.85.87l-11.272 5.282a.302.302 0 0 1-.424-.246c-1.662-16.273 7.73-22.085 9.227-22.903a.308.308 0 0 0 .155-.332 51.062 51.062 0 0 1-.896-9.501c0-8.75 2.33-16.09 5.11-21.72.06-.139.128-.268.198-.396l.002-.006c.001-.007.012-.012.015-.019a35.67 35.67 0 0 1 1.112-2.106c.008-.015.024-.027.03-.042.003-.007.005-.015.009-.022.258-.456.516-.893.774-1.32.29-.48.58-.94.86-1.38.23-.34.45-.67.66-.99a47.74 47.74 0 0 1 4.21-5.33l.43-.46.19-.19c.17-.18.32-.32.42-.42.037-.036.074-.068.099-.094.015-.016.03-.032.046-.046a.841.841 0 0 0 .06-.055.013.013 0 0 1 .018-.002l.04.033.028.022c.011.01.024.028.034.038l.055.055c.067.057.171.161.295.293.01.011.02.021.032.03.042.038.078.082.123.127l.16.16c.05.06.11.12.17.18.54.55 1.26 1.36 2.09 2.39.18.22.36.45.56.7.12.14.23.29.35.45.23.31.47.63.72.97.06.08.11.16.17.24.18.26.37.53.57.81.24.35.49.72.73 1.1.11.17.22.34.33.52.11.17.22.35.33.53.34.54.68 1.11 1 1.7.11.19.22.39.33.59.25.45.5.91.74 1.39 0 0 .012.024.017.044.002.009.013.017.013.026 0 .024.024.042.033.065a.89.89 0 0 0 .087.165c.03.06.06.13.09.19 3.738 7.575 6.665 18.235 4.213 31.27a.31.31 0 0 0 .155.333c1.51.825 11.052 6.73 9.182 23.325v.002Z"
      fill="#AFE47C" />
  </mask>
  <g mask="url(#a)">
    <path d="m55 4.964 9.018 17.212c-8.024 1.912-11.164 2.023-19.188 0L55 4.964Z" fill="#32CC86" />
    <path
      d="M62.104 22.46s.209 0 .231.043c.044.095-.815.363-1.927.682-1.476.398-1.432.476-2.39.614-.98.13-1.86.07-1.86.138 0 .043.385.078.396.121 0 .095-1.894 0-4.25-.043l-2.016-.043c-1.255-.018-2.521-.06-3.204-.77-.088-.086-.386-.432-.408-.406-.01.018.133.173.11.234-.043.086-.572-.147-1.233-.545-.088-.008-.099-.147-.022-.328a1.55 1.55 0 0 1 .309-.476c1.046.605 2.015.96 2.72 1.176 1.1.337 2.103.458 2.114.415 0-.026-.353-.121-.342-.173.022-.06.951.164 1.04.173 1.034.078 1.328-.06 2.748.164.804.104 2.324.043 5.033-.674.286-.078 1.09-.303 2.169-.597.88-.233 1.696-.466 1.718-.406.033.052-.43.26-.43.277 0 0 .32-.121 1.024-.484a.803.803 0 0 1 .166.233c.33.743-1.751.648-1.718.674h.022ZM64.41 67.1s-.154.491-.27.995c-.065.252-.129.505-.18.69-.052.186-.09.319-.09.305 0 0 .012-.159.077-.437.064-.279.141-.69.257-1.208a90.79 90.79 0 0 1 1.043-4.14c1.067-3.741.952-3.476 1.698-5.572 1.493-4.047 3.166-6.674 2.999-6.767-.103-.053-.914 1.141-.94 1.115-.013 0 .142-.253.412-.637-.064.066-.116.132-.193.199-.077.066-.142.159-.219.225a4.06 4.06 0 0 1-.244.2c-.039.132-.078.278-.13.41a3.07 3.07 0 0 1-.964 1.274l-.36.743a52.817 52.817 0 0 0-.798 1.911c-.194.464-.283.73-.258.743.052.013.592-1.154.644-1.128.038.014-.284.677-.721 1.818a35.965 35.965 0 0 0-1.48 4.578 41.131 41.131 0 0 0-.592 2.786c-.129.743-.219 1.22-.257 1.22-.052 0 .077-1.034.051-1.048 0 0-.026.093-.064.266-.026.172-.077.424-.129.716-.09.597-.206 1.393-.283 2.203-.167 1.605-.219 3.21-.077 3.224.129.013.36-1.168.618-2.335.244-1.181.489-2.349.489-2.349h-.039ZM44.382 66.744s.154.485.268.983c.064.248.127.497.178.68.052.184.09.315.09.302 0 0-.011-.157-.075-.432-.063-.275-.139-.68-.253-1.19A86.174 86.174 0 0 0 43.56 63c-1.062-3.694-.945-3.432-1.693-5.503-1.495-4-3.192-6.603-3.018-6.692.106-.052.929 1.132.956 1.107.013 0-.143-.25-.418-.632.066.066.118.132.197.198.079.066.144.159.223.225.079.066.158.132.25.198.038.131.076.275.128.406.22.538.56.934.981 1.264l.364.736c.35.787.621 1.43.802 1.889.194.459.284.72.257.734-.053.012-.598-1.143-.65-1.117-.04.012.284.669.723 1.797a34.278 34.278 0 0 1 1.477 4.52c.254 1.022.456 2.017.58 2.75.126.732.213 1.203.253 1.204.053 0-.069-1.02-.042-1.033 0 0 .026.092.064.262.024.17.075.419.125.707.086.588.184 1.373.269 2.17.155 1.582.192 3.163.046 3.174-.133.012-.36-1.152-.612-2.304-.24-1.165-.48-2.317-.48-2.317h.04Z"
      fill="#000" />
  </g>
  <path
    d="M54.37 54.752c4.91 0 8.89-3.842 8.89-8.58 0-4.739-3.98-8.58-8.89-8.58s-8.89 3.841-8.89 8.58c0 4.738 3.98 8.58 8.89 8.58Z"
    fill="#32CC86" />
  <path
    d="M62.88 44.042s-.03-.17-.1-.419c-.07-.25-.18-.579-.31-.908-.13-.32-.29-.64-.41-.869-.13-.23-.21-.389-.21-.389s.12.17.31.51c.19.338.43.858.65 1.536.21.679.39 1.527.39 2.506 0 .968-.18 2.056-.61 3.134a8.82 8.82 0 0 1-2.81 3.743c-.37.28-.7.489-1.11.718-.41.22-.9.44-1.62.64-1.39.389-2.75.399-3.91.179a8.304 8.304 0 0 1-2.86-1.108c-1.47-.908-2.08-1.747-2.13-1.697-.03.02.25.4.57.739.17.17.33.34.46.459.13.12.22.2.21.21 0 0-.03-.02-.07-.05-.05-.04-.11-.09-.2-.17-.16-.15-.4-.36-.66-.649a9.544 9.544 0 0 1-1.61-2.375 8.275 8.275 0 0 1-.77-3.684c.02-1.167.25-2.215.74-3.224.34-.718.84-1.457 1.3-1.976.45-.529.83-.858.81-.888-.02-.03-.33.19-.62.439-.29.25-.56.529-.58.509-.02-.02.27-.41.81-.898.53-.5 1.34-1.038 2.23-1.408.89-.38 1.85-.569 2.57-.639.72-.07 1.22-.04 1.23-.12 0-.04-.18-.13-.63-.209-.45-.08-1.18-.16-2.24 0-.87.24-2.25.779-3.49 1.986a8.977 8.977 0 0 0-1.61 2.096 8.571 8.571 0 0 0-.66 1.518c-.28.848-.47 1.956-.41 3.254a8.715 8.715 0 0 0 1.36 4.292c.32.509.85 1.257 1.68 1.976.73.649 1.37.998 1.69 1.178a9.26 9.26 0 0 0 4.62 1.138c.6-.01 1.07-.08 1.4-.14.16-.02.29-.06.37-.08.08-.02.13-.04.12-.04 0 0-.11 0-.28.03-.17.02-.39.05-.61.07-.22.01-.45.03-.61.03-.17 0-.28 0-.28-.01 0-.02.26 0 .72-.06.46-.05 1.13-.14 1.94-.41.8-.259 1.74-.698 2.64-1.407a8.815 8.815 0 0 0 2.35-2.874 9.01 9.01 0 0 0 .98-3.833c0-.53-.03-.968-.07-1.268-.02-.15-.03-.27-.04-.35-.01-.079-.02-.119-.01-.119.02 0 .09.35.15.709.02.18.04.36.06.499 0 .14.02.23.02.23s.01-.14 0-.39-.05-.609-.12-1.028a9.113 9.113 0 0 0-1.1-2.885c-.57-.968-1.35-1.796-2.01-2.305-.66-.52-1.17-.749-1.19-.719-.02.04.32.27.78.679a9.214 9.214 0 0 1 2.51 3.623c.22.569.31.958.31.958l-.03.01Z"
    fill="#000" />
  <path
    d="M54.669 37.906c-.008.067-.064.095-.086.105a.4.4 0 0 1-.093.024c-.065.01-.156.016-.264.022-.218.01-.52.022-.876.056a8.929 8.929 0 0 0-2.541.631 7.832 7.832 0 0 0-1.982 1.194.34.34 0 0 1 .05-.023.142.142 0 0 1 .045-.008c.017 0 .062.004.09.047a.107.107 0 0 1 .008.105.195.195 0 0 1-.02.035.75.75 0 0 1-.052.06 9.637 9.637 0 0 1-.176.183 12.01 12.01 0 0 0-.576.626l-.002.002a8.815 8.815 0 0 0-1.284 1.952c-.484.995-.71 2.029-.73 3.183a8.174 8.174 0 0 0 .76 3.638l.177.354c.291.548.628 1.047.956 1.463l.007-.006v-.001l.006-.005c.003-.002.005-.006.009-.008v.002a.108.108 0 0 1 .067-.02c.021 0 .038.008.047.012a.258.258 0 0 1 .05.033c.028.024.065.059.108.101.088.087.213.214.383.371.339.313.853.746 1.58 1.196a8.214 8.214 0 0 0 2.827 1.094l.001.001a8.538 8.538 0 0 0 3.864-.178c.534-.148.94-.307 1.28-.468l.32-.162a9.078 9.078 0 0 0 1.098-.711 8.72 8.72 0 0 0 2.777-3.7l.148-.4c.318-.933.454-1.86.455-2.697 0-.691-.092-1.317-.22-1.863l-.078.028-.02-.114-.002-.007c0-.005-.003-.012-.005-.022a5.445 5.445 0 0 0-.092-.38 8.15 8.15 0 0 0-.116-.373c-.02-.053-.038-.11-.06-.168h-.001a9.469 9.469 0 0 0-1.019-1.936 9.12 9.12 0 0 0-1.464-1.649c-.227-.202-.426-.36-.566-.474-.07-.056-.128-.104-.167-.14a.448.448 0 0 1-.05-.055.16.16 0 0 1-.023-.039.111.111 0 0 1 .004-.09l.005-.011a.107.107 0 0 1 .061-.042.116.116 0 0 1 .035-.004c.016 0 .031.003.042.006a.689.689 0 0 1 .086.03c.066.027.155.072.263.132.217.12.514.31.847.573.67.516 1.458 1.354 2.035 2.333a9.217 9.217 0 0 1 1.043 2.589l.07.33v.002c.07.421.11.785.121 1.04.005.127.005.226.004.294l-.002.078-.001.02v.008l-.115.008c.002.092.005.187.005.284v.002a9.115 9.115 0 0 1-.992 3.878 8.91 8.91 0 0 1-2.04 2.625l-.337.282a8.663 8.663 0 0 1-2.67 1.424h-.001a8.66 8.66 0 0 1-.814.227l.001.002a.1.1 0 0 1-.024.096.142.142 0 0 1-.033.023c-.01.005-.022.009-.034.013-.024.008-.06.02-.102.03-.074.018-.212.059-.377.08v.001a8.58 8.58 0 0 1-1.416.142l-.001-.001a9.371 9.371 0 0 1-4.346-.98l-.323-.17c-.32-.18-.969-.533-1.707-1.19l-.3-.273a8.948 8.948 0 0 1-1.4-1.725 8.817 8.817 0 0 1-1.374-4.341c-.06-1.31.13-2.43.415-3.29.131-.404.323-.909.667-1.533v-.001a9.07 9.07 0 0 1 1.628-2.12 8.21 8.21 0 0 1 3.533-2.01l.011-.004c1.073-.162 1.814-.08 2.273.002.228.04.392.084.501.124a.7.7 0 0 1 .13.06c.016.01.034.024.048.04a.127.127 0 0 1 .034.084l-.001.012Zm8.63 8.103c0 .98-.182 2.08-.616 3.17a8.904 8.904 0 0 1-1.381 2.361l-.187.224c-.495.564-.9.918-1.275 1.202a9.283 9.283 0 0 1-1.121.725l-.002.001a7.652 7.652 0 0 1-1.64.648 8.735 8.735 0 0 1-3.956.181 8.27 8.27 0 0 1-2.604-.95l-.29-.17c-.447-.277-.815-.55-1.113-.792.048.048.09.094.133.133l.16.148a.715.715 0 0 1 .049.051.175.175 0 0 1 .021.032c.004.006.01.02.012.038.003.02 0 .056-.03.086l-.057.057-.068-.046h-.002l-.004-.003-.016-.011a1.77 1.77 0 0 1-.052-.038l-.003-.002a5.1 5.1 0 0 1-.203-.173l-.002-.002c-.158-.148-.404-.362-.667-.655a9.654 9.654 0 0 1-1.625-2.4h-.001a8.376 8.376 0 0 1-.78-3.727l.018-.438a7.433 7.433 0 0 1 .732-2.828 9.015 9.015 0 0 1 1.316-1.999l.034-.04c-.032.031-.064.06-.093.086-.052.049-.099.092-.133.121a.495.495 0 0 1-.051.037c-.007.005-.02.013-.035.018a.107.107 0 0 1-.108-.026.103.103 0 0 1-.025-.105.63.63 0 0 1 .056-.102c.035-.051.089-.12.159-.2.14-.165.35-.388.622-.635.471-.444 1.159-.916 1.926-1.278l.334-.148a9.126 9.126 0 0 1 2.599-.646c.363-.035.672-.046.886-.057l.03-.002a3.694 3.694 0 0 0-.324-.073c-.441-.078-1.159-.157-2.204 0a8.012 8.012 0 0 0-3.439 1.96 8.873 8.873 0 0 0-1.592 2.072 8.467 8.467 0 0 0-.652 1.5v.001c-.277.837-.465 1.933-.405 3.218a8.615 8.615 0 0 0 1.344 4.243 8.752 8.752 0 0 0 1.368 1.687l.293.267v.001c.722.642 1.354.986 1.674 1.165a9.157 9.157 0 0 0 4.568 1.125h.02l-.002-.004-.005-.035.008-.042a.11.11 0 0 1 .085-.062.4.4 0 0 1 .048-.005l.142-.006a5.75 5.75 0 0 0 .523-.044h.003a8.905 8.905 0 0 0 1.92-.405c.79-.257 1.72-.69 2.608-1.39l.328-.275a8.71 8.71 0 0 0 1.996-2.568 8.914 8.914 0 0 0 .968-3.788c0-.525-.03-.96-.069-1.253-.02-.145-.031-.282-.04-.351l-.007-.05-.006-.04a.225.225 0 0 1-.002-.04.106.106 0 0 1 .048-.084.101.101 0 0 1 .038-.016 9.018 9.018 0 0 0-1.057-2.714v-.002a8.367 8.367 0 0 0-1.986-2.277 7.33 7.33 0 0 0-.385-.283l.103.089a9.314 9.314 0 0 1 1.495 1.684c.083.12.161.243.237.365l.044-.026v.002l.005.007.017.026.063.097c.055.087.134.215.23.386.145.26.317.62.488 1.072l.17.484c.212.686.395 1.545.395 2.536Z"
    fill="#000" />
  <path
    d="M59.71 57.682c-.77-1.19-1.5-2.02-3.35-4.2.61.57-.41-.43-1.45-1.59-1.03-1.16-2.09-2.52-1.64-2.41-.09-.1-.18-.23-.24-.36-.03-.06-.07-.17.01-.19.06 0 .12.03.19.05.13.04.25.08.35.12.29.1.54.19.72.25l.15.05c.07.05.14.09.23.14.01 0 .02 0 .04.02.41.18.88.44 1.69.66.14.03.29.07.46.09.09 0 .17.02.27.03h.43c.6-.03 1.26-.34 1.46-1.04.07-.22.09-.63-.14-1.06-.33-.57-.43-.66-.61-.94-.18-.25-.36-.51-.55-.79-.39-.55-.83-1.14-1.33-1.77-.99-1.27-2.2-2.72-3.72-4.34-.25-.26-.63-.32-.84-.12-.22.19-.19.55.06.83.85.9 2.17 2.28 3.09 3.37.93 1.08 1.49 1.84.94 1.38-.47-.38-.1.09.44.77.52.65 1.27 1.6 1.46 1.89.06.1.18.25.17.45-.06.4-.59.45-.85.43-.31-.02-.42-.07-.08-.12-.32-.04-.6-.13-.85-.2h-.02a1.7 1.7 0 0 0-.3-.18c-.19-.1-.43-.2-.72-.33-.14-.05-.28-.11-.44-.17-.24-.08-.5-.18-.78-.28-.41-.14-.84-.29-1.31-.45-.24-.07-.43-.06-.58-.04-.15.04-.26 0-.43.16-.14.18-.15.35-.15.53 0 .18.05.39.15.63.1.24.24.49.4.73.15.24.36.53.45.64-.06-.06-.12-.11-.16-.16-.07-.08-.13-.15-.19-.21-.11-.13-.19-.21-.24-.26-.1-.1-.09-.05.02.14.33.53.59.82 1.05 1.38.87 1.05 2.13 2.4 2.58 2.92 1.87 2.21 2.52 2.95 3.2 4.02.2.29.58.43.85.32.26-.13.33-.48.13-.78l-.02-.01Z"
    fill="#fff" />
  <path
    d="M48.88 62.289a.78.78 0 1 0 0-1.56.78.78 0 0 0 0 1.56ZM58.575 66.362a.5.5 0 1 0 0-1 .5.5 0 0 0 0 1ZM60.345 30.822a.5.5 0 1 0 0-1 .5.5 0 0 0 0 1ZM39.776 35.361c-.459-2.048-.717-2.574-.542-3.652.05-.28.109-.501.15-.641-.242.296-.383.427-.425.403-.05-.033.042-.28.267-.74 0 0-.409.707-.71 1.719-.424 1.447-.183 2.048-.575 2.245-.517.255-1.576-.436-2.018-1.234-.117-.222-.033-.156-.492-1.456-.15-.419-.092-.904-.025-.937.075-.041.175.576.25.534.084-.04-.233-.65-.383-1.488-.226-1.234.058-2.024.133-2.213.108-.271.292-.773.45-.748.35.05.009 2.574.993 5.428.142.42.384 1.045.592 1.02.367-.05.417-2.278.509-2.27.033 0 .025.329.091.337.176.033.484-2.163 1.21-2.253.175-.025.333.09.417.156.383 1.398.567 2.558.659 3.372.15 1.259.25 3.027 1.042 3.562.117.074.35.238.65.222.476-.025.726-.453.86-.37.125.074.058.55-.217.855-.317.345-.8.362-1.1.37-.176 0-.651.017-1.018-.197-.45-.264-.492-.724-.776-2.024h.008ZM74.232 21.194s.33-.09.35-.03c.02.05-.32.21-.8.57-.48.35-1.03.97-1.48 1.74-.58 1.03-.66 1.61-.78 2.04-.08.45-.16.78-.23 1.46-.06.69 0 1.38.35 1.59.35.21.67.1.64.08-.01-.02-.43-.1-.39-.17-.01-.06.31.11.64-.14.22-.17.22-.93-.11-1.65-.31-.71-1.05-1.44-1.88-1.23-.69.17-1.2.66-1.52.98-.32.34-.47.57-.47.57-.91 1.33-.83 2.78-1.38 4.04-.07.15-.31.8-.27.8.02 0 .12-.31.19-.31.12 0 .04.82.14 1.98.05.11-.05.25-.26.36-.18.1-.42.15-.61.13-.29-2.05-.12-3.72.17-4.85.23-.89.62-1.66.97-2.16.37-.5.63-.79.62-.8-.03-.04-.45.39-.49.36-.09-.08.7-.95.84-1.03.64-.55 1.25-.94 2.09-1.01.86-.09 1.87.49 2.36 1.59.09.2.2.41.31.8.06.19.12.43.15.74.03.28.04.77-.29 1.2-.08.1-.27.3-.67.41-.21.05-.41.07-.68.03-.26-.05-.59-.15-.78-.45-.46-.57-.49-1.23-.49-1.92.02-.69.14-1.44.4-2.22.18-.46.55-1.95 2.15-3.35.65-.59 1.54-.91 2.19-1.01.66-.09 1.08 0 1.07.04 0 .03-1 .13-.99.18-.01.05.68-.28 2.2.06 0 .08 0 .21-.05.31-.21.4-.91.16-1.67.12-.76-.06-1.56.14-1.54.17v-.02Z"
    fill="#000" />
</svg>