<svg viewBox="0 0 16 16" fill="none" xmlns="http://www.w3.org/2000/svg">
  <path fill-rule="evenodd" clip-rule="evenodd"
    d="M2.333 3.267a.4.4 0 0 0-.4.4v8.666a.4.4 0 0 0 .4.4H8a.6.6 0 1 1 0 1.2H2.333a1.6 1.6 0 0 1-1.6-1.6V3.667a1.6 1.6 0 0 1 1.6-1.6h11.334a1.6 1.6 0 0 1 1.6 1.6v4.02a.6.6 0 0 1-1.2 0v-4.02a.4.4 0 0 0-.4-.4H2.333Z"
    fill="#18181B" />
  <path fill-rule="evenodd" clip-rule="evenodd"
    d="M2.333 3.167a.5.5 0 0 0-.5.5v2.5h12.334v-2.5a.5.5 0 0 0-.5-.5H2.333Zm-1.06-.561a1.5 1.5 0 0 1 1.06-.44h11.334a1.5 1.5 0 0 1 1.5 1.5v3.5H.833v-3.5c0-.397.158-.779.44-1.06Z"
    fill="#18181B" />
  <path
    d="M2.667 4.667a.667.667 0 1 1 1.333 0 .667.667 0 0 1-1.333 0ZM4.667 4.667a.667.667 0 1 1 1.333 0 .667.667 0 0 1-1.333 0Z"
    fill="#18181B" />
  <path fill-rule="evenodd" clip-rule="evenodd"
    d="M12.333 11a.333.333 0 1 0 0 .667.333.333 0 0 0 0-.667Zm-1.666.333a1.667 1.667 0 1 1 3.333 0 1.667 1.667 0 0 1-3.333 0Z"
    fill="#18181B" />
  <path fill-rule="evenodd" clip-rule="evenodd"
    d="M12.333 8.4a.6.6 0 0 1 .6.6v1.294l1.121-.647a.6.6 0 1 1 .6 1.04l-1.12.646 1.12.647a.6.6 0 1 1-.6 1.04l-1.12-.647v1.294a.6.6 0 0 1-1.2 0v-1.294l-1.121.647a.6.6 0 1 1-.6-1.04l1.12-.647-1.12-.647a.6.6 0 1 1 .6-1.039l1.12.647V9a.6.6 0 0 1 .6-.6Zm-.267 2.47a.598.598 0 0 1-.267.463.598.598 0 0 1 .267.463.598.598 0 0 1 .534 0 .597.597 0 0 1 .268-.463.599.599 0 0 1-.268-.462.598.598 0 0 1-.534 0Z"
    fill="#18181B" />
</svg>