<svg viewBox="0 0 13 12" fill="none" xmlns="http://www.w3.org/2000/svg">
  <g clip-path="url(#shipping_fast_a)">
    <path
      d="M.5 2.25V3h7.125v5.625H5.316A1.495 1.495 0 0 0 3.875 7.5c-.695 0-1.274.48-1.442 1.125H2V6.75h-.75v2.625h1.183A1.495 1.495 0 0 0 3.875 10.5c.694 0 1.274-.48 1.441-1.125h3.118A1.495 1.495 0 0 0 9.875 10.5c.694 0 1.274-.48 1.441-1.125H12.5V6.316l-.024-.058-.75-2.25-.081-.258h-3.27v-1.5H.5Zm.375 1.5v.75H4.25v-.75H.875Zm7.5.75h2.73l.645 1.922v2.203h-.434A1.495 1.495 0 0 0 9.875 7.5c-.694 0-1.274.48-1.441 1.125h-.059V4.5Zm-7.125.75V6H3.5v-.75H1.25Zm2.625 3c.419 0 .75.331.75.75s-.331.75-.75.75a.744.744 0 0 1-.75-.75c0-.419.331-.75.75-.75Zm6 0c.419 0 .75.331.75.75s-.331.75-.75.75a.744.744 0 0 1-.75-.75c0-.419.331-.75.75-.75Z"
      fill="currentColor" />
  </g>
  <defs>
    <clipPath id="shipping_fast_a">
      <path fill="#fff" transform="translate(.5)" d="M0 0h12v12H0z" />
    </clipPath>
  </defs>
</svg>