<svg width="95" height="94" viewBox="0 0 95 94" fill="none" xmlns="http://www.w3.org/2000/svg">
<g clip-path="url(#clip0_11831_199788)">
<rect x="9.06543" y="27.0272" width="57.5884" height="66.8437" rx="4.11346" transform="rotate(-14.8891 9.06543 27.0272)" fill="#D9D9D9"/>
<path d="M50.3059 32.243C50.6093 31.5286 51.8163 31.3666 52.2114 32.1244C53.7317 35.0279 53.6587 34.8956 55.4581 38.8576C59.1149 37.7019 62.9261 38.8174 64.2869 41.722L64.2815 41.6353C65.6464 44.549 64.1218 48.2145 60.862 50.2872C63.8944 56.4364 63.8233 56.2481 65.3104 59.5699C65.6134 60.2466 64.8824 61.0744 64.0812 60.7765C61.8565 59.9585 59.9996 59.4655 58.5976 59.2919C56.374 58.9225 49.4132 57.8605 42.7483 61.0013L47.4305 72.2155C47.9842 73.5423 47.3764 75.0595 46.0719 75.6043C44.7671 76.1491 43.2599 75.5145 42.7059 74.1876L38.1781 63.3453C37.5762 63.5382 36.9286 63.6512 36.1732 63.6443C35.7307 63.6718 33.3286 63.5678 31.3451 61.9545C29.5591 62.4675 27.7515 61.8688 27.1081 60.409L27.1135 60.4958C26.5543 59.0455 27.3117 57.3029 28.8862 56.3719C28.8637 54.2798 29.6342 52.2132 30.8607 50.9311C32.0845 49.6377 33.14 49.8323 35.349 48.9992C42.8367 46.3593 46.6501 39.1657 47.5059 37.5472C48.1289 36.378 49.4067 34.5595 50.3059 32.243Z" fill="#BEBEBE"/>
<path d="M14.2409 30.4233C14.2409 30.4233 14.1915 30.2374 14.1667 30.1444C14.1173 29.9585 14.142 30.0515 14.142 30.0515L20.6825 28.3125C21.6958 28.0431 22.7091 27.7737 23.673 27.3184L23.8572 27.2694C23.8572 27.2694 23.8572 27.2694 24.0167 27.1274L24.3852 27.0294C24.3852 27.0294 24.6189 27.1664 24.6436 27.2594L24.7425 27.6312C24.6077 27.8661 24.5155 27.8906 24.5403 27.9836L24.0797 28.106C23.0237 28.5859 22.0104 28.8553 20.997 29.1247C18.8783 29.688 16.7101 30.0654 14.5667 30.5358L14.2903 30.6093L14.2409 30.4233Z" fill="white"/>
</g>
<path d="M9.65823 24.3396C9.64998 24.1701 9.54861 23.8327 9.17105 23.0828C8.42977 21.8409 7.77312 20.8304 7.54614 20.5828C7.50101 20.5811 7.59813 20.8312 7.69819 21.0889" stroke="#D9D9D9" stroke-width="0.822692" stroke-linecap="round"/>
<path d="M6.49479 28.0961C6.32118 28.0196 6.14758 27.9431 5.84217 27.8293C5.53676 27.7154 5.10481 27.5666 4.41003 27.3855C3.71526 27.2044 2.77074 26.9956 1.79761 26.7804" stroke="#D9D9D9" stroke-width="0.822692" stroke-linecap="round"/>
<path d="M7.67818 25.9785C6.79778 25.3418 5.91738 24.7052 5.1993 24.1777C4.48123 23.6503 3.95216 23.2513 3.81291 23.1667C3.67366 23.0822 3.94025 23.324 4.21493 23.5732" stroke="#D9D9D9" stroke-width="0.822692" stroke-linecap="round"/>
<rect x="44.928" y="0.901647" width="48.6889" height="26.4716" rx="13.2358" fill="white"/>
<rect x="44.928" y="0.901647" width="48.6889" height="26.4716" rx="13.2358" stroke="#BEBEBE" stroke-width="1.80329"/>
<rect x="56.6494" y="10.8198" width="25.2461" height="6.63534" rx="3.31767" fill="#FFD634"/>
<defs>
<clipPath id="clip0_11831_199788">
<rect x="9.06543" y="27.0272" width="57.5884" height="66.8437" rx="4.11346" transform="rotate(-14.8891 9.06543 27.0272)" fill="white"/>
</clipPath>
</defs>
</svg>
