<svg xmlns="http://www.w3.org/2000/svg" width="32" height="32" fill="none"><g clip-path="url(#a)"><path fill="#007934" d="M32 0H0v32h32V0Z"/><path fill="#fff" d="M10.717 22.697c-.539-.69-.46-1.684.225-2.226.685-.541 1.553-.385 2.184.28.872.92 1.73 1.36 2.883 1.36s2.011-.44 2.883-1.36c.632-.665 1.5-.821 2.185-.28.685.542.763 1.537.225 2.226a6.63 6.63 0 0 1-5.293 2.582 6.63 6.63 0 0 1-5.292-2.582ZM16.754 7.632c.866.136 1.125.176 1.746.114.604-.078 1.134-.287 1.761-.694.77-.5 1.65-.448 2.19.238.54.688.354 1.594-.339 2.228-.692.635-1.548.987-2.422 1.16-.973.194-1.66.234-2.894.04-1.316-.208-2.123.232-2.579.697a2.51 2.51 0 1 0 3.691.116 7.508 7.508 0 0 0 2.201-.232 7.066 7.066 0 0 0 1.067-.373 5.67 5.67 0 0 1 .463 2.247c0 3.117-2.52 5.645-5.63 5.645-3.109 0-5.63-2.528-5.63-5.645A5.639 5.639 0 0 1 14.4 7.765c.586-.175 1.375-.287 2.347-.134l.007.001Z"/></g><defs><clipPath id="a"><path fill="#fff" d="M0 0h32v32H0z"/></clipPath></defs></svg>